%TF.GenerationSoftware,KiCad,Pcbnew,10.0.1*%
%TF.CreationDate,2026-08-20T23:36:16-04:00*%
%TF.ProjectId,Nixie_Tube_PCB,4e697869-655f-4547-9562-655f5043422e,vJUNE 2026*%
%TF.SameCoordinates,Original*%
%TF.FileFunction,Soldermask,Bot*%
%TF.FilePolarity,Negative*%
%FSLAX46Y46*%
G04 Gerber Fmt 4.6, Leading zero omitted, Abs format (unit mm)*
G04 Created by KiCad (PCBNEW 10.0.1) date 2026-08-20 23:36:16*
%MOMM*%
%LPD*%
G01*
G04 APERTURE LIST*
G04 Aperture macros list*
%AMRoundRect*
0 Rectangle with rounded corners*
0 $1 Rounding radius*
0 $2 $3 $4 $5 $6 $7 $8 $9 X,Y pos of 4 corners*
0 Add a 4 corners polygon primitive as box body*
4,1,4,$2,$3,$4,$5,$6,$7,$8,$9,$2,$3,0*
0 Add four circle primitives for the rounded corners*
1,1,$1+$1,$2,$3*
1,1,$1+$1,$4,$5*
1,1,$1+$1,$6,$7*
1,1,$1+$1,$8,$9*
0 Add four rect primitives between the rounded corners*
20,1,$1+$1,$2,$3,$4,$5,0*
20,1,$1+$1,$4,$5,$6,$7,0*
20,1,$1+$1,$6,$7,$8,$9,0*
20,1,$1+$1,$8,$9,$2,$3,0*%
G04 Aperture macros list end*
%ADD10C,1.600000*%
%ADD11R,1.320800X1.320800*%
%ADD12C,1.320800*%
%ADD13C,5.000000*%
%ADD14C,2.743200*%
%ADD15RoundRect,0.102000X-0.825000X-0.825000X0.825000X-0.825000X0.825000X0.825000X-0.825000X0.825000X0*%
%ADD16C,1.854000*%
%ADD17O,3.204000X6.204000*%
%ADD18R,1.498600X1.498600*%
%ADD19C,1.498600*%
%ADD20C,1.371600*%
%ADD21R,1.524000X1.524000*%
%ADD22C,1.524000*%
%ADD23R,2.100000X2.100000*%
%ADD24C,2.100000*%
%ADD25R,1.300000X1.300000*%
%ADD26C,1.300000*%
%ADD27R,1.500000X1.500000*%
%ADD28C,1.500000*%
%ADD29R,1.295400X1.295400*%
%ADD30C,1.295400*%
%ADD31R,2.400000X2.400000*%
%ADD32O,2.400000X2.400000*%
%ADD33RoundRect,0.102000X-1.387500X-1.387500X1.387500X-1.387500X1.387500X1.387500X-1.387500X1.387500X0*%
%ADD34C,2.979000*%
%ADD35RoundRect,0.102000X-0.762000X-0.762000X0.762000X-0.762000X0.762000X0.762000X-0.762000X0.762000X0*%
%ADD36C,1.728000*%
%ADD37C,4.114800*%
%ADD38C,3.708400*%
%ADD39R,1.422400X1.422400*%
%ADD40C,1.422400*%
%ADD41RoundRect,0.102000X0.970000X-0.970000X0.970000X0.970000X-0.970000X0.970000X-0.970000X-0.970000X0*%
%ADD42C,2.144000*%
G04 APERTURE END LIST*
D10*
%TO.C,R10*%
X96525000Y-170725000D03*
X96525000Y-160565000D03*
%TD*%
D11*
%TO.C,U8*%
X76661150Y-159988850D03*
D12*
X76661150Y-162528850D03*
X76661150Y-165068850D03*
X76661150Y-167608850D03*
X76661150Y-170148850D03*
X76661150Y-172688850D03*
X76661150Y-175228850D03*
X84281150Y-175228850D03*
X84281150Y-172688850D03*
X84281150Y-170148850D03*
X84281150Y-167608850D03*
X84281150Y-165068850D03*
X84281150Y-162528850D03*
X84281150Y-159988850D03*
%TD*%
D13*
%TO.C,NX3*%
X180471150Y-149608843D03*
D14*
X185518650Y-154108843D03*
X176153650Y-157426343D03*
X174471150Y-154108843D03*
X174344150Y-149608843D03*
X174471150Y-145108843D03*
X176153650Y-141791343D03*
X180153650Y-140791343D03*
X184153650Y-141791343D03*
X185518650Y-145108843D03*
X185645650Y-149608843D03*
X184153650Y-157426343D03*
X180153650Y-158426343D03*
%TD*%
D15*
%TO.C,S2*%
X187900000Y-75400000D03*
D16*
X192900000Y-75400000D03*
X187900000Y-89900000D03*
X192900000Y-89900000D03*
X190400000Y-89900000D03*
D17*
X184700000Y-82400000D03*
X196100000Y-82400000D03*
%TD*%
D18*
%TO.C,J7*%
X253050000Y-115560000D03*
D19*
X253050000Y-118100000D03*
X253050000Y-120640000D03*
X253050000Y-123180000D03*
X253050000Y-125720000D03*
X253050000Y-128260000D03*
X253050000Y-130800000D03*
X253050000Y-133340000D03*
X260670000Y-133340000D03*
X260670000Y-130800000D03*
X260670000Y-128260000D03*
X260670000Y-125720000D03*
X260670000Y-123180000D03*
X260670000Y-120640000D03*
X260670000Y-118100000D03*
X260670000Y-115560000D03*
%TD*%
D10*
%TO.C,R1*%
X90471150Y-172188850D03*
X90471150Y-162028850D03*
%TD*%
D18*
%TO.C,J6*%
X229750000Y-133400000D03*
D19*
X229750000Y-130860000D03*
X229750000Y-128320000D03*
X229750000Y-125780000D03*
X229750000Y-123240000D03*
X229750000Y-120700000D03*
X229750000Y-118160000D03*
X229750000Y-115620000D03*
X222130000Y-115620000D03*
X222130000Y-118160000D03*
X222130000Y-120700000D03*
X222130000Y-123240000D03*
X222130000Y-125780000D03*
X222130000Y-128320000D03*
X222130000Y-130860000D03*
X222130000Y-133400000D03*
%TD*%
D10*
%TO.C,C7*%
X84161150Y-104418850D03*
X89161150Y-104418850D03*
%TD*%
%TO.C,C4*%
X92971150Y-177108850D03*
X87971150Y-177108850D03*
%TD*%
D20*
%TO.C,C5*%
X71161150Y-112418850D03*
X76161150Y-112418850D03*
%TD*%
D21*
%TO.C,U7*%
X82661150Y-108798850D03*
D22*
X82661150Y-111338850D03*
X82661150Y-113878850D03*
X82661150Y-116418850D03*
X90281150Y-116418850D03*
X90281150Y-113878850D03*
X90281150Y-111338850D03*
X90281150Y-108798850D03*
%TD*%
D18*
%TO.C,J2*%
X129971150Y-133560000D03*
D19*
X129971150Y-131020000D03*
X129971150Y-128480000D03*
X129971150Y-125940000D03*
X129971150Y-123400000D03*
X129971150Y-120860000D03*
X129971150Y-118320000D03*
X129971150Y-115780000D03*
X122351150Y-115780000D03*
X122351150Y-118320000D03*
X122351150Y-120860000D03*
X122351150Y-123400000D03*
X122351150Y-125940000D03*
X122351150Y-128480000D03*
X122351150Y-131020000D03*
X122351150Y-133560000D03*
%TD*%
D13*
%TO.C,NX1*%
X131471150Y-149608843D03*
D14*
X136518650Y-154108843D03*
X127153650Y-157426343D03*
X125471150Y-154108843D03*
X125344150Y-149608843D03*
X125471150Y-145108843D03*
X127153650Y-141791343D03*
X131153650Y-140791343D03*
X135153650Y-141791343D03*
X136518650Y-145108843D03*
X136645650Y-149608843D03*
X135153650Y-157426343D03*
X131153650Y-158426343D03*
%TD*%
D23*
%TO.C,Q1*%
X77891150Y-153608850D03*
D24*
X80431150Y-153608850D03*
X82971150Y-153608850D03*
%TD*%
D10*
%TO.C,R9*%
X245320000Y-165800000D03*
X255480000Y-165800000D03*
%TD*%
D15*
%TO.C,S1*%
X166650000Y-75400000D03*
D16*
X171650000Y-75400000D03*
X166650000Y-89900000D03*
X171650000Y-89900000D03*
X169150000Y-89900000D03*
D17*
X163450000Y-82400000D03*
X174850000Y-82400000D03*
%TD*%
D10*
%TO.C,C3*%
X92971150Y-157108850D03*
X87971150Y-157108850D03*
%TD*%
D25*
%TO.C,C1*%
X77281150Y-182148850D03*
D26*
X79781150Y-182148850D03*
%TD*%
D21*
%TO.C,C2*%
X90446000Y-149148850D03*
D22*
X95449800Y-149148850D03*
%TD*%
D27*
%TO.C,L2*%
X93471150Y-123418850D03*
D28*
X97471150Y-123418850D03*
%TD*%
D10*
%TO.C,R2*%
X70781150Y-171568850D03*
X70781150Y-181728850D03*
%TD*%
D13*
%TO.C,NX2*%
X151471150Y-149608843D03*
D14*
X156518650Y-154108843D03*
X147153650Y-157426343D03*
X145471150Y-154108843D03*
X145344150Y-149608843D03*
X145471150Y-145108843D03*
X147153650Y-141791343D03*
X151153650Y-140791343D03*
X155153650Y-141791343D03*
X156518650Y-145108843D03*
X156645650Y-149608843D03*
X155153650Y-157426343D03*
X151153650Y-158426343D03*
%TD*%
D29*
%TO.C,U1*%
X144971150Y-132180000D03*
D30*
X144971150Y-129640000D03*
X144971150Y-127100000D03*
X144971150Y-124560000D03*
X144971150Y-122020000D03*
X144971150Y-119480000D03*
X144971150Y-116940000D03*
X137351150Y-116940000D03*
X137351150Y-119480000D03*
X137351150Y-122020000D03*
X137351150Y-124560000D03*
X137351150Y-127100000D03*
X137351150Y-129640000D03*
X137351150Y-132180000D03*
%TD*%
D18*
%TO.C,J4*%
X179540000Y-133560000D03*
D19*
X179540000Y-131020000D03*
X179540000Y-128480000D03*
X179540000Y-125940000D03*
X179540000Y-123400000D03*
X179540000Y-120860000D03*
X179540000Y-118320000D03*
X179540000Y-115780000D03*
X171920000Y-115780000D03*
X171920000Y-118320000D03*
X171920000Y-120860000D03*
X171920000Y-123400000D03*
X171920000Y-125940000D03*
X171920000Y-128480000D03*
X171920000Y-131020000D03*
X171920000Y-133560000D03*
%TD*%
D13*
%TO.C,NX5*%
X231000000Y-149608843D03*
D14*
X236047500Y-154108843D03*
X226682500Y-157426343D03*
X225000000Y-154108843D03*
X224873000Y-149608843D03*
X225000000Y-145108843D03*
X226682500Y-141791343D03*
X230682500Y-140791343D03*
X234682500Y-141791343D03*
X236047500Y-145108843D03*
X236174500Y-149608843D03*
X234682500Y-157426343D03*
X230682500Y-158426343D03*
%TD*%
D15*
%TO.C,S3*%
X209150000Y-75400000D03*
D16*
X214150000Y-75400000D03*
X209150000Y-89900000D03*
X214150000Y-89900000D03*
X211650000Y-89900000D03*
D17*
X205950000Y-82400000D03*
X217350000Y-82400000D03*
%TD*%
D31*
%TO.C,D2*%
X71311150Y-123418850D03*
D32*
X84011150Y-123418850D03*
%TD*%
D21*
%TO.C,C6*%
X96326000Y-111918850D03*
D22*
X101329800Y-111918850D03*
%TD*%
D33*
%TO.C,SW1*%
X185921150Y-101108850D03*
D34*
X190621150Y-101108850D03*
X195321150Y-101108850D03*
%TD*%
D13*
%TO.C,NX4*%
X200788650Y-149608843D03*
D14*
X205836150Y-154108843D03*
X196471150Y-157426343D03*
X194788650Y-154108843D03*
X194661650Y-149608843D03*
X194788650Y-145108843D03*
X196471150Y-141791343D03*
X200471150Y-140791343D03*
X204471150Y-141791343D03*
X205836150Y-145108843D03*
X205963150Y-149608843D03*
X204471150Y-157426343D03*
X200471150Y-158426343D03*
%TD*%
D35*
%TO.C,U9*%
X281000000Y-116500000D03*
D36*
X281000000Y-119040000D03*
X281000000Y-121580000D03*
X281000000Y-124120000D03*
X281000000Y-126660000D03*
X281000000Y-129200000D03*
X281000000Y-131740000D03*
X281000000Y-134280000D03*
X281000000Y-136820000D03*
X281000000Y-139360000D03*
X281000000Y-141900000D03*
X281000000Y-144440000D03*
X281000000Y-146980000D03*
X281000000Y-149520000D03*
X281000000Y-152060000D03*
X281000000Y-154600000D03*
X303860000Y-116500000D03*
X303860000Y-119040000D03*
X303860000Y-121580000D03*
X303860000Y-124120000D03*
X303860000Y-126660000D03*
X303860000Y-129200000D03*
X303860000Y-131740000D03*
X303860000Y-134280000D03*
X303860000Y-136820000D03*
X303860000Y-139360000D03*
X303860000Y-141900000D03*
X303860000Y-144440000D03*
X303860000Y-146980000D03*
X303860000Y-149520000D03*
X303860000Y-152060000D03*
X303860000Y-154600000D03*
%TD*%
D10*
%TO.C,R3*%
X84701150Y-183648850D03*
X94861150Y-183648850D03*
%TD*%
D18*
%TO.C,J3*%
X151851150Y-115560000D03*
D19*
X151851150Y-118100000D03*
X151851150Y-120640000D03*
X151851150Y-123180000D03*
X151851150Y-125720000D03*
X151851150Y-128260000D03*
X151851150Y-130800000D03*
X151851150Y-133340000D03*
X159471150Y-133340000D03*
X159471150Y-130800000D03*
X159471150Y-128260000D03*
X159471150Y-125720000D03*
X159471150Y-123180000D03*
X159471150Y-120640000D03*
X159471150Y-118100000D03*
X159471150Y-115560000D03*
%TD*%
D37*
%TO.C,J1*%
X67979612Y-87134444D03*
X67979612Y-80834446D03*
D38*
X63179611Y-83984445D03*
%TD*%
D10*
%TO.C,R4*%
X125120000Y-165800000D03*
X135280000Y-165800000D03*
%TD*%
%TO.C,R7*%
X194320000Y-165800000D03*
X204480000Y-165800000D03*
%TD*%
%TO.C,R5*%
X144920000Y-165800000D03*
X155080000Y-165800000D03*
%TD*%
D29*
%TO.C,U3*%
X245210000Y-132180000D03*
D30*
X245210000Y-129640000D03*
X245210000Y-127100000D03*
X245210000Y-124560000D03*
X245210000Y-122020000D03*
X245210000Y-119480000D03*
X245210000Y-116940000D03*
X237590000Y-116940000D03*
X237590000Y-119480000D03*
X237590000Y-122020000D03*
X237590000Y-124560000D03*
X237590000Y-127100000D03*
X237590000Y-129640000D03*
X237590000Y-132180000D03*
%TD*%
D10*
%TO.C,R8*%
X224520000Y-165800000D03*
X234680000Y-165800000D03*
%TD*%
D29*
%TO.C,U2*%
X194420000Y-132180000D03*
D30*
X194420000Y-129640000D03*
X194420000Y-127100000D03*
X194420000Y-124560000D03*
X194420000Y-122020000D03*
X194420000Y-119480000D03*
X194420000Y-116940000D03*
X186800000Y-116940000D03*
X186800000Y-119480000D03*
X186800000Y-122020000D03*
X186800000Y-124560000D03*
X186800000Y-127100000D03*
X186800000Y-129640000D03*
X186800000Y-132180000D03*
%TD*%
D10*
%TO.C,R6*%
X174120000Y-165800000D03*
X184280000Y-165800000D03*
%TD*%
D18*
%TO.C,J5*%
X201920000Y-115560000D03*
D19*
X201920000Y-118100000D03*
X201920000Y-120640000D03*
X201920000Y-123180000D03*
X201920000Y-125720000D03*
X201920000Y-128260000D03*
X201920000Y-130800000D03*
X201920000Y-133340000D03*
X209540000Y-133340000D03*
X209540000Y-130800000D03*
X209540000Y-128260000D03*
X209540000Y-125720000D03*
X209540000Y-123180000D03*
X209540000Y-120640000D03*
X209540000Y-118100000D03*
X209540000Y-115560000D03*
%TD*%
D39*
%TO.C,L1*%
X65489950Y-151648850D03*
D40*
X71281150Y-151648850D03*
%TD*%
D41*
%TO.C,D1*%
X71281150Y-165728850D03*
D42*
X71281150Y-163188850D03*
X71281150Y-160648850D03*
%TD*%
D13*
%TO.C,NX6*%
X251676251Y-149608843D03*
D14*
X256723751Y-154108843D03*
X247358751Y-157426343D03*
X245676251Y-154108843D03*
X245549251Y-149608843D03*
X245676251Y-145108843D03*
X247358751Y-141791343D03*
X251358751Y-140791343D03*
X255358751Y-141791343D03*
X256723751Y-145108843D03*
X256850751Y-149608843D03*
X255358751Y-157426343D03*
X251358751Y-158426343D03*
%TD*%
M02*
