M48
; DRILL file KiCad 10.0.1 date 2026-08-20T23:36:11
; FORMAT={-:-/ absolute / metric / decimal}
; #@! TF.CreationDate,2026-08-20T23:36:11-04:00
; #@! TF.GenerationSoftware,Kicad,Pcbnew,10.0.1
; #@! TF.FileFunction,Plated,1,2,PTH
FMAT,2
METRIC
; #@! TA.AperFunction,Plated,PTH,ViaDrill
T1C0.300
; #@! TA.AperFunction,Plated,PTH,ComponentDrill
T2C0.787
; #@! TA.AperFunction,Plated,PTH,ComponentDrill
T3C0.800
; #@! TA.AperFunction,Plated,PTH,ComponentDrill
T4C0.813
; #@! TA.AperFunction,Plated,PTH,ComponentDrill
T5C0.864
; #@! TA.AperFunction,Plated,PTH,ComponentDrill
T6C0.914
; #@! TA.AperFunction,Plated,PTH,ComponentDrill
T7C0.991
; #@! TA.AperFunction,Plated,PTH,ComponentDrill
T8C1.000
; #@! TA.AperFunction,Plated,PTH,ComponentDrill
T9C1.016
; #@! TA.AperFunction,Plated,PTH,ComponentDrill
T10C1.100
; #@! TA.AperFunction,Plated,PTH,ComponentDrill
T11C1.200
; #@! TA.AperFunction,Plated,PTH,ComponentDrill
T12C1.290
; #@! TA.AperFunction,Plated,PTH,ComponentDrill
T13C1.400
; #@! TA.AperFunction,Plated,PTH,ComponentDrill
T14C1.850
; #@! TA.AperFunction,Plated,PTH,ComponentDrill
T15C2.000
; #@! TA.AperFunction,Plated,PTH,ComponentDrill
T16C3.200
; #@! TA.AperFunction,Plated,PTH,ComponentDrill
T17C3.607
%
G90
G05
T1
X116.6Y-126.4
X168.4Y-120.2
X190.8Y-141.2
X214.0Y-120.6
X215.4Y-127.2
X269.8Y-127.4
T2
X137.351Y-116.94
X137.351Y-119.48
X137.351Y-122.02
X137.351Y-124.56
X137.351Y-127.1
X137.351Y-129.64
X137.351Y-132.18
X144.971Y-116.94
X144.971Y-119.48
X144.971Y-122.02
X144.971Y-124.56
X144.971Y-127.1
X144.971Y-129.64
X144.971Y-132.18
X186.8Y-116.94
X186.8Y-119.48
X186.8Y-122.02
X186.8Y-124.56
X186.8Y-127.1
X186.8Y-129.64
X186.8Y-132.18
X194.42Y-116.94
X194.42Y-119.48
X194.42Y-122.02
X194.42Y-124.56
X194.42Y-127.1
X194.42Y-129.64
X194.42Y-132.18
X237.59Y-116.94
X237.59Y-119.48
X237.59Y-122.02
X237.59Y-124.56
X237.59Y-127.1
X237.59Y-129.64
X237.59Y-132.18
X245.21Y-116.94
X245.21Y-119.48
X245.21Y-122.02
X245.21Y-124.56
X245.21Y-127.1
X245.21Y-129.64
X245.21Y-132.18
T3
X70.781Y-171.569
X70.781Y-181.729
X77.281Y-182.149
X79.781Y-182.149
X84.161Y-104.419
X84.701Y-183.649
X87.971Y-157.109
X87.971Y-177.109
X89.161Y-104.419
X90.471Y-162.029
X90.471Y-172.189
X92.971Y-157.109
X92.971Y-177.109
X94.861Y-183.649
X96.525Y-160.565
X96.525Y-170.725
X125.12Y-165.8
X135.28Y-165.8
X144.92Y-165.8
X155.08Y-165.8
X174.12Y-165.8
X184.28Y-165.8
X194.32Y-165.8
X204.48Y-165.8
X224.52Y-165.8
X234.68Y-165.8
X245.32Y-165.8
X255.48Y-165.8
T4
X76.661Y-159.989
X76.661Y-162.529
X76.661Y-165.069
X76.661Y-167.609
X76.661Y-170.149
X76.661Y-172.689
X76.661Y-175.229
X82.661Y-108.799
X82.661Y-111.339
X82.661Y-113.879
X82.661Y-116.419
X84.281Y-159.989
X84.281Y-162.529
X84.281Y-165.069
X84.281Y-167.609
X84.281Y-170.149
X84.281Y-172.689
X84.281Y-175.229
X90.281Y-108.799
X90.281Y-111.339
X90.281Y-113.879
X90.281Y-116.419
T5
X71.161Y-112.419
X76.161Y-112.419
T6
X65.49Y-151.649
X71.281Y-151.649
T7
X122.351Y-115.78
X122.351Y-118.32
X122.351Y-120.86
X122.351Y-123.4
X122.351Y-125.94
X122.351Y-128.48
X122.351Y-131.02
X122.351Y-133.56
X129.971Y-115.78
X129.971Y-118.32
X129.971Y-120.86
X129.971Y-123.4
X129.971Y-125.94
X129.971Y-128.48
X129.971Y-131.02
X129.971Y-133.56
X151.851Y-115.56
X151.851Y-118.1
X151.851Y-120.64
X151.851Y-123.18
X151.851Y-125.72
X151.851Y-128.26
X151.851Y-130.8
X151.851Y-133.34
X159.471Y-115.56
X159.471Y-118.1
X159.471Y-120.64
X159.471Y-123.18
X159.471Y-125.72
X159.471Y-128.26
X159.471Y-130.8
X159.471Y-133.34
X171.92Y-115.78
X171.92Y-118.32
X171.92Y-120.86
X171.92Y-123.4
X171.92Y-125.94
X171.92Y-128.48
X171.92Y-131.02
X171.92Y-133.56
X179.54Y-115.78
X179.54Y-118.32
X179.54Y-120.86
X179.54Y-123.4
X179.54Y-125.94
X179.54Y-128.48
X179.54Y-131.02
X179.54Y-133.56
X201.92Y-115.56
X201.92Y-118.1
X201.92Y-120.64
X201.92Y-123.18
X201.92Y-125.72
X201.92Y-128.26
X201.92Y-130.8
X201.92Y-133.34
X209.54Y-115.56
X209.54Y-118.1
X209.54Y-120.64
X209.54Y-123.18
X209.54Y-125.72
X209.54Y-128.26
X209.54Y-130.8
X209.54Y-133.34
X222.13Y-115.62
X222.13Y-118.16
X222.13Y-120.7
X222.13Y-123.24
X222.13Y-125.78
X222.13Y-128.32
X222.13Y-130.86
X222.13Y-133.4
X229.75Y-115.62
X229.75Y-118.16
X229.75Y-120.7
X229.75Y-123.24
X229.75Y-125.78
X229.75Y-128.32
X229.75Y-130.86
X229.75Y-133.4
X253.05Y-115.56
X253.05Y-118.1
X253.05Y-120.64
X253.05Y-123.18
X253.05Y-125.72
X253.05Y-128.26
X253.05Y-130.8
X253.05Y-133.34
X260.67Y-115.56
X260.67Y-118.1
X260.67Y-120.64
X260.67Y-123.18
X260.67Y-125.72
X260.67Y-128.26
X260.67Y-130.8
X260.67Y-133.34
T8
X93.471Y-123.419
X97.471Y-123.419
T9
X90.446Y-149.149
X95.45Y-149.149
X96.326Y-111.919
X101.33Y-111.919
X281.0Y-116.5
X281.0Y-119.04
X281.0Y-121.58
X281.0Y-124.12
X281.0Y-126.66
X281.0Y-129.2
X281.0Y-131.74
X281.0Y-134.28
X281.0Y-136.82
X281.0Y-139.36
X281.0Y-141.9
X281.0Y-144.44
X281.0Y-146.98
X281.0Y-149.52
X281.0Y-152.06
X281.0Y-154.6
X303.86Y-116.5
X303.86Y-119.04
X303.86Y-121.58
X303.86Y-124.12
X303.86Y-126.66
X303.86Y-129.2
X303.86Y-131.74
X303.86Y-134.28
X303.86Y-136.82
X303.86Y-139.36
X303.86Y-141.9
X303.86Y-144.44
X303.86Y-146.98
X303.86Y-149.52
X303.86Y-152.06
X303.86Y-154.6
T10
X125.344Y-149.609
X125.471Y-145.109
X125.471Y-154.109
X127.154Y-141.791
X127.154Y-157.426
X131.154Y-140.791
X131.154Y-158.426
X135.154Y-141.791
X135.154Y-157.426
X136.519Y-145.109
X136.519Y-154.109
X136.646Y-149.609
X145.344Y-149.609
X145.471Y-145.109
X145.471Y-154.109
X147.154Y-141.791
X147.154Y-157.426
X151.154Y-140.791
X151.154Y-158.426
X155.154Y-141.791
X155.154Y-157.426
X156.519Y-145.109
X156.519Y-154.109
X156.646Y-149.609
X166.65Y-75.4
X166.65Y-89.9
X169.15Y-89.9
X171.65Y-75.4
X171.65Y-89.9
X174.344Y-149.609
X174.471Y-145.109
X174.471Y-154.109
X176.154Y-141.791
X176.154Y-157.426
X180.154Y-140.791
X180.154Y-158.426
X184.154Y-141.791
X184.154Y-157.426
X185.519Y-145.109
X185.519Y-154.109
X185.646Y-149.609
X187.9Y-75.4
X187.9Y-89.9
X190.4Y-89.9
X192.9Y-75.4
X192.9Y-89.9
X194.662Y-149.609
X194.789Y-145.109
X194.789Y-154.109
X196.471Y-141.791
X196.471Y-157.426
X200.471Y-140.791
X200.471Y-158.426
X204.471Y-141.791
X204.471Y-157.426
X205.836Y-145.109
X205.836Y-154.109
X205.963Y-149.609
X209.15Y-75.4
X209.15Y-89.9
X211.65Y-89.9
X214.15Y-75.4
X214.15Y-89.9
X224.873Y-149.609
X225.0Y-145.109
X225.0Y-154.109
X226.682Y-141.791
X226.682Y-157.426
X230.682Y-140.791
X230.682Y-158.426
X234.682Y-141.791
X234.682Y-157.426
X236.047Y-145.109
X236.047Y-154.109
X236.174Y-149.609
X245.549Y-149.609
X245.676Y-145.109
X245.676Y-154.109
X247.359Y-141.791
X247.359Y-157.426
X251.359Y-140.791
X251.359Y-158.426
X255.359Y-141.791
X255.359Y-157.426
X256.724Y-145.109
X256.724Y-154.109
X256.851Y-149.609
T11
X71.311Y-123.419
X84.011Y-123.419
T12
X71.281Y-160.649
X71.281Y-163.189
X71.281Y-165.729
T13
X77.891Y-153.609
X80.431Y-153.609
X82.971Y-153.609
T14
X185.921Y-101.109
X190.621Y-101.109
X195.321Y-101.109
T16
X63.18Y-83.984
T17
X67.98Y-80.834
X67.98Y-87.134
T15
G00X163.45Y-82.0
M15
G01X163.45Y-82.8
M16
G05
G00X174.85Y-82.0
M15
G01X174.85Y-82.8
M16
G05
G00X184.7Y-82.0
M15
G01X184.7Y-82.8
M16
G05
G00X196.1Y-82.0
M15
G01X196.1Y-82.8
M16
G05
G00X205.95Y-82.0
M15
G01X205.95Y-82.8
M16
G05
G00X217.35Y-82.0
M15
G01X217.35Y-82.8
M16
G05
M30
