%TF.GenerationSoftware,KiCad,Pcbnew,10.0.1*%
%TF.CreationDate,2026-08-20T23:36:15-04:00*%
%TF.ProjectId,Nixie_Tube_PCB,4e697869-655f-4547-9562-655f5043422e,vJUNE 2026*%
%TF.SameCoordinates,Original*%
%TF.FileFunction,Legend,Top*%
%TF.FilePolarity,Positive*%
%FSLAX46Y46*%
G04 Gerber Fmt 4.6, Leading zero omitted, Abs format (unit mm)*
G04 Created by KiCad (PCBNEW 10.0.1) date 2026-08-20 23:36:15*
%MOMM*%
%LPD*%
G01*
G04 APERTURE LIST*
%ADD10C,0.100000*%
%ADD11C,3.050000*%
%ADD12C,0.200000*%
%ADD13C,0.150000*%
%ADD14C,0.101600*%
%ADD15C,0.254000*%
%ADD16C,0.300000*%
%ADD17C,0.120000*%
%ADD18C,0.152400*%
%ADD19C,0.127000*%
%ADD20C,0.000000*%
%ADD21C,0.508000*%
G04 APERTURE END LIST*
D10*
X128800000Y-173250000D02*
X128800000Y-175750000D01*
X136819202Y-176250000D02*
G75*
G02*
X123780798Y-176250000I-6519202J0D01*
G01*
X123780798Y-176250000D02*
G75*
G02*
X136819202Y-176250000I6519202J0D01*
G01*
X131800000Y-173000000D02*
X131800000Y-175500000D01*
X132300000Y-178250000D02*
G75*
G02*
X128300000Y-178250000I-2000000J0D01*
G01*
D11*
X167496150Y-144600000D02*
G75*
G02*
X164446150Y-144600000I-1525000J0D01*
G01*
X164446150Y-144600000D02*
G75*
G02*
X167496150Y-144600000I1525000J0D01*
G01*
X167496150Y-155100000D02*
G75*
G02*
X164446150Y-155100000I-1525000J0D01*
G01*
X164446150Y-155100000D02*
G75*
G02*
X167496150Y-155100000I1525000J0D01*
G01*
X217925000Y-144600000D02*
G75*
G02*
X214875000Y-144600000I-1525000J0D01*
G01*
X214875000Y-144600000D02*
G75*
G02*
X217925000Y-144600000I1525000J0D01*
G01*
X217925000Y-155100000D02*
G75*
G02*
X214875000Y-155100000I-1525000J0D01*
G01*
X214875000Y-155100000D02*
G75*
G02*
X217925000Y-155100000I1525000J0D01*
G01*
D10*
X248780798Y-172600000D02*
X248780798Y-175100000D01*
X256800000Y-175600000D02*
G75*
G02*
X243761596Y-175600000I-6519202J0D01*
G01*
X243761596Y-175600000D02*
G75*
G02*
X256800000Y-175600000I6519202J0D01*
G01*
X251780798Y-172350000D02*
X251780798Y-174850000D01*
X252280798Y-177600000D02*
G75*
G02*
X248280798Y-177600000I-2000000J0D01*
G01*
X67637217Y-139748609D02*
X67780074Y-139796228D01*
X67780074Y-139796228D02*
X67827693Y-139843847D01*
X67827693Y-139843847D02*
X67875312Y-139939085D01*
X67875312Y-139939085D02*
X67875312Y-140081942D01*
X67875312Y-140081942D02*
X67827693Y-140177180D01*
X67827693Y-140177180D02*
X67780074Y-140224800D01*
X67780074Y-140224800D02*
X67684836Y-140272419D01*
X67684836Y-140272419D02*
X67303884Y-140272419D01*
X67303884Y-140272419D02*
X67303884Y-139272419D01*
X67303884Y-139272419D02*
X67637217Y-139272419D01*
X67637217Y-139272419D02*
X67732455Y-139320038D01*
X67732455Y-139320038D02*
X67780074Y-139367657D01*
X67780074Y-139367657D02*
X67827693Y-139462895D01*
X67827693Y-139462895D02*
X67827693Y-139558133D01*
X67827693Y-139558133D02*
X67780074Y-139653371D01*
X67780074Y-139653371D02*
X67732455Y-139700990D01*
X67732455Y-139700990D02*
X67637217Y-139748609D01*
X67637217Y-139748609D02*
X67303884Y-139748609D01*
X68446741Y-140272419D02*
X68351503Y-140224800D01*
X68351503Y-140224800D02*
X68303884Y-140177180D01*
X68303884Y-140177180D02*
X68256265Y-140081942D01*
X68256265Y-140081942D02*
X68256265Y-139796228D01*
X68256265Y-139796228D02*
X68303884Y-139700990D01*
X68303884Y-139700990D02*
X68351503Y-139653371D01*
X68351503Y-139653371D02*
X68446741Y-139605752D01*
X68446741Y-139605752D02*
X68589598Y-139605752D01*
X68589598Y-139605752D02*
X68684836Y-139653371D01*
X68684836Y-139653371D02*
X68732455Y-139700990D01*
X68732455Y-139700990D02*
X68780074Y-139796228D01*
X68780074Y-139796228D02*
X68780074Y-140081942D01*
X68780074Y-140081942D02*
X68732455Y-140177180D01*
X68732455Y-140177180D02*
X68684836Y-140224800D01*
X68684836Y-140224800D02*
X68589598Y-140272419D01*
X68589598Y-140272419D02*
X68446741Y-140272419D01*
X69351503Y-140272419D02*
X69256265Y-140224800D01*
X69256265Y-140224800D02*
X69208646Y-140177180D01*
X69208646Y-140177180D02*
X69161027Y-140081942D01*
X69161027Y-140081942D02*
X69161027Y-139796228D01*
X69161027Y-139796228D02*
X69208646Y-139700990D01*
X69208646Y-139700990D02*
X69256265Y-139653371D01*
X69256265Y-139653371D02*
X69351503Y-139605752D01*
X69351503Y-139605752D02*
X69494360Y-139605752D01*
X69494360Y-139605752D02*
X69589598Y-139653371D01*
X69589598Y-139653371D02*
X69637217Y-139700990D01*
X69637217Y-139700990D02*
X69684836Y-139796228D01*
X69684836Y-139796228D02*
X69684836Y-140081942D01*
X69684836Y-140081942D02*
X69637217Y-140177180D01*
X69637217Y-140177180D02*
X69589598Y-140224800D01*
X69589598Y-140224800D02*
X69494360Y-140272419D01*
X69494360Y-140272419D02*
X69351503Y-140272419D01*
X70065789Y-140224800D02*
X70161027Y-140272419D01*
X70161027Y-140272419D02*
X70351503Y-140272419D01*
X70351503Y-140272419D02*
X70446741Y-140224800D01*
X70446741Y-140224800D02*
X70494360Y-140129561D01*
X70494360Y-140129561D02*
X70494360Y-140081942D01*
X70494360Y-140081942D02*
X70446741Y-139986704D01*
X70446741Y-139986704D02*
X70351503Y-139939085D01*
X70351503Y-139939085D02*
X70208646Y-139939085D01*
X70208646Y-139939085D02*
X70113408Y-139891466D01*
X70113408Y-139891466D02*
X70065789Y-139796228D01*
X70065789Y-139796228D02*
X70065789Y-139748609D01*
X70065789Y-139748609D02*
X70113408Y-139653371D01*
X70113408Y-139653371D02*
X70208646Y-139605752D01*
X70208646Y-139605752D02*
X70351503Y-139605752D01*
X70351503Y-139605752D02*
X70446741Y-139653371D01*
X70780075Y-139605752D02*
X71161027Y-139605752D01*
X70922932Y-139272419D02*
X70922932Y-140129561D01*
X70922932Y-140129561D02*
X70970551Y-140224800D01*
X70970551Y-140224800D02*
X71065789Y-140272419D01*
X71065789Y-140272419D02*
X71161027Y-140272419D01*
X72827694Y-140177180D02*
X72780075Y-140224800D01*
X72780075Y-140224800D02*
X72637218Y-140272419D01*
X72637218Y-140272419D02*
X72541980Y-140272419D01*
X72541980Y-140272419D02*
X72399123Y-140224800D01*
X72399123Y-140224800D02*
X72303885Y-140129561D01*
X72303885Y-140129561D02*
X72256266Y-140034323D01*
X72256266Y-140034323D02*
X72208647Y-139843847D01*
X72208647Y-139843847D02*
X72208647Y-139700990D01*
X72208647Y-139700990D02*
X72256266Y-139510514D01*
X72256266Y-139510514D02*
X72303885Y-139415276D01*
X72303885Y-139415276D02*
X72399123Y-139320038D01*
X72399123Y-139320038D02*
X72541980Y-139272419D01*
X72541980Y-139272419D02*
X72637218Y-139272419D01*
X72637218Y-139272419D02*
X72780075Y-139320038D01*
X72780075Y-139320038D02*
X72827694Y-139367657D01*
X73399123Y-140272419D02*
X73303885Y-140224800D01*
X73303885Y-140224800D02*
X73256266Y-140177180D01*
X73256266Y-140177180D02*
X73208647Y-140081942D01*
X73208647Y-140081942D02*
X73208647Y-139796228D01*
X73208647Y-139796228D02*
X73256266Y-139700990D01*
X73256266Y-139700990D02*
X73303885Y-139653371D01*
X73303885Y-139653371D02*
X73399123Y-139605752D01*
X73399123Y-139605752D02*
X73541980Y-139605752D01*
X73541980Y-139605752D02*
X73637218Y-139653371D01*
X73637218Y-139653371D02*
X73684837Y-139700990D01*
X73684837Y-139700990D02*
X73732456Y-139796228D01*
X73732456Y-139796228D02*
X73732456Y-140081942D01*
X73732456Y-140081942D02*
X73684837Y-140177180D01*
X73684837Y-140177180D02*
X73637218Y-140224800D01*
X73637218Y-140224800D02*
X73541980Y-140272419D01*
X73541980Y-140272419D02*
X73399123Y-140272419D01*
X74161028Y-139605752D02*
X74161028Y-140272419D01*
X74161028Y-139700990D02*
X74208647Y-139653371D01*
X74208647Y-139653371D02*
X74303885Y-139605752D01*
X74303885Y-139605752D02*
X74446742Y-139605752D01*
X74446742Y-139605752D02*
X74541980Y-139653371D01*
X74541980Y-139653371D02*
X74589599Y-139748609D01*
X74589599Y-139748609D02*
X74589599Y-140272419D01*
X74970552Y-139605752D02*
X75208647Y-140272419D01*
X75208647Y-140272419D02*
X75446742Y-139605752D01*
X76208647Y-140224800D02*
X76113409Y-140272419D01*
X76113409Y-140272419D02*
X75922933Y-140272419D01*
X75922933Y-140272419D02*
X75827695Y-140224800D01*
X75827695Y-140224800D02*
X75780076Y-140129561D01*
X75780076Y-140129561D02*
X75780076Y-139748609D01*
X75780076Y-139748609D02*
X75827695Y-139653371D01*
X75827695Y-139653371D02*
X75922933Y-139605752D01*
X75922933Y-139605752D02*
X76113409Y-139605752D01*
X76113409Y-139605752D02*
X76208647Y-139653371D01*
X76208647Y-139653371D02*
X76256266Y-139748609D01*
X76256266Y-139748609D02*
X76256266Y-139843847D01*
X76256266Y-139843847D02*
X75780076Y-139939085D01*
X76684838Y-140272419D02*
X76684838Y-139605752D01*
X76684838Y-139796228D02*
X76732457Y-139700990D01*
X76732457Y-139700990D02*
X76780076Y-139653371D01*
X76780076Y-139653371D02*
X76875314Y-139605752D01*
X76875314Y-139605752D02*
X76970552Y-139605752D01*
X77161029Y-139605752D02*
X77541981Y-139605752D01*
X77303886Y-139272419D02*
X77303886Y-140129561D01*
X77303886Y-140129561D02*
X77351505Y-140224800D01*
X77351505Y-140224800D02*
X77446743Y-140272419D01*
X77446743Y-140272419D02*
X77541981Y-140272419D01*
X78256267Y-140224800D02*
X78161029Y-140272419D01*
X78161029Y-140272419D02*
X77970553Y-140272419D01*
X77970553Y-140272419D02*
X77875315Y-140224800D01*
X77875315Y-140224800D02*
X77827696Y-140129561D01*
X77827696Y-140129561D02*
X77827696Y-139748609D01*
X77827696Y-139748609D02*
X77875315Y-139653371D01*
X77875315Y-139653371D02*
X77970553Y-139605752D01*
X77970553Y-139605752D02*
X78161029Y-139605752D01*
X78161029Y-139605752D02*
X78256267Y-139653371D01*
X78256267Y-139653371D02*
X78303886Y-139748609D01*
X78303886Y-139748609D02*
X78303886Y-139843847D01*
X78303886Y-139843847D02*
X77827696Y-139939085D01*
X78732458Y-140272419D02*
X78732458Y-139605752D01*
X78732458Y-139796228D02*
X78780077Y-139700990D01*
X78780077Y-139700990D02*
X78827696Y-139653371D01*
X78827696Y-139653371D02*
X78922934Y-139605752D01*
X78922934Y-139605752D02*
X79018172Y-139605752D01*
X80113411Y-140272419D02*
X80113411Y-139272419D01*
X80113411Y-139272419D02*
X80446744Y-139986704D01*
X80446744Y-139986704D02*
X80780077Y-139272419D01*
X80780077Y-139272419D02*
X80780077Y-140272419D01*
X81399125Y-140272419D02*
X81303887Y-140224800D01*
X81303887Y-140224800D02*
X81256268Y-140177180D01*
X81256268Y-140177180D02*
X81208649Y-140081942D01*
X81208649Y-140081942D02*
X81208649Y-139796228D01*
X81208649Y-139796228D02*
X81256268Y-139700990D01*
X81256268Y-139700990D02*
X81303887Y-139653371D01*
X81303887Y-139653371D02*
X81399125Y-139605752D01*
X81399125Y-139605752D02*
X81541982Y-139605752D01*
X81541982Y-139605752D02*
X81637220Y-139653371D01*
X81637220Y-139653371D02*
X81684839Y-139700990D01*
X81684839Y-139700990D02*
X81732458Y-139796228D01*
X81732458Y-139796228D02*
X81732458Y-140081942D01*
X81732458Y-140081942D02*
X81684839Y-140177180D01*
X81684839Y-140177180D02*
X81637220Y-140224800D01*
X81637220Y-140224800D02*
X81541982Y-140272419D01*
X81541982Y-140272419D02*
X81399125Y-140272419D01*
X82589601Y-140272419D02*
X82589601Y-139272419D01*
X82589601Y-140224800D02*
X82494363Y-140272419D01*
X82494363Y-140272419D02*
X82303887Y-140272419D01*
X82303887Y-140272419D02*
X82208649Y-140224800D01*
X82208649Y-140224800D02*
X82161030Y-140177180D01*
X82161030Y-140177180D02*
X82113411Y-140081942D01*
X82113411Y-140081942D02*
X82113411Y-139796228D01*
X82113411Y-139796228D02*
X82161030Y-139700990D01*
X82161030Y-139700990D02*
X82208649Y-139653371D01*
X82208649Y-139653371D02*
X82303887Y-139605752D01*
X82303887Y-139605752D02*
X82494363Y-139605752D01*
X82494363Y-139605752D02*
X82589601Y-139653371D01*
X83494363Y-139605752D02*
X83494363Y-140272419D01*
X83065792Y-139605752D02*
X83065792Y-140129561D01*
X83065792Y-140129561D02*
X83113411Y-140224800D01*
X83113411Y-140224800D02*
X83208649Y-140272419D01*
X83208649Y-140272419D02*
X83351506Y-140272419D01*
X83351506Y-140272419D02*
X83446744Y-140224800D01*
X83446744Y-140224800D02*
X83494363Y-140177180D01*
X84113411Y-140272419D02*
X84018173Y-140224800D01*
X84018173Y-140224800D02*
X83970554Y-140129561D01*
X83970554Y-140129561D02*
X83970554Y-139272419D01*
X84875316Y-140224800D02*
X84780078Y-140272419D01*
X84780078Y-140272419D02*
X84589602Y-140272419D01*
X84589602Y-140272419D02*
X84494364Y-140224800D01*
X84494364Y-140224800D02*
X84446745Y-140129561D01*
X84446745Y-140129561D02*
X84446745Y-139748609D01*
X84446745Y-139748609D02*
X84494364Y-139653371D01*
X84494364Y-139653371D02*
X84589602Y-139605752D01*
X84589602Y-139605752D02*
X84780078Y-139605752D01*
X84780078Y-139605752D02*
X84875316Y-139653371D01*
X84875316Y-139653371D02*
X84922935Y-139748609D01*
X84922935Y-139748609D02*
X84922935Y-139843847D01*
X84922935Y-139843847D02*
X84446745Y-139939085D01*
X86399126Y-140653371D02*
X86351507Y-140605752D01*
X86351507Y-140605752D02*
X86256269Y-140462895D01*
X86256269Y-140462895D02*
X86208650Y-140367657D01*
X86208650Y-140367657D02*
X86161031Y-140224800D01*
X86161031Y-140224800D02*
X86113412Y-139986704D01*
X86113412Y-139986704D02*
X86113412Y-139796228D01*
X86113412Y-139796228D02*
X86161031Y-139558133D01*
X86161031Y-139558133D02*
X86208650Y-139415276D01*
X86208650Y-139415276D02*
X86256269Y-139320038D01*
X86256269Y-139320038D02*
X86351507Y-139177180D01*
X86351507Y-139177180D02*
X86399126Y-139129561D01*
X87303888Y-140272419D02*
X86732460Y-140272419D01*
X87018174Y-140272419D02*
X87018174Y-139272419D01*
X87018174Y-139272419D02*
X86922936Y-139415276D01*
X86922936Y-139415276D02*
X86827698Y-139510514D01*
X86827698Y-139510514D02*
X86732460Y-139558133D01*
X87684841Y-139367657D02*
X87732460Y-139320038D01*
X87732460Y-139320038D02*
X87827698Y-139272419D01*
X87827698Y-139272419D02*
X88065793Y-139272419D01*
X88065793Y-139272419D02*
X88161031Y-139320038D01*
X88161031Y-139320038D02*
X88208650Y-139367657D01*
X88208650Y-139367657D02*
X88256269Y-139462895D01*
X88256269Y-139462895D02*
X88256269Y-139558133D01*
X88256269Y-139558133D02*
X88208650Y-139700990D01*
X88208650Y-139700990D02*
X87637222Y-140272419D01*
X87637222Y-140272419D02*
X88256269Y-140272419D01*
X88541984Y-139272419D02*
X88875317Y-140272419D01*
X88875317Y-140272419D02*
X89208650Y-139272419D01*
X89541984Y-139891466D02*
X90303889Y-139891466D01*
X90732460Y-139367657D02*
X90780079Y-139320038D01*
X90780079Y-139320038D02*
X90875317Y-139272419D01*
X90875317Y-139272419D02*
X91113412Y-139272419D01*
X91113412Y-139272419D02*
X91208650Y-139320038D01*
X91208650Y-139320038D02*
X91256269Y-139367657D01*
X91256269Y-139367657D02*
X91303888Y-139462895D01*
X91303888Y-139462895D02*
X91303888Y-139558133D01*
X91303888Y-139558133D02*
X91256269Y-139700990D01*
X91256269Y-139700990D02*
X90684841Y-140272419D01*
X90684841Y-140272419D02*
X91303888Y-140272419D01*
X91922936Y-139272419D02*
X92018174Y-139272419D01*
X92018174Y-139272419D02*
X92113412Y-139320038D01*
X92113412Y-139320038D02*
X92161031Y-139367657D01*
X92161031Y-139367657D02*
X92208650Y-139462895D01*
X92208650Y-139462895D02*
X92256269Y-139653371D01*
X92256269Y-139653371D02*
X92256269Y-139891466D01*
X92256269Y-139891466D02*
X92208650Y-140081942D01*
X92208650Y-140081942D02*
X92161031Y-140177180D01*
X92161031Y-140177180D02*
X92113412Y-140224800D01*
X92113412Y-140224800D02*
X92018174Y-140272419D01*
X92018174Y-140272419D02*
X91922936Y-140272419D01*
X91922936Y-140272419D02*
X91827698Y-140224800D01*
X91827698Y-140224800D02*
X91780079Y-140177180D01*
X91780079Y-140177180D02*
X91732460Y-140081942D01*
X91732460Y-140081942D02*
X91684841Y-139891466D01*
X91684841Y-139891466D02*
X91684841Y-139653371D01*
X91684841Y-139653371D02*
X91732460Y-139462895D01*
X91732460Y-139462895D02*
X91780079Y-139367657D01*
X91780079Y-139367657D02*
X91827698Y-139320038D01*
X91827698Y-139320038D02*
X91922936Y-139272419D01*
X92541984Y-139272419D02*
X92875317Y-140272419D01*
X92875317Y-140272419D02*
X93208650Y-139272419D01*
X94303889Y-139891466D02*
X95065794Y-139891466D01*
X95541984Y-139605752D02*
X96303889Y-139891466D01*
X96303889Y-139891466D02*
X95541984Y-140177180D01*
X98065793Y-140272419D02*
X97494365Y-140272419D01*
X97780079Y-140272419D02*
X97780079Y-139272419D01*
X97780079Y-139272419D02*
X97684841Y-139415276D01*
X97684841Y-139415276D02*
X97589603Y-139510514D01*
X97589603Y-139510514D02*
X97494365Y-139558133D01*
X98399127Y-139272419D02*
X99065793Y-139272419D01*
X99065793Y-139272419D02*
X98637222Y-140272419D01*
X99637222Y-139272419D02*
X99732460Y-139272419D01*
X99732460Y-139272419D02*
X99827698Y-139320038D01*
X99827698Y-139320038D02*
X99875317Y-139367657D01*
X99875317Y-139367657D02*
X99922936Y-139462895D01*
X99922936Y-139462895D02*
X99970555Y-139653371D01*
X99970555Y-139653371D02*
X99970555Y-139891466D01*
X99970555Y-139891466D02*
X99922936Y-140081942D01*
X99922936Y-140081942D02*
X99875317Y-140177180D01*
X99875317Y-140177180D02*
X99827698Y-140224800D01*
X99827698Y-140224800D02*
X99732460Y-140272419D01*
X99732460Y-140272419D02*
X99637222Y-140272419D01*
X99637222Y-140272419D02*
X99541984Y-140224800D01*
X99541984Y-140224800D02*
X99494365Y-140177180D01*
X99494365Y-140177180D02*
X99446746Y-140081942D01*
X99446746Y-140081942D02*
X99399127Y-139891466D01*
X99399127Y-139891466D02*
X99399127Y-139653371D01*
X99399127Y-139653371D02*
X99446746Y-139462895D01*
X99446746Y-139462895D02*
X99494365Y-139367657D01*
X99494365Y-139367657D02*
X99541984Y-139320038D01*
X99541984Y-139320038D02*
X99637222Y-139272419D01*
X100256270Y-139272419D02*
X100589603Y-140272419D01*
X100589603Y-140272419D02*
X100922936Y-139272419D01*
X101161032Y-140653371D02*
X101208651Y-140605752D01*
X101208651Y-140605752D02*
X101303889Y-140462895D01*
X101303889Y-140462895D02*
X101351508Y-140367657D01*
X101351508Y-140367657D02*
X101399127Y-140224800D01*
X101399127Y-140224800D02*
X101446746Y-139986704D01*
X101446746Y-139986704D02*
X101446746Y-139796228D01*
X101446746Y-139796228D02*
X101399127Y-139558133D01*
X101399127Y-139558133D02*
X101351508Y-139415276D01*
X101351508Y-139415276D02*
X101303889Y-139320038D01*
X101303889Y-139320038D02*
X101208651Y-139177180D01*
X101208651Y-139177180D02*
X101161032Y-139129561D01*
X71637217Y-99148609D02*
X71780074Y-99196228D01*
X71780074Y-99196228D02*
X71827693Y-99243847D01*
X71827693Y-99243847D02*
X71875312Y-99339085D01*
X71875312Y-99339085D02*
X71875312Y-99481942D01*
X71875312Y-99481942D02*
X71827693Y-99577180D01*
X71827693Y-99577180D02*
X71780074Y-99624800D01*
X71780074Y-99624800D02*
X71684836Y-99672419D01*
X71684836Y-99672419D02*
X71303884Y-99672419D01*
X71303884Y-99672419D02*
X71303884Y-98672419D01*
X71303884Y-98672419D02*
X71637217Y-98672419D01*
X71637217Y-98672419D02*
X71732455Y-98720038D01*
X71732455Y-98720038D02*
X71780074Y-98767657D01*
X71780074Y-98767657D02*
X71827693Y-98862895D01*
X71827693Y-98862895D02*
X71827693Y-98958133D01*
X71827693Y-98958133D02*
X71780074Y-99053371D01*
X71780074Y-99053371D02*
X71732455Y-99100990D01*
X71732455Y-99100990D02*
X71637217Y-99148609D01*
X71637217Y-99148609D02*
X71303884Y-99148609D01*
X72732455Y-99005752D02*
X72732455Y-99672419D01*
X72303884Y-99005752D02*
X72303884Y-99529561D01*
X72303884Y-99529561D02*
X72351503Y-99624800D01*
X72351503Y-99624800D02*
X72446741Y-99672419D01*
X72446741Y-99672419D02*
X72589598Y-99672419D01*
X72589598Y-99672419D02*
X72684836Y-99624800D01*
X72684836Y-99624800D02*
X72732455Y-99577180D01*
X73637217Y-99624800D02*
X73541979Y-99672419D01*
X73541979Y-99672419D02*
X73351503Y-99672419D01*
X73351503Y-99672419D02*
X73256265Y-99624800D01*
X73256265Y-99624800D02*
X73208646Y-99577180D01*
X73208646Y-99577180D02*
X73161027Y-99481942D01*
X73161027Y-99481942D02*
X73161027Y-99196228D01*
X73161027Y-99196228D02*
X73208646Y-99100990D01*
X73208646Y-99100990D02*
X73256265Y-99053371D01*
X73256265Y-99053371D02*
X73351503Y-99005752D01*
X73351503Y-99005752D02*
X73541979Y-99005752D01*
X73541979Y-99005752D02*
X73637217Y-99053371D01*
X74065789Y-99672419D02*
X74065789Y-98672419D01*
X74161027Y-99291466D02*
X74446741Y-99672419D01*
X74446741Y-99005752D02*
X74065789Y-99386704D01*
X76208646Y-99577180D02*
X76161027Y-99624800D01*
X76161027Y-99624800D02*
X76018170Y-99672419D01*
X76018170Y-99672419D02*
X75922932Y-99672419D01*
X75922932Y-99672419D02*
X75780075Y-99624800D01*
X75780075Y-99624800D02*
X75684837Y-99529561D01*
X75684837Y-99529561D02*
X75637218Y-99434323D01*
X75637218Y-99434323D02*
X75589599Y-99243847D01*
X75589599Y-99243847D02*
X75589599Y-99100990D01*
X75589599Y-99100990D02*
X75637218Y-98910514D01*
X75637218Y-98910514D02*
X75684837Y-98815276D01*
X75684837Y-98815276D02*
X75780075Y-98720038D01*
X75780075Y-98720038D02*
X75922932Y-98672419D01*
X75922932Y-98672419D02*
X76018170Y-98672419D01*
X76018170Y-98672419D02*
X76161027Y-98720038D01*
X76161027Y-98720038D02*
X76208646Y-98767657D01*
X76780075Y-99672419D02*
X76684837Y-99624800D01*
X76684837Y-99624800D02*
X76637218Y-99577180D01*
X76637218Y-99577180D02*
X76589599Y-99481942D01*
X76589599Y-99481942D02*
X76589599Y-99196228D01*
X76589599Y-99196228D02*
X76637218Y-99100990D01*
X76637218Y-99100990D02*
X76684837Y-99053371D01*
X76684837Y-99053371D02*
X76780075Y-99005752D01*
X76780075Y-99005752D02*
X76922932Y-99005752D01*
X76922932Y-99005752D02*
X77018170Y-99053371D01*
X77018170Y-99053371D02*
X77065789Y-99100990D01*
X77065789Y-99100990D02*
X77113408Y-99196228D01*
X77113408Y-99196228D02*
X77113408Y-99481942D01*
X77113408Y-99481942D02*
X77065789Y-99577180D01*
X77065789Y-99577180D02*
X77018170Y-99624800D01*
X77018170Y-99624800D02*
X76922932Y-99672419D01*
X76922932Y-99672419D02*
X76780075Y-99672419D01*
X77541980Y-99005752D02*
X77541980Y-99672419D01*
X77541980Y-99100990D02*
X77589599Y-99053371D01*
X77589599Y-99053371D02*
X77684837Y-99005752D01*
X77684837Y-99005752D02*
X77827694Y-99005752D01*
X77827694Y-99005752D02*
X77922932Y-99053371D01*
X77922932Y-99053371D02*
X77970551Y-99148609D01*
X77970551Y-99148609D02*
X77970551Y-99672419D01*
X78351504Y-99005752D02*
X78589599Y-99672419D01*
X78589599Y-99672419D02*
X78827694Y-99005752D01*
X79589599Y-99624800D02*
X79494361Y-99672419D01*
X79494361Y-99672419D02*
X79303885Y-99672419D01*
X79303885Y-99672419D02*
X79208647Y-99624800D01*
X79208647Y-99624800D02*
X79161028Y-99529561D01*
X79161028Y-99529561D02*
X79161028Y-99148609D01*
X79161028Y-99148609D02*
X79208647Y-99053371D01*
X79208647Y-99053371D02*
X79303885Y-99005752D01*
X79303885Y-99005752D02*
X79494361Y-99005752D01*
X79494361Y-99005752D02*
X79589599Y-99053371D01*
X79589599Y-99053371D02*
X79637218Y-99148609D01*
X79637218Y-99148609D02*
X79637218Y-99243847D01*
X79637218Y-99243847D02*
X79161028Y-99339085D01*
X80065790Y-99672419D02*
X80065790Y-99005752D01*
X80065790Y-99196228D02*
X80113409Y-99100990D01*
X80113409Y-99100990D02*
X80161028Y-99053371D01*
X80161028Y-99053371D02*
X80256266Y-99005752D01*
X80256266Y-99005752D02*
X80351504Y-99005752D01*
X80541981Y-99005752D02*
X80922933Y-99005752D01*
X80684838Y-98672419D02*
X80684838Y-99529561D01*
X80684838Y-99529561D02*
X80732457Y-99624800D01*
X80732457Y-99624800D02*
X80827695Y-99672419D01*
X80827695Y-99672419D02*
X80922933Y-99672419D01*
X81637219Y-99624800D02*
X81541981Y-99672419D01*
X81541981Y-99672419D02*
X81351505Y-99672419D01*
X81351505Y-99672419D02*
X81256267Y-99624800D01*
X81256267Y-99624800D02*
X81208648Y-99529561D01*
X81208648Y-99529561D02*
X81208648Y-99148609D01*
X81208648Y-99148609D02*
X81256267Y-99053371D01*
X81256267Y-99053371D02*
X81351505Y-99005752D01*
X81351505Y-99005752D02*
X81541981Y-99005752D01*
X81541981Y-99005752D02*
X81637219Y-99053371D01*
X81637219Y-99053371D02*
X81684838Y-99148609D01*
X81684838Y-99148609D02*
X81684838Y-99243847D01*
X81684838Y-99243847D02*
X81208648Y-99339085D01*
X82113410Y-99672419D02*
X82113410Y-99005752D01*
X82113410Y-99196228D02*
X82161029Y-99100990D01*
X82161029Y-99100990D02*
X82208648Y-99053371D01*
X82208648Y-99053371D02*
X82303886Y-99005752D01*
X82303886Y-99005752D02*
X82399124Y-99005752D01*
X83494363Y-99672419D02*
X83494363Y-98672419D01*
X83494363Y-98672419D02*
X83827696Y-99386704D01*
X83827696Y-99386704D02*
X84161029Y-98672419D01*
X84161029Y-98672419D02*
X84161029Y-99672419D01*
X84780077Y-99672419D02*
X84684839Y-99624800D01*
X84684839Y-99624800D02*
X84637220Y-99577180D01*
X84637220Y-99577180D02*
X84589601Y-99481942D01*
X84589601Y-99481942D02*
X84589601Y-99196228D01*
X84589601Y-99196228D02*
X84637220Y-99100990D01*
X84637220Y-99100990D02*
X84684839Y-99053371D01*
X84684839Y-99053371D02*
X84780077Y-99005752D01*
X84780077Y-99005752D02*
X84922934Y-99005752D01*
X84922934Y-99005752D02*
X85018172Y-99053371D01*
X85018172Y-99053371D02*
X85065791Y-99100990D01*
X85065791Y-99100990D02*
X85113410Y-99196228D01*
X85113410Y-99196228D02*
X85113410Y-99481942D01*
X85113410Y-99481942D02*
X85065791Y-99577180D01*
X85065791Y-99577180D02*
X85018172Y-99624800D01*
X85018172Y-99624800D02*
X84922934Y-99672419D01*
X84922934Y-99672419D02*
X84780077Y-99672419D01*
X85970553Y-99672419D02*
X85970553Y-98672419D01*
X85970553Y-99624800D02*
X85875315Y-99672419D01*
X85875315Y-99672419D02*
X85684839Y-99672419D01*
X85684839Y-99672419D02*
X85589601Y-99624800D01*
X85589601Y-99624800D02*
X85541982Y-99577180D01*
X85541982Y-99577180D02*
X85494363Y-99481942D01*
X85494363Y-99481942D02*
X85494363Y-99196228D01*
X85494363Y-99196228D02*
X85541982Y-99100990D01*
X85541982Y-99100990D02*
X85589601Y-99053371D01*
X85589601Y-99053371D02*
X85684839Y-99005752D01*
X85684839Y-99005752D02*
X85875315Y-99005752D01*
X85875315Y-99005752D02*
X85970553Y-99053371D01*
X86875315Y-99005752D02*
X86875315Y-99672419D01*
X86446744Y-99005752D02*
X86446744Y-99529561D01*
X86446744Y-99529561D02*
X86494363Y-99624800D01*
X86494363Y-99624800D02*
X86589601Y-99672419D01*
X86589601Y-99672419D02*
X86732458Y-99672419D01*
X86732458Y-99672419D02*
X86827696Y-99624800D01*
X86827696Y-99624800D02*
X86875315Y-99577180D01*
X87494363Y-99672419D02*
X87399125Y-99624800D01*
X87399125Y-99624800D02*
X87351506Y-99529561D01*
X87351506Y-99529561D02*
X87351506Y-98672419D01*
X88256268Y-99624800D02*
X88161030Y-99672419D01*
X88161030Y-99672419D02*
X87970554Y-99672419D01*
X87970554Y-99672419D02*
X87875316Y-99624800D01*
X87875316Y-99624800D02*
X87827697Y-99529561D01*
X87827697Y-99529561D02*
X87827697Y-99148609D01*
X87827697Y-99148609D02*
X87875316Y-99053371D01*
X87875316Y-99053371D02*
X87970554Y-99005752D01*
X87970554Y-99005752D02*
X88161030Y-99005752D01*
X88161030Y-99005752D02*
X88256268Y-99053371D01*
X88256268Y-99053371D02*
X88303887Y-99148609D01*
X88303887Y-99148609D02*
X88303887Y-99243847D01*
X88303887Y-99243847D02*
X87827697Y-99339085D01*
X89780078Y-100053371D02*
X89732459Y-100005752D01*
X89732459Y-100005752D02*
X89637221Y-99862895D01*
X89637221Y-99862895D02*
X89589602Y-99767657D01*
X89589602Y-99767657D02*
X89541983Y-99624800D01*
X89541983Y-99624800D02*
X89494364Y-99386704D01*
X89494364Y-99386704D02*
X89494364Y-99196228D01*
X89494364Y-99196228D02*
X89541983Y-98958133D01*
X89541983Y-98958133D02*
X89589602Y-98815276D01*
X89589602Y-98815276D02*
X89637221Y-98720038D01*
X89637221Y-98720038D02*
X89732459Y-98577180D01*
X89732459Y-98577180D02*
X89780078Y-98529561D01*
X90684840Y-99672419D02*
X90113412Y-99672419D01*
X90399126Y-99672419D02*
X90399126Y-98672419D01*
X90399126Y-98672419D02*
X90303888Y-98815276D01*
X90303888Y-98815276D02*
X90208650Y-98910514D01*
X90208650Y-98910514D02*
X90113412Y-98958133D01*
X91065793Y-98767657D02*
X91113412Y-98720038D01*
X91113412Y-98720038D02*
X91208650Y-98672419D01*
X91208650Y-98672419D02*
X91446745Y-98672419D01*
X91446745Y-98672419D02*
X91541983Y-98720038D01*
X91541983Y-98720038D02*
X91589602Y-98767657D01*
X91589602Y-98767657D02*
X91637221Y-98862895D01*
X91637221Y-98862895D02*
X91637221Y-98958133D01*
X91637221Y-98958133D02*
X91589602Y-99100990D01*
X91589602Y-99100990D02*
X91018174Y-99672419D01*
X91018174Y-99672419D02*
X91637221Y-99672419D01*
X91922936Y-98672419D02*
X92256269Y-99672419D01*
X92256269Y-99672419D02*
X92589602Y-98672419D01*
X92922936Y-99291466D02*
X93684841Y-99291466D01*
X94113412Y-98767657D02*
X94161031Y-98720038D01*
X94161031Y-98720038D02*
X94256269Y-98672419D01*
X94256269Y-98672419D02*
X94494364Y-98672419D01*
X94494364Y-98672419D02*
X94589602Y-98720038D01*
X94589602Y-98720038D02*
X94637221Y-98767657D01*
X94637221Y-98767657D02*
X94684840Y-98862895D01*
X94684840Y-98862895D02*
X94684840Y-98958133D01*
X94684840Y-98958133D02*
X94637221Y-99100990D01*
X94637221Y-99100990D02*
X94065793Y-99672419D01*
X94065793Y-99672419D02*
X94684840Y-99672419D01*
X95303888Y-98672419D02*
X95399126Y-98672419D01*
X95399126Y-98672419D02*
X95494364Y-98720038D01*
X95494364Y-98720038D02*
X95541983Y-98767657D01*
X95541983Y-98767657D02*
X95589602Y-98862895D01*
X95589602Y-98862895D02*
X95637221Y-99053371D01*
X95637221Y-99053371D02*
X95637221Y-99291466D01*
X95637221Y-99291466D02*
X95589602Y-99481942D01*
X95589602Y-99481942D02*
X95541983Y-99577180D01*
X95541983Y-99577180D02*
X95494364Y-99624800D01*
X95494364Y-99624800D02*
X95399126Y-99672419D01*
X95399126Y-99672419D02*
X95303888Y-99672419D01*
X95303888Y-99672419D02*
X95208650Y-99624800D01*
X95208650Y-99624800D02*
X95161031Y-99577180D01*
X95161031Y-99577180D02*
X95113412Y-99481942D01*
X95113412Y-99481942D02*
X95065793Y-99291466D01*
X95065793Y-99291466D02*
X95065793Y-99053371D01*
X95065793Y-99053371D02*
X95113412Y-98862895D01*
X95113412Y-98862895D02*
X95161031Y-98767657D01*
X95161031Y-98767657D02*
X95208650Y-98720038D01*
X95208650Y-98720038D02*
X95303888Y-98672419D01*
X95922936Y-98672419D02*
X96256269Y-99672419D01*
X96256269Y-99672419D02*
X96589602Y-98672419D01*
X97684841Y-99291466D02*
X98446746Y-99291466D01*
X98922936Y-99005752D02*
X99684841Y-99291466D01*
X99684841Y-99291466D02*
X98922936Y-99577180D01*
X100827698Y-98672419D02*
X101446745Y-98672419D01*
X101446745Y-98672419D02*
X101113412Y-99053371D01*
X101113412Y-99053371D02*
X101256269Y-99053371D01*
X101256269Y-99053371D02*
X101351507Y-99100990D01*
X101351507Y-99100990D02*
X101399126Y-99148609D01*
X101399126Y-99148609D02*
X101446745Y-99243847D01*
X101446745Y-99243847D02*
X101446745Y-99481942D01*
X101446745Y-99481942D02*
X101399126Y-99577180D01*
X101399126Y-99577180D02*
X101351507Y-99624800D01*
X101351507Y-99624800D02*
X101256269Y-99672419D01*
X101256269Y-99672419D02*
X100970555Y-99672419D01*
X100970555Y-99672419D02*
X100875317Y-99624800D01*
X100875317Y-99624800D02*
X100827698Y-99577180D01*
X101875317Y-99577180D02*
X101922936Y-99624800D01*
X101922936Y-99624800D02*
X101875317Y-99672419D01*
X101875317Y-99672419D02*
X101827698Y-99624800D01*
X101827698Y-99624800D02*
X101875317Y-99577180D01*
X101875317Y-99577180D02*
X101875317Y-99672419D01*
X102256269Y-98672419D02*
X102875316Y-98672419D01*
X102875316Y-98672419D02*
X102541983Y-99053371D01*
X102541983Y-99053371D02*
X102684840Y-99053371D01*
X102684840Y-99053371D02*
X102780078Y-99100990D01*
X102780078Y-99100990D02*
X102827697Y-99148609D01*
X102827697Y-99148609D02*
X102875316Y-99243847D01*
X102875316Y-99243847D02*
X102875316Y-99481942D01*
X102875316Y-99481942D02*
X102827697Y-99577180D01*
X102827697Y-99577180D02*
X102780078Y-99624800D01*
X102780078Y-99624800D02*
X102684840Y-99672419D01*
X102684840Y-99672419D02*
X102399126Y-99672419D01*
X102399126Y-99672419D02*
X102303888Y-99624800D01*
X102303888Y-99624800D02*
X102256269Y-99577180D01*
X103161031Y-98672419D02*
X103494364Y-99672419D01*
X103494364Y-99672419D02*
X103827697Y-98672419D01*
X104065793Y-100053371D02*
X104113412Y-100005752D01*
X104113412Y-100005752D02*
X104208650Y-99862895D01*
X104208650Y-99862895D02*
X104256269Y-99767657D01*
X104256269Y-99767657D02*
X104303888Y-99624800D01*
X104303888Y-99624800D02*
X104351507Y-99386704D01*
X104351507Y-99386704D02*
X104351507Y-99196228D01*
X104351507Y-99196228D02*
X104303888Y-98958133D01*
X104303888Y-98958133D02*
X104256269Y-98815276D01*
X104256269Y-98815276D02*
X104208650Y-98720038D01*
X104208650Y-98720038D02*
X104113412Y-98577180D01*
X104113412Y-98577180D02*
X104065793Y-98529561D01*
X74303884Y-80872419D02*
X74303884Y-79872419D01*
X74303884Y-79872419D02*
X74541979Y-79872419D01*
X74541979Y-79872419D02*
X74684836Y-79920038D01*
X74684836Y-79920038D02*
X74780074Y-80015276D01*
X74780074Y-80015276D02*
X74827693Y-80110514D01*
X74827693Y-80110514D02*
X74875312Y-80300990D01*
X74875312Y-80300990D02*
X74875312Y-80443847D01*
X74875312Y-80443847D02*
X74827693Y-80634323D01*
X74827693Y-80634323D02*
X74780074Y-80729561D01*
X74780074Y-80729561D02*
X74684836Y-80824800D01*
X74684836Y-80824800D02*
X74541979Y-80872419D01*
X74541979Y-80872419D02*
X74303884Y-80872419D01*
X75875312Y-80777180D02*
X75827693Y-80824800D01*
X75827693Y-80824800D02*
X75684836Y-80872419D01*
X75684836Y-80872419D02*
X75589598Y-80872419D01*
X75589598Y-80872419D02*
X75446741Y-80824800D01*
X75446741Y-80824800D02*
X75351503Y-80729561D01*
X75351503Y-80729561D02*
X75303884Y-80634323D01*
X75303884Y-80634323D02*
X75256265Y-80443847D01*
X75256265Y-80443847D02*
X75256265Y-80300990D01*
X75256265Y-80300990D02*
X75303884Y-80110514D01*
X75303884Y-80110514D02*
X75351503Y-80015276D01*
X75351503Y-80015276D02*
X75446741Y-79920038D01*
X75446741Y-79920038D02*
X75589598Y-79872419D01*
X75589598Y-79872419D02*
X75684836Y-79872419D01*
X75684836Y-79872419D02*
X75827693Y-79920038D01*
X75827693Y-79920038D02*
X75875312Y-79967657D01*
X77351503Y-81253371D02*
X77303884Y-81205752D01*
X77303884Y-81205752D02*
X77208646Y-81062895D01*
X77208646Y-81062895D02*
X77161027Y-80967657D01*
X77161027Y-80967657D02*
X77113408Y-80824800D01*
X77113408Y-80824800D02*
X77065789Y-80586704D01*
X77065789Y-80586704D02*
X77065789Y-80396228D01*
X77065789Y-80396228D02*
X77113408Y-80158133D01*
X77113408Y-80158133D02*
X77161027Y-80015276D01*
X77161027Y-80015276D02*
X77208646Y-79920038D01*
X77208646Y-79920038D02*
X77303884Y-79777180D01*
X77303884Y-79777180D02*
X77351503Y-79729561D01*
X78256265Y-80872419D02*
X77684837Y-80872419D01*
X77970551Y-80872419D02*
X77970551Y-79872419D01*
X77970551Y-79872419D02*
X77875313Y-80015276D01*
X77875313Y-80015276D02*
X77780075Y-80110514D01*
X77780075Y-80110514D02*
X77684837Y-80158133D01*
X78637218Y-79967657D02*
X78684837Y-79920038D01*
X78684837Y-79920038D02*
X78780075Y-79872419D01*
X78780075Y-79872419D02*
X79018170Y-79872419D01*
X79018170Y-79872419D02*
X79113408Y-79920038D01*
X79113408Y-79920038D02*
X79161027Y-79967657D01*
X79161027Y-79967657D02*
X79208646Y-80062895D01*
X79208646Y-80062895D02*
X79208646Y-80158133D01*
X79208646Y-80158133D02*
X79161027Y-80300990D01*
X79161027Y-80300990D02*
X78589599Y-80872419D01*
X78589599Y-80872419D02*
X79208646Y-80872419D01*
X79637218Y-80491466D02*
X80399123Y-80491466D01*
X80827694Y-79967657D02*
X80875313Y-79920038D01*
X80875313Y-79920038D02*
X80970551Y-79872419D01*
X80970551Y-79872419D02*
X81208646Y-79872419D01*
X81208646Y-79872419D02*
X81303884Y-79920038D01*
X81303884Y-79920038D02*
X81351503Y-79967657D01*
X81351503Y-79967657D02*
X81399122Y-80062895D01*
X81399122Y-80062895D02*
X81399122Y-80158133D01*
X81399122Y-80158133D02*
X81351503Y-80300990D01*
X81351503Y-80300990D02*
X80780075Y-80872419D01*
X80780075Y-80872419D02*
X81399122Y-80872419D01*
X82018170Y-79872419D02*
X82113408Y-79872419D01*
X82113408Y-79872419D02*
X82208646Y-79920038D01*
X82208646Y-79920038D02*
X82256265Y-79967657D01*
X82256265Y-79967657D02*
X82303884Y-80062895D01*
X82303884Y-80062895D02*
X82351503Y-80253371D01*
X82351503Y-80253371D02*
X82351503Y-80491466D01*
X82351503Y-80491466D02*
X82303884Y-80681942D01*
X82303884Y-80681942D02*
X82256265Y-80777180D01*
X82256265Y-80777180D02*
X82208646Y-80824800D01*
X82208646Y-80824800D02*
X82113408Y-80872419D01*
X82113408Y-80872419D02*
X82018170Y-80872419D01*
X82018170Y-80872419D02*
X81922932Y-80824800D01*
X81922932Y-80824800D02*
X81875313Y-80777180D01*
X81875313Y-80777180D02*
X81827694Y-80681942D01*
X81827694Y-80681942D02*
X81780075Y-80491466D01*
X81780075Y-80491466D02*
X81780075Y-80253371D01*
X81780075Y-80253371D02*
X81827694Y-80062895D01*
X81827694Y-80062895D02*
X81875313Y-79967657D01*
X81875313Y-79967657D02*
X81922932Y-79920038D01*
X81922932Y-79920038D02*
X82018170Y-79872419D01*
X82637218Y-79872419D02*
X82970551Y-80872419D01*
X82970551Y-80872419D02*
X83303884Y-79872419D01*
X83541980Y-81253371D02*
X83589599Y-81205752D01*
X83589599Y-81205752D02*
X83684837Y-81062895D01*
X83684837Y-81062895D02*
X83732456Y-80967657D01*
X83732456Y-80967657D02*
X83780075Y-80824800D01*
X83780075Y-80824800D02*
X83827694Y-80586704D01*
X83827694Y-80586704D02*
X83827694Y-80396228D01*
X83827694Y-80396228D02*
X83780075Y-80158133D01*
X83780075Y-80158133D02*
X83732456Y-80015276D01*
X83732456Y-80015276D02*
X83684837Y-79920038D01*
X83684837Y-79920038D02*
X83589599Y-79777180D01*
X83589599Y-79777180D02*
X83541980Y-79729561D01*
X167703884Y-92472419D02*
X167703884Y-91472419D01*
X167703884Y-91948609D02*
X168275312Y-91948609D01*
X168275312Y-92472419D02*
X168275312Y-91472419D01*
X168894360Y-92472419D02*
X168799122Y-92424800D01*
X168799122Y-92424800D02*
X168751503Y-92377180D01*
X168751503Y-92377180D02*
X168703884Y-92281942D01*
X168703884Y-92281942D02*
X168703884Y-91996228D01*
X168703884Y-91996228D02*
X168751503Y-91900990D01*
X168751503Y-91900990D02*
X168799122Y-91853371D01*
X168799122Y-91853371D02*
X168894360Y-91805752D01*
X168894360Y-91805752D02*
X169037217Y-91805752D01*
X169037217Y-91805752D02*
X169132455Y-91853371D01*
X169132455Y-91853371D02*
X169180074Y-91900990D01*
X169180074Y-91900990D02*
X169227693Y-91996228D01*
X169227693Y-91996228D02*
X169227693Y-92281942D01*
X169227693Y-92281942D02*
X169180074Y-92377180D01*
X169180074Y-92377180D02*
X169132455Y-92424800D01*
X169132455Y-92424800D02*
X169037217Y-92472419D01*
X169037217Y-92472419D02*
X168894360Y-92472419D01*
X170084836Y-91805752D02*
X170084836Y-92472419D01*
X169656265Y-91805752D02*
X169656265Y-92329561D01*
X169656265Y-92329561D02*
X169703884Y-92424800D01*
X169703884Y-92424800D02*
X169799122Y-92472419D01*
X169799122Y-92472419D02*
X169941979Y-92472419D01*
X169941979Y-92472419D02*
X170037217Y-92424800D01*
X170037217Y-92424800D02*
X170084836Y-92377180D01*
X170561027Y-92472419D02*
X170561027Y-91805752D01*
X170561027Y-91996228D02*
X170608646Y-91900990D01*
X170608646Y-91900990D02*
X170656265Y-91853371D01*
X170656265Y-91853371D02*
X170751503Y-91805752D01*
X170751503Y-91805752D02*
X170846741Y-91805752D01*
X187580075Y-106614856D02*
X187722932Y-106662475D01*
X187722932Y-106662475D02*
X187961027Y-106662475D01*
X187961027Y-106662475D02*
X188056265Y-106614856D01*
X188056265Y-106614856D02*
X188103884Y-106567236D01*
X188103884Y-106567236D02*
X188151503Y-106471998D01*
X188151503Y-106471998D02*
X188151503Y-106376760D01*
X188151503Y-106376760D02*
X188103884Y-106281522D01*
X188103884Y-106281522D02*
X188056265Y-106233903D01*
X188056265Y-106233903D02*
X187961027Y-106186284D01*
X187961027Y-106186284D02*
X187770551Y-106138665D01*
X187770551Y-106138665D02*
X187675313Y-106091046D01*
X187675313Y-106091046D02*
X187627694Y-106043427D01*
X187627694Y-106043427D02*
X187580075Y-105948189D01*
X187580075Y-105948189D02*
X187580075Y-105852951D01*
X187580075Y-105852951D02*
X187627694Y-105757713D01*
X187627694Y-105757713D02*
X187675313Y-105710094D01*
X187675313Y-105710094D02*
X187770551Y-105662475D01*
X187770551Y-105662475D02*
X188008646Y-105662475D01*
X188008646Y-105662475D02*
X188151503Y-105710094D01*
X188580075Y-106138665D02*
X188913408Y-106138665D01*
X189056265Y-106662475D02*
X188580075Y-106662475D01*
X188580075Y-106662475D02*
X188580075Y-105662475D01*
X188580075Y-105662475D02*
X189056265Y-105662475D01*
X189341980Y-105662475D02*
X189913408Y-105662475D01*
X189627694Y-106662475D02*
X189627694Y-105662475D01*
X190865790Y-105662475D02*
X191437218Y-105662475D01*
X191151504Y-106662475D02*
X191151504Y-105662475D01*
X191770552Y-106662475D02*
X191770552Y-105662475D01*
X192246742Y-106662475D02*
X192246742Y-105662475D01*
X192246742Y-105662475D02*
X192580075Y-106376760D01*
X192580075Y-106376760D02*
X192913408Y-105662475D01*
X192913408Y-105662475D02*
X192913408Y-106662475D01*
X193389599Y-106138665D02*
X193722932Y-106138665D01*
X193865789Y-106662475D02*
X193389599Y-106662475D01*
X193389599Y-106662475D02*
X193389599Y-105662475D01*
X193389599Y-105662475D02*
X193865789Y-105662475D01*
X186294360Y-107272419D02*
X186484836Y-107272419D01*
X186484836Y-107272419D02*
X186580074Y-107320038D01*
X186580074Y-107320038D02*
X186675312Y-107415276D01*
X186675312Y-107415276D02*
X186722931Y-107605752D01*
X186722931Y-107605752D02*
X186722931Y-107939085D01*
X186722931Y-107939085D02*
X186675312Y-108129561D01*
X186675312Y-108129561D02*
X186580074Y-108224800D01*
X186580074Y-108224800D02*
X186484836Y-108272419D01*
X186484836Y-108272419D02*
X186294360Y-108272419D01*
X186294360Y-108272419D02*
X186199122Y-108224800D01*
X186199122Y-108224800D02*
X186103884Y-108129561D01*
X186103884Y-108129561D02*
X186056265Y-107939085D01*
X186056265Y-107939085D02*
X186056265Y-107605752D01*
X186056265Y-107605752D02*
X186103884Y-107415276D01*
X186103884Y-107415276D02*
X186199122Y-107320038D01*
X186199122Y-107320038D02*
X186294360Y-107272419D01*
X187484836Y-107748609D02*
X187151503Y-107748609D01*
X187151503Y-108272419D02*
X187151503Y-107272419D01*
X187151503Y-107272419D02*
X187627693Y-107272419D01*
X188341979Y-107748609D02*
X188008646Y-107748609D01*
X188008646Y-108272419D02*
X188008646Y-107272419D01*
X188008646Y-107272419D02*
X188484836Y-107272419D01*
X189627694Y-107891466D02*
X190389599Y-107891466D01*
X190865789Y-107891466D02*
X191627694Y-107891466D01*
X193056265Y-107272419D02*
X193246741Y-107272419D01*
X193246741Y-107272419D02*
X193341979Y-107320038D01*
X193341979Y-107320038D02*
X193437217Y-107415276D01*
X193437217Y-107415276D02*
X193484836Y-107605752D01*
X193484836Y-107605752D02*
X193484836Y-107939085D01*
X193484836Y-107939085D02*
X193437217Y-108129561D01*
X193437217Y-108129561D02*
X193341979Y-108224800D01*
X193341979Y-108224800D02*
X193246741Y-108272419D01*
X193246741Y-108272419D02*
X193056265Y-108272419D01*
X193056265Y-108272419D02*
X192961027Y-108224800D01*
X192961027Y-108224800D02*
X192865789Y-108129561D01*
X192865789Y-108129561D02*
X192818170Y-107939085D01*
X192818170Y-107939085D02*
X192818170Y-107605752D01*
X192818170Y-107605752D02*
X192865789Y-107415276D01*
X192865789Y-107415276D02*
X192961027Y-107320038D01*
X192961027Y-107320038D02*
X193056265Y-107272419D01*
X193913408Y-108272419D02*
X193913408Y-107272419D01*
X193913408Y-107272419D02*
X194484836Y-108272419D01*
X194484836Y-108272419D02*
X194484836Y-107272419D01*
X188303884Y-92472419D02*
X188303884Y-91472419D01*
X188303884Y-91472419D02*
X188637217Y-92186704D01*
X188637217Y-92186704D02*
X188970550Y-91472419D01*
X188970550Y-91472419D02*
X188970550Y-92472419D01*
X189446741Y-92472419D02*
X189446741Y-91805752D01*
X189446741Y-91472419D02*
X189399122Y-91520038D01*
X189399122Y-91520038D02*
X189446741Y-91567657D01*
X189446741Y-91567657D02*
X189494360Y-91520038D01*
X189494360Y-91520038D02*
X189446741Y-91472419D01*
X189446741Y-91472419D02*
X189446741Y-91567657D01*
X189922931Y-91805752D02*
X189922931Y-92472419D01*
X189922931Y-91900990D02*
X189970550Y-91853371D01*
X189970550Y-91853371D02*
X190065788Y-91805752D01*
X190065788Y-91805752D02*
X190208645Y-91805752D01*
X190208645Y-91805752D02*
X190303883Y-91853371D01*
X190303883Y-91853371D02*
X190351502Y-91948609D01*
X190351502Y-91948609D02*
X190351502Y-92472419D01*
X191256264Y-91805752D02*
X191256264Y-92472419D01*
X190827693Y-91805752D02*
X190827693Y-92329561D01*
X190827693Y-92329561D02*
X190875312Y-92424800D01*
X190875312Y-92424800D02*
X190970550Y-92472419D01*
X190970550Y-92472419D02*
X191113407Y-92472419D01*
X191113407Y-92472419D02*
X191208645Y-92424800D01*
X191208645Y-92424800D02*
X191256264Y-92377180D01*
X191589598Y-91805752D02*
X191970550Y-91805752D01*
X191732455Y-91472419D02*
X191732455Y-92329561D01*
X191732455Y-92329561D02*
X191780074Y-92424800D01*
X191780074Y-92424800D02*
X191875312Y-92472419D01*
X191875312Y-92472419D02*
X191970550Y-92472419D01*
X192684836Y-92424800D02*
X192589598Y-92472419D01*
X192589598Y-92472419D02*
X192399122Y-92472419D01*
X192399122Y-92472419D02*
X192303884Y-92424800D01*
X192303884Y-92424800D02*
X192256265Y-92329561D01*
X192256265Y-92329561D02*
X192256265Y-91948609D01*
X192256265Y-91948609D02*
X192303884Y-91853371D01*
X192303884Y-91853371D02*
X192399122Y-91805752D01*
X192399122Y-91805752D02*
X192589598Y-91805752D01*
X192589598Y-91805752D02*
X192684836Y-91853371D01*
X192684836Y-91853371D02*
X192732455Y-91948609D01*
X192732455Y-91948609D02*
X192732455Y-92043847D01*
X192732455Y-92043847D02*
X192256265Y-92139085D01*
X209456265Y-92424800D02*
X209599122Y-92472419D01*
X209599122Y-92472419D02*
X209837217Y-92472419D01*
X209837217Y-92472419D02*
X209932455Y-92424800D01*
X209932455Y-92424800D02*
X209980074Y-92377180D01*
X209980074Y-92377180D02*
X210027693Y-92281942D01*
X210027693Y-92281942D02*
X210027693Y-92186704D01*
X210027693Y-92186704D02*
X209980074Y-92091466D01*
X209980074Y-92091466D02*
X209932455Y-92043847D01*
X209932455Y-92043847D02*
X209837217Y-91996228D01*
X209837217Y-91996228D02*
X209646741Y-91948609D01*
X209646741Y-91948609D02*
X209551503Y-91900990D01*
X209551503Y-91900990D02*
X209503884Y-91853371D01*
X209503884Y-91853371D02*
X209456265Y-91758133D01*
X209456265Y-91758133D02*
X209456265Y-91662895D01*
X209456265Y-91662895D02*
X209503884Y-91567657D01*
X209503884Y-91567657D02*
X209551503Y-91520038D01*
X209551503Y-91520038D02*
X209646741Y-91472419D01*
X209646741Y-91472419D02*
X209884836Y-91472419D01*
X209884836Y-91472419D02*
X210027693Y-91520038D01*
X210837217Y-92424800D02*
X210741979Y-92472419D01*
X210741979Y-92472419D02*
X210551503Y-92472419D01*
X210551503Y-92472419D02*
X210456265Y-92424800D01*
X210456265Y-92424800D02*
X210408646Y-92329561D01*
X210408646Y-92329561D02*
X210408646Y-91948609D01*
X210408646Y-91948609D02*
X210456265Y-91853371D01*
X210456265Y-91853371D02*
X210551503Y-91805752D01*
X210551503Y-91805752D02*
X210741979Y-91805752D01*
X210741979Y-91805752D02*
X210837217Y-91853371D01*
X210837217Y-91853371D02*
X210884836Y-91948609D01*
X210884836Y-91948609D02*
X210884836Y-92043847D01*
X210884836Y-92043847D02*
X210408646Y-92139085D01*
X211741979Y-92424800D02*
X211646741Y-92472419D01*
X211646741Y-92472419D02*
X211456265Y-92472419D01*
X211456265Y-92472419D02*
X211361027Y-92424800D01*
X211361027Y-92424800D02*
X211313408Y-92377180D01*
X211313408Y-92377180D02*
X211265789Y-92281942D01*
X211265789Y-92281942D02*
X211265789Y-91996228D01*
X211265789Y-91996228D02*
X211313408Y-91900990D01*
X211313408Y-91900990D02*
X211361027Y-91853371D01*
X211361027Y-91853371D02*
X211456265Y-91805752D01*
X211456265Y-91805752D02*
X211646741Y-91805752D01*
X211646741Y-91805752D02*
X211741979Y-91853371D01*
X212313408Y-92472419D02*
X212218170Y-92424800D01*
X212218170Y-92424800D02*
X212170551Y-92377180D01*
X212170551Y-92377180D02*
X212122932Y-92281942D01*
X212122932Y-92281942D02*
X212122932Y-91996228D01*
X212122932Y-91996228D02*
X212170551Y-91900990D01*
X212170551Y-91900990D02*
X212218170Y-91853371D01*
X212218170Y-91853371D02*
X212313408Y-91805752D01*
X212313408Y-91805752D02*
X212456265Y-91805752D01*
X212456265Y-91805752D02*
X212551503Y-91853371D01*
X212551503Y-91853371D02*
X212599122Y-91900990D01*
X212599122Y-91900990D02*
X212646741Y-91996228D01*
X212646741Y-91996228D02*
X212646741Y-92281942D01*
X212646741Y-92281942D02*
X212599122Y-92377180D01*
X212599122Y-92377180D02*
X212551503Y-92424800D01*
X212551503Y-92424800D02*
X212456265Y-92472419D01*
X212456265Y-92472419D02*
X212313408Y-92472419D01*
X213075313Y-91805752D02*
X213075313Y-92472419D01*
X213075313Y-91900990D02*
X213122932Y-91853371D01*
X213122932Y-91853371D02*
X213218170Y-91805752D01*
X213218170Y-91805752D02*
X213361027Y-91805752D01*
X213361027Y-91805752D02*
X213456265Y-91853371D01*
X213456265Y-91853371D02*
X213503884Y-91948609D01*
X213503884Y-91948609D02*
X213503884Y-92472419D01*
X214408646Y-92472419D02*
X214408646Y-91472419D01*
X214408646Y-92424800D02*
X214313408Y-92472419D01*
X214313408Y-92472419D02*
X214122932Y-92472419D01*
X214122932Y-92472419D02*
X214027694Y-92424800D01*
X214027694Y-92424800D02*
X213980075Y-92377180D01*
X213980075Y-92377180D02*
X213932456Y-92281942D01*
X213932456Y-92281942D02*
X213932456Y-91996228D01*
X213932456Y-91996228D02*
X213980075Y-91900990D01*
X213980075Y-91900990D02*
X214027694Y-91853371D01*
X214027694Y-91853371D02*
X214122932Y-91805752D01*
X214122932Y-91805752D02*
X214313408Y-91805752D01*
X214313408Y-91805752D02*
X214408646Y-91853371D01*
D12*
X157807768Y-175905062D02*
X157807768Y-173905062D01*
X157807768Y-173905062D02*
X158950625Y-175905062D01*
X158950625Y-175905062D02*
X158950625Y-173905062D01*
X159903006Y-175905062D02*
X159903006Y-174571728D01*
X159903006Y-173905062D02*
X159807768Y-174000300D01*
X159807768Y-174000300D02*
X159903006Y-174095538D01*
X159903006Y-174095538D02*
X159998244Y-174000300D01*
X159998244Y-174000300D02*
X159903006Y-173905062D01*
X159903006Y-173905062D02*
X159903006Y-174095538D01*
X160664911Y-175905062D02*
X161712530Y-174571728D01*
X160664911Y-174571728D02*
X161712530Y-175905062D01*
X162474435Y-175905062D02*
X162474435Y-174571728D01*
X162474435Y-173905062D02*
X162379197Y-174000300D01*
X162379197Y-174000300D02*
X162474435Y-174095538D01*
X162474435Y-174095538D02*
X162569673Y-174000300D01*
X162569673Y-174000300D02*
X162474435Y-173905062D01*
X162474435Y-173905062D02*
X162474435Y-174095538D01*
X164188721Y-175809824D02*
X163998245Y-175905062D01*
X163998245Y-175905062D02*
X163617292Y-175905062D01*
X163617292Y-175905062D02*
X163426816Y-175809824D01*
X163426816Y-175809824D02*
X163331578Y-175619347D01*
X163331578Y-175619347D02*
X163331578Y-174857443D01*
X163331578Y-174857443D02*
X163426816Y-174666966D01*
X163426816Y-174666966D02*
X163617292Y-174571728D01*
X163617292Y-174571728D02*
X163998245Y-174571728D01*
X163998245Y-174571728D02*
X164188721Y-174666966D01*
X164188721Y-174666966D02*
X164283959Y-174857443D01*
X164283959Y-174857443D02*
X164283959Y-175047919D01*
X164283959Y-175047919D02*
X163331578Y-175238395D01*
X166379198Y-173905062D02*
X167522055Y-173905062D01*
X166950626Y-175905062D02*
X166950626Y-173905062D01*
X169045865Y-174571728D02*
X169045865Y-175905062D01*
X168188722Y-174571728D02*
X168188722Y-175619347D01*
X168188722Y-175619347D02*
X168283960Y-175809824D01*
X168283960Y-175809824D02*
X168474436Y-175905062D01*
X168474436Y-175905062D02*
X168760151Y-175905062D01*
X168760151Y-175905062D02*
X168950627Y-175809824D01*
X168950627Y-175809824D02*
X169045865Y-175714585D01*
X169998246Y-175905062D02*
X169998246Y-173905062D01*
X169998246Y-174666966D02*
X170188722Y-174571728D01*
X170188722Y-174571728D02*
X170569675Y-174571728D01*
X170569675Y-174571728D02*
X170760151Y-174666966D01*
X170760151Y-174666966D02*
X170855389Y-174762204D01*
X170855389Y-174762204D02*
X170950627Y-174952681D01*
X170950627Y-174952681D02*
X170950627Y-175524109D01*
X170950627Y-175524109D02*
X170855389Y-175714585D01*
X170855389Y-175714585D02*
X170760151Y-175809824D01*
X170760151Y-175809824D02*
X170569675Y-175905062D01*
X170569675Y-175905062D02*
X170188722Y-175905062D01*
X170188722Y-175905062D02*
X169998246Y-175809824D01*
X172569675Y-175809824D02*
X172379199Y-175905062D01*
X172379199Y-175905062D02*
X171998246Y-175905062D01*
X171998246Y-175905062D02*
X171807770Y-175809824D01*
X171807770Y-175809824D02*
X171712532Y-175619347D01*
X171712532Y-175619347D02*
X171712532Y-174857443D01*
X171712532Y-174857443D02*
X171807770Y-174666966D01*
X171807770Y-174666966D02*
X171998246Y-174571728D01*
X171998246Y-174571728D02*
X172379199Y-174571728D01*
X172379199Y-174571728D02*
X172569675Y-174666966D01*
X172569675Y-174666966D02*
X172664913Y-174857443D01*
X172664913Y-174857443D02*
X172664913Y-175047919D01*
X172664913Y-175047919D02*
X171712532Y-175238395D01*
X175045866Y-175905062D02*
X175045866Y-173905062D01*
X175045866Y-173905062D02*
X175807771Y-173905062D01*
X175807771Y-173905062D02*
X175998247Y-174000300D01*
X175998247Y-174000300D02*
X176093485Y-174095538D01*
X176093485Y-174095538D02*
X176188723Y-174286014D01*
X176188723Y-174286014D02*
X176188723Y-174571728D01*
X176188723Y-174571728D02*
X176093485Y-174762204D01*
X176093485Y-174762204D02*
X175998247Y-174857443D01*
X175998247Y-174857443D02*
X175807771Y-174952681D01*
X175807771Y-174952681D02*
X175045866Y-174952681D01*
X177045866Y-175905062D02*
X177045866Y-174571728D01*
X177045866Y-174952681D02*
X177141104Y-174762204D01*
X177141104Y-174762204D02*
X177236342Y-174666966D01*
X177236342Y-174666966D02*
X177426818Y-174571728D01*
X177426818Y-174571728D02*
X177617295Y-174571728D01*
X178569675Y-175905062D02*
X178379199Y-175809824D01*
X178379199Y-175809824D02*
X178283961Y-175714585D01*
X178283961Y-175714585D02*
X178188723Y-175524109D01*
X178188723Y-175524109D02*
X178188723Y-174952681D01*
X178188723Y-174952681D02*
X178283961Y-174762204D01*
X178283961Y-174762204D02*
X178379199Y-174666966D01*
X178379199Y-174666966D02*
X178569675Y-174571728D01*
X178569675Y-174571728D02*
X178855390Y-174571728D01*
X178855390Y-174571728D02*
X179045866Y-174666966D01*
X179045866Y-174666966D02*
X179141104Y-174762204D01*
X179141104Y-174762204D02*
X179236342Y-174952681D01*
X179236342Y-174952681D02*
X179236342Y-175524109D01*
X179236342Y-175524109D02*
X179141104Y-175714585D01*
X179141104Y-175714585D02*
X179045866Y-175809824D01*
X179045866Y-175809824D02*
X178855390Y-175905062D01*
X178855390Y-175905062D02*
X178569675Y-175905062D01*
X180950628Y-174571728D02*
X180950628Y-176190776D01*
X180950628Y-176190776D02*
X180855390Y-176381252D01*
X180855390Y-176381252D02*
X180760152Y-176476490D01*
X180760152Y-176476490D02*
X180569675Y-176571728D01*
X180569675Y-176571728D02*
X180283961Y-176571728D01*
X180283961Y-176571728D02*
X180093485Y-176476490D01*
X180950628Y-175809824D02*
X180760152Y-175905062D01*
X180760152Y-175905062D02*
X180379199Y-175905062D01*
X180379199Y-175905062D02*
X180188723Y-175809824D01*
X180188723Y-175809824D02*
X180093485Y-175714585D01*
X180093485Y-175714585D02*
X179998247Y-175524109D01*
X179998247Y-175524109D02*
X179998247Y-174952681D01*
X179998247Y-174952681D02*
X180093485Y-174762204D01*
X180093485Y-174762204D02*
X180188723Y-174666966D01*
X180188723Y-174666966D02*
X180379199Y-174571728D01*
X180379199Y-174571728D02*
X180760152Y-174571728D01*
X180760152Y-174571728D02*
X180950628Y-174666966D01*
X181903009Y-175905062D02*
X181903009Y-174571728D01*
X181903009Y-174952681D02*
X181998247Y-174762204D01*
X181998247Y-174762204D02*
X182093485Y-174666966D01*
X182093485Y-174666966D02*
X182283961Y-174571728D01*
X182283961Y-174571728D02*
X182474438Y-174571728D01*
X183998247Y-175905062D02*
X183998247Y-174857443D01*
X183998247Y-174857443D02*
X183903009Y-174666966D01*
X183903009Y-174666966D02*
X183712533Y-174571728D01*
X183712533Y-174571728D02*
X183331580Y-174571728D01*
X183331580Y-174571728D02*
X183141104Y-174666966D01*
X183998247Y-175809824D02*
X183807771Y-175905062D01*
X183807771Y-175905062D02*
X183331580Y-175905062D01*
X183331580Y-175905062D02*
X183141104Y-175809824D01*
X183141104Y-175809824D02*
X183045866Y-175619347D01*
X183045866Y-175619347D02*
X183045866Y-175428871D01*
X183045866Y-175428871D02*
X183141104Y-175238395D01*
X183141104Y-175238395D02*
X183331580Y-175143157D01*
X183331580Y-175143157D02*
X183807771Y-175143157D01*
X183807771Y-175143157D02*
X183998247Y-175047919D01*
X184950628Y-175905062D02*
X184950628Y-174571728D01*
X184950628Y-174762204D02*
X185045866Y-174666966D01*
X185045866Y-174666966D02*
X185236342Y-174571728D01*
X185236342Y-174571728D02*
X185522057Y-174571728D01*
X185522057Y-174571728D02*
X185712533Y-174666966D01*
X185712533Y-174666966D02*
X185807771Y-174857443D01*
X185807771Y-174857443D02*
X185807771Y-175905062D01*
X185807771Y-174857443D02*
X185903009Y-174666966D01*
X185903009Y-174666966D02*
X186093485Y-174571728D01*
X186093485Y-174571728D02*
X186379199Y-174571728D01*
X186379199Y-174571728D02*
X186569676Y-174666966D01*
X186569676Y-174666966D02*
X186664914Y-174857443D01*
X186664914Y-174857443D02*
X186664914Y-175905062D01*
X187617295Y-175905062D02*
X187617295Y-174571728D01*
X187617295Y-174762204D02*
X187712533Y-174666966D01*
X187712533Y-174666966D02*
X187903009Y-174571728D01*
X187903009Y-174571728D02*
X188188724Y-174571728D01*
X188188724Y-174571728D02*
X188379200Y-174666966D01*
X188379200Y-174666966D02*
X188474438Y-174857443D01*
X188474438Y-174857443D02*
X188474438Y-175905062D01*
X188474438Y-174857443D02*
X188569676Y-174666966D01*
X188569676Y-174666966D02*
X188760152Y-174571728D01*
X188760152Y-174571728D02*
X189045866Y-174571728D01*
X189045866Y-174571728D02*
X189236343Y-174666966D01*
X189236343Y-174666966D02*
X189331581Y-174857443D01*
X189331581Y-174857443D02*
X189331581Y-175905062D01*
X191141105Y-175905062D02*
X191141105Y-174857443D01*
X191141105Y-174857443D02*
X191045867Y-174666966D01*
X191045867Y-174666966D02*
X190855391Y-174571728D01*
X190855391Y-174571728D02*
X190474438Y-174571728D01*
X190474438Y-174571728D02*
X190283962Y-174666966D01*
X191141105Y-175809824D02*
X190950629Y-175905062D01*
X190950629Y-175905062D02*
X190474438Y-175905062D01*
X190474438Y-175905062D02*
X190283962Y-175809824D01*
X190283962Y-175809824D02*
X190188724Y-175619347D01*
X190188724Y-175619347D02*
X190188724Y-175428871D01*
X190188724Y-175428871D02*
X190283962Y-175238395D01*
X190283962Y-175238395D02*
X190474438Y-175143157D01*
X190474438Y-175143157D02*
X190950629Y-175143157D01*
X190950629Y-175143157D02*
X191141105Y-175047919D01*
X192093486Y-175905062D02*
X192093486Y-173905062D01*
X192093486Y-174666966D02*
X192283962Y-174571728D01*
X192283962Y-174571728D02*
X192664915Y-174571728D01*
X192664915Y-174571728D02*
X192855391Y-174666966D01*
X192855391Y-174666966D02*
X192950629Y-174762204D01*
X192950629Y-174762204D02*
X193045867Y-174952681D01*
X193045867Y-174952681D02*
X193045867Y-175524109D01*
X193045867Y-175524109D02*
X192950629Y-175714585D01*
X192950629Y-175714585D02*
X192855391Y-175809824D01*
X192855391Y-175809824D02*
X192664915Y-175905062D01*
X192664915Y-175905062D02*
X192283962Y-175905062D01*
X192283962Y-175905062D02*
X192093486Y-175809824D01*
X194188724Y-175905062D02*
X193998248Y-175809824D01*
X193998248Y-175809824D02*
X193903010Y-175619347D01*
X193903010Y-175619347D02*
X193903010Y-173905062D01*
X195712534Y-175809824D02*
X195522058Y-175905062D01*
X195522058Y-175905062D02*
X195141105Y-175905062D01*
X195141105Y-175905062D02*
X194950629Y-175809824D01*
X194950629Y-175809824D02*
X194855391Y-175619347D01*
X194855391Y-175619347D02*
X194855391Y-174857443D01*
X194855391Y-174857443D02*
X194950629Y-174666966D01*
X194950629Y-174666966D02*
X195141105Y-174571728D01*
X195141105Y-174571728D02*
X195522058Y-174571728D01*
X195522058Y-174571728D02*
X195712534Y-174666966D01*
X195712534Y-174666966D02*
X195807772Y-174857443D01*
X195807772Y-174857443D02*
X195807772Y-175047919D01*
X195807772Y-175047919D02*
X194855391Y-175238395D01*
X199331582Y-175714585D02*
X199236344Y-175809824D01*
X199236344Y-175809824D02*
X198950630Y-175905062D01*
X198950630Y-175905062D02*
X198760154Y-175905062D01*
X198760154Y-175905062D02*
X198474439Y-175809824D01*
X198474439Y-175809824D02*
X198283963Y-175619347D01*
X198283963Y-175619347D02*
X198188725Y-175428871D01*
X198188725Y-175428871D02*
X198093487Y-175047919D01*
X198093487Y-175047919D02*
X198093487Y-174762204D01*
X198093487Y-174762204D02*
X198188725Y-174381252D01*
X198188725Y-174381252D02*
X198283963Y-174190776D01*
X198283963Y-174190776D02*
X198474439Y-174000300D01*
X198474439Y-174000300D02*
X198760154Y-173905062D01*
X198760154Y-173905062D02*
X198950630Y-173905062D01*
X198950630Y-173905062D02*
X199236344Y-174000300D01*
X199236344Y-174000300D02*
X199331582Y-174095538D01*
X200474439Y-175905062D02*
X200283963Y-175809824D01*
X200283963Y-175809824D02*
X200188725Y-175619347D01*
X200188725Y-175619347D02*
X200188725Y-173905062D01*
X201522058Y-175905062D02*
X201331582Y-175809824D01*
X201331582Y-175809824D02*
X201236344Y-175714585D01*
X201236344Y-175714585D02*
X201141106Y-175524109D01*
X201141106Y-175524109D02*
X201141106Y-174952681D01*
X201141106Y-174952681D02*
X201236344Y-174762204D01*
X201236344Y-174762204D02*
X201331582Y-174666966D01*
X201331582Y-174666966D02*
X201522058Y-174571728D01*
X201522058Y-174571728D02*
X201807773Y-174571728D01*
X201807773Y-174571728D02*
X201998249Y-174666966D01*
X201998249Y-174666966D02*
X202093487Y-174762204D01*
X202093487Y-174762204D02*
X202188725Y-174952681D01*
X202188725Y-174952681D02*
X202188725Y-175524109D01*
X202188725Y-175524109D02*
X202093487Y-175714585D01*
X202093487Y-175714585D02*
X201998249Y-175809824D01*
X201998249Y-175809824D02*
X201807773Y-175905062D01*
X201807773Y-175905062D02*
X201522058Y-175905062D01*
X203903011Y-175809824D02*
X203712535Y-175905062D01*
X203712535Y-175905062D02*
X203331582Y-175905062D01*
X203331582Y-175905062D02*
X203141106Y-175809824D01*
X203141106Y-175809824D02*
X203045868Y-175714585D01*
X203045868Y-175714585D02*
X202950630Y-175524109D01*
X202950630Y-175524109D02*
X202950630Y-174952681D01*
X202950630Y-174952681D02*
X203045868Y-174762204D01*
X203045868Y-174762204D02*
X203141106Y-174666966D01*
X203141106Y-174666966D02*
X203331582Y-174571728D01*
X203331582Y-174571728D02*
X203712535Y-174571728D01*
X203712535Y-174571728D02*
X203903011Y-174666966D01*
X204760154Y-175905062D02*
X204760154Y-173905062D01*
X204950630Y-175143157D02*
X205522059Y-175905062D01*
X205522059Y-174571728D02*
X204760154Y-175333633D01*
X207903012Y-175905062D02*
X207903012Y-173905062D01*
X207903012Y-173905062D02*
X208379202Y-173905062D01*
X208379202Y-173905062D02*
X208664917Y-174000300D01*
X208664917Y-174000300D02*
X208855393Y-174190776D01*
X208855393Y-174190776D02*
X208950631Y-174381252D01*
X208950631Y-174381252D02*
X209045869Y-174762204D01*
X209045869Y-174762204D02*
X209045869Y-175047919D01*
X209045869Y-175047919D02*
X208950631Y-175428871D01*
X208950631Y-175428871D02*
X208855393Y-175619347D01*
X208855393Y-175619347D02*
X208664917Y-175809824D01*
X208664917Y-175809824D02*
X208379202Y-175905062D01*
X208379202Y-175905062D02*
X207903012Y-175905062D01*
X209903012Y-175905062D02*
X209903012Y-174571728D01*
X209903012Y-173905062D02*
X209807774Y-174000300D01*
X209807774Y-174000300D02*
X209903012Y-174095538D01*
X209903012Y-174095538D02*
X209998250Y-174000300D01*
X209998250Y-174000300D02*
X209903012Y-173905062D01*
X209903012Y-173905062D02*
X209903012Y-174095538D01*
X210760155Y-175809824D02*
X210950631Y-175905062D01*
X210950631Y-175905062D02*
X211331583Y-175905062D01*
X211331583Y-175905062D02*
X211522060Y-175809824D01*
X211522060Y-175809824D02*
X211617298Y-175619347D01*
X211617298Y-175619347D02*
X211617298Y-175524109D01*
X211617298Y-175524109D02*
X211522060Y-175333633D01*
X211522060Y-175333633D02*
X211331583Y-175238395D01*
X211331583Y-175238395D02*
X211045869Y-175238395D01*
X211045869Y-175238395D02*
X210855393Y-175143157D01*
X210855393Y-175143157D02*
X210760155Y-174952681D01*
X210760155Y-174952681D02*
X210760155Y-174857443D01*
X210760155Y-174857443D02*
X210855393Y-174666966D01*
X210855393Y-174666966D02*
X211045869Y-174571728D01*
X211045869Y-174571728D02*
X211331583Y-174571728D01*
X211331583Y-174571728D02*
X211522060Y-174666966D01*
X212474441Y-174571728D02*
X212474441Y-176571728D01*
X212474441Y-174666966D02*
X212664917Y-174571728D01*
X212664917Y-174571728D02*
X213045870Y-174571728D01*
X213045870Y-174571728D02*
X213236346Y-174666966D01*
X213236346Y-174666966D02*
X213331584Y-174762204D01*
X213331584Y-174762204D02*
X213426822Y-174952681D01*
X213426822Y-174952681D02*
X213426822Y-175524109D01*
X213426822Y-175524109D02*
X213331584Y-175714585D01*
X213331584Y-175714585D02*
X213236346Y-175809824D01*
X213236346Y-175809824D02*
X213045870Y-175905062D01*
X213045870Y-175905062D02*
X212664917Y-175905062D01*
X212664917Y-175905062D02*
X212474441Y-175809824D01*
X214569679Y-175905062D02*
X214379203Y-175809824D01*
X214379203Y-175809824D02*
X214283965Y-175619347D01*
X214283965Y-175619347D02*
X214283965Y-173905062D01*
X216188727Y-175905062D02*
X216188727Y-174857443D01*
X216188727Y-174857443D02*
X216093489Y-174666966D01*
X216093489Y-174666966D02*
X215903013Y-174571728D01*
X215903013Y-174571728D02*
X215522060Y-174571728D01*
X215522060Y-174571728D02*
X215331584Y-174666966D01*
X216188727Y-175809824D02*
X215998251Y-175905062D01*
X215998251Y-175905062D02*
X215522060Y-175905062D01*
X215522060Y-175905062D02*
X215331584Y-175809824D01*
X215331584Y-175809824D02*
X215236346Y-175619347D01*
X215236346Y-175619347D02*
X215236346Y-175428871D01*
X215236346Y-175428871D02*
X215331584Y-175238395D01*
X215331584Y-175238395D02*
X215522060Y-175143157D01*
X215522060Y-175143157D02*
X215998251Y-175143157D01*
X215998251Y-175143157D02*
X216188727Y-175047919D01*
X216950632Y-174571728D02*
X217426822Y-175905062D01*
X217903013Y-174571728D02*
X217426822Y-175905062D01*
X217426822Y-175905062D02*
X217236346Y-176381252D01*
X217236346Y-176381252D02*
X217141108Y-176476490D01*
X217141108Y-176476490D02*
X216950632Y-176571728D01*
X220188728Y-175905062D02*
X220188728Y-173905062D01*
X220188728Y-173905062D02*
X220950633Y-173905062D01*
X220950633Y-173905062D02*
X221141109Y-174000300D01*
X221141109Y-174000300D02*
X221236347Y-174095538D01*
X221236347Y-174095538D02*
X221331585Y-174286014D01*
X221331585Y-174286014D02*
X221331585Y-174571728D01*
X221331585Y-174571728D02*
X221236347Y-174762204D01*
X221236347Y-174762204D02*
X221141109Y-174857443D01*
X221141109Y-174857443D02*
X220950633Y-174952681D01*
X220950633Y-174952681D02*
X220188728Y-174952681D01*
X222188728Y-175905062D02*
X222188728Y-174571728D01*
X222188728Y-174952681D02*
X222283966Y-174762204D01*
X222283966Y-174762204D02*
X222379204Y-174666966D01*
X222379204Y-174666966D02*
X222569680Y-174571728D01*
X222569680Y-174571728D02*
X222760157Y-174571728D01*
X223712537Y-175905062D02*
X223522061Y-175809824D01*
X223522061Y-175809824D02*
X223426823Y-175714585D01*
X223426823Y-175714585D02*
X223331585Y-175524109D01*
X223331585Y-175524109D02*
X223331585Y-174952681D01*
X223331585Y-174952681D02*
X223426823Y-174762204D01*
X223426823Y-174762204D02*
X223522061Y-174666966D01*
X223522061Y-174666966D02*
X223712537Y-174571728D01*
X223712537Y-174571728D02*
X223998252Y-174571728D01*
X223998252Y-174571728D02*
X224188728Y-174666966D01*
X224188728Y-174666966D02*
X224283966Y-174762204D01*
X224283966Y-174762204D02*
X224379204Y-174952681D01*
X224379204Y-174952681D02*
X224379204Y-175524109D01*
X224379204Y-175524109D02*
X224283966Y-175714585D01*
X224283966Y-175714585D02*
X224188728Y-175809824D01*
X224188728Y-175809824D02*
X223998252Y-175905062D01*
X223998252Y-175905062D02*
X223712537Y-175905062D01*
X224950633Y-174571728D02*
X225712537Y-174571728D01*
X225236347Y-173905062D02*
X225236347Y-175619347D01*
X225236347Y-175619347D02*
X225331585Y-175809824D01*
X225331585Y-175809824D02*
X225522061Y-175905062D01*
X225522061Y-175905062D02*
X225712537Y-175905062D01*
X226664918Y-175905062D02*
X226474442Y-175809824D01*
X226474442Y-175809824D02*
X226379204Y-175714585D01*
X226379204Y-175714585D02*
X226283966Y-175524109D01*
X226283966Y-175524109D02*
X226283966Y-174952681D01*
X226283966Y-174952681D02*
X226379204Y-174762204D01*
X226379204Y-174762204D02*
X226474442Y-174666966D01*
X226474442Y-174666966D02*
X226664918Y-174571728D01*
X226664918Y-174571728D02*
X226950633Y-174571728D01*
X226950633Y-174571728D02*
X227141109Y-174666966D01*
X227141109Y-174666966D02*
X227236347Y-174762204D01*
X227236347Y-174762204D02*
X227331585Y-174952681D01*
X227331585Y-174952681D02*
X227331585Y-175524109D01*
X227331585Y-175524109D02*
X227236347Y-175714585D01*
X227236347Y-175714585D02*
X227141109Y-175809824D01*
X227141109Y-175809824D02*
X226950633Y-175905062D01*
X226950633Y-175905062D02*
X226664918Y-175905062D01*
X227903014Y-174571728D02*
X228664918Y-174571728D01*
X228188728Y-173905062D02*
X228188728Y-175619347D01*
X228188728Y-175619347D02*
X228283966Y-175809824D01*
X228283966Y-175809824D02*
X228474442Y-175905062D01*
X228474442Y-175905062D02*
X228664918Y-175905062D01*
X229141109Y-174571728D02*
X229617299Y-175905062D01*
X230093490Y-174571728D02*
X229617299Y-175905062D01*
X229617299Y-175905062D02*
X229426823Y-176381252D01*
X229426823Y-176381252D02*
X229331585Y-176476490D01*
X229331585Y-176476490D02*
X229141109Y-176571728D01*
X230855395Y-174571728D02*
X230855395Y-176571728D01*
X230855395Y-174666966D02*
X231045871Y-174571728D01*
X231045871Y-174571728D02*
X231426824Y-174571728D01*
X231426824Y-174571728D02*
X231617300Y-174666966D01*
X231617300Y-174666966D02*
X231712538Y-174762204D01*
X231712538Y-174762204D02*
X231807776Y-174952681D01*
X231807776Y-174952681D02*
X231807776Y-175524109D01*
X231807776Y-175524109D02*
X231712538Y-175714585D01*
X231712538Y-175714585D02*
X231617300Y-175809824D01*
X231617300Y-175809824D02*
X231426824Y-175905062D01*
X231426824Y-175905062D02*
X231045871Y-175905062D01*
X231045871Y-175905062D02*
X230855395Y-175809824D01*
X233426824Y-175809824D02*
X233236348Y-175905062D01*
X233236348Y-175905062D02*
X232855395Y-175905062D01*
X232855395Y-175905062D02*
X232664919Y-175809824D01*
X232664919Y-175809824D02*
X232569681Y-175619347D01*
X232569681Y-175619347D02*
X232569681Y-174857443D01*
X232569681Y-174857443D02*
X232664919Y-174666966D01*
X232664919Y-174666966D02*
X232855395Y-174571728D01*
X232855395Y-174571728D02*
X233236348Y-174571728D01*
X233236348Y-174571728D02*
X233426824Y-174666966D01*
X233426824Y-174666966D02*
X233522062Y-174857443D01*
X233522062Y-174857443D02*
X233522062Y-175047919D01*
X233522062Y-175047919D02*
X232569681Y-175238395D01*
X185045864Y-181297219D02*
X185331578Y-181392457D01*
X185331578Y-181392457D02*
X185426816Y-181487695D01*
X185426816Y-181487695D02*
X185522054Y-181678171D01*
X185522054Y-181678171D02*
X185522054Y-181963885D01*
X185522054Y-181963885D02*
X185426816Y-182154361D01*
X185426816Y-182154361D02*
X185331578Y-182249600D01*
X185331578Y-182249600D02*
X185141102Y-182344838D01*
X185141102Y-182344838D02*
X184379197Y-182344838D01*
X184379197Y-182344838D02*
X184379197Y-180344838D01*
X184379197Y-180344838D02*
X185045864Y-180344838D01*
X185045864Y-180344838D02*
X185236340Y-180440076D01*
X185236340Y-180440076D02*
X185331578Y-180535314D01*
X185331578Y-180535314D02*
X185426816Y-180725790D01*
X185426816Y-180725790D02*
X185426816Y-180916266D01*
X185426816Y-180916266D02*
X185331578Y-181106742D01*
X185331578Y-181106742D02*
X185236340Y-181201980D01*
X185236340Y-181201980D02*
X185045864Y-181297219D01*
X185045864Y-181297219D02*
X184379197Y-181297219D01*
X186188721Y-181011504D02*
X186664911Y-182344838D01*
X187141102Y-181011504D02*
X186664911Y-182344838D01*
X186664911Y-182344838D02*
X186474435Y-182821028D01*
X186474435Y-182821028D02*
X186379197Y-182916266D01*
X186379197Y-182916266D02*
X186188721Y-183011504D01*
X187903007Y-182154361D02*
X187998245Y-182249600D01*
X187998245Y-182249600D02*
X187903007Y-182344838D01*
X187903007Y-182344838D02*
X187807769Y-182249600D01*
X187807769Y-182249600D02*
X187903007Y-182154361D01*
X187903007Y-182154361D02*
X187903007Y-182344838D01*
X187903007Y-181106742D02*
X187998245Y-181201980D01*
X187998245Y-181201980D02*
X187903007Y-181297219D01*
X187903007Y-181297219D02*
X187807769Y-181201980D01*
X187807769Y-181201980D02*
X187903007Y-181106742D01*
X187903007Y-181106742D02*
X187903007Y-181297219D01*
X190379198Y-182344838D02*
X190379198Y-180344838D01*
X191331579Y-182344838D02*
X191331579Y-181011504D01*
X191331579Y-181201980D02*
X191426817Y-181106742D01*
X191426817Y-181106742D02*
X191617293Y-181011504D01*
X191617293Y-181011504D02*
X191903008Y-181011504D01*
X191903008Y-181011504D02*
X192093484Y-181106742D01*
X192093484Y-181106742D02*
X192188722Y-181297219D01*
X192188722Y-181297219D02*
X192188722Y-182344838D01*
X192188722Y-181297219D02*
X192283960Y-181106742D01*
X192283960Y-181106742D02*
X192474436Y-181011504D01*
X192474436Y-181011504D02*
X192760150Y-181011504D01*
X192760150Y-181011504D02*
X192950627Y-181106742D01*
X192950627Y-181106742D02*
X193045865Y-181297219D01*
X193045865Y-181297219D02*
X193045865Y-182344838D01*
X194855389Y-182344838D02*
X194855389Y-181297219D01*
X194855389Y-181297219D02*
X194760151Y-181106742D01*
X194760151Y-181106742D02*
X194569675Y-181011504D01*
X194569675Y-181011504D02*
X194188722Y-181011504D01*
X194188722Y-181011504D02*
X193998246Y-181106742D01*
X194855389Y-182249600D02*
X194664913Y-182344838D01*
X194664913Y-182344838D02*
X194188722Y-182344838D01*
X194188722Y-182344838D02*
X193998246Y-182249600D01*
X193998246Y-182249600D02*
X193903008Y-182059123D01*
X193903008Y-182059123D02*
X193903008Y-181868647D01*
X193903008Y-181868647D02*
X193998246Y-181678171D01*
X193998246Y-181678171D02*
X194188722Y-181582933D01*
X194188722Y-181582933D02*
X194664913Y-181582933D01*
X194664913Y-181582933D02*
X194855389Y-181487695D01*
X196664913Y-182344838D02*
X196664913Y-180344838D01*
X196664913Y-182249600D02*
X196474437Y-182344838D01*
X196474437Y-182344838D02*
X196093484Y-182344838D01*
X196093484Y-182344838D02*
X195903008Y-182249600D01*
X195903008Y-182249600D02*
X195807770Y-182154361D01*
X195807770Y-182154361D02*
X195712532Y-181963885D01*
X195712532Y-181963885D02*
X195712532Y-181392457D01*
X195712532Y-181392457D02*
X195807770Y-181201980D01*
X195807770Y-181201980D02*
X195903008Y-181106742D01*
X195903008Y-181106742D02*
X196093484Y-181011504D01*
X196093484Y-181011504D02*
X196474437Y-181011504D01*
X196474437Y-181011504D02*
X196664913Y-181106742D01*
X199141104Y-182344838D02*
X199141104Y-180344838D01*
X200283961Y-182344838D02*
X199426818Y-181201980D01*
X200283961Y-180344838D02*
X199141104Y-181487695D01*
X201141104Y-182344838D02*
X201141104Y-180344838D01*
X201998247Y-182344838D02*
X201998247Y-181297219D01*
X201998247Y-181297219D02*
X201903009Y-181106742D01*
X201903009Y-181106742D02*
X201712533Y-181011504D01*
X201712533Y-181011504D02*
X201426818Y-181011504D01*
X201426818Y-181011504D02*
X201236342Y-181106742D01*
X201236342Y-181106742D02*
X201141104Y-181201980D01*
X203807771Y-182344838D02*
X203807771Y-181297219D01*
X203807771Y-181297219D02*
X203712533Y-181106742D01*
X203712533Y-181106742D02*
X203522057Y-181011504D01*
X203522057Y-181011504D02*
X203141104Y-181011504D01*
X203141104Y-181011504D02*
X202950628Y-181106742D01*
X203807771Y-182249600D02*
X203617295Y-182344838D01*
X203617295Y-182344838D02*
X203141104Y-182344838D01*
X203141104Y-182344838D02*
X202950628Y-182249600D01*
X202950628Y-182249600D02*
X202855390Y-182059123D01*
X202855390Y-182059123D02*
X202855390Y-181868647D01*
X202855390Y-181868647D02*
X202950628Y-181678171D01*
X202950628Y-181678171D02*
X203141104Y-181582933D01*
X203141104Y-181582933D02*
X203617295Y-181582933D01*
X203617295Y-181582933D02*
X203807771Y-181487695D01*
X204760152Y-181011504D02*
X204760152Y-182344838D01*
X204760152Y-181201980D02*
X204855390Y-181106742D01*
X204855390Y-181106742D02*
X205045866Y-181011504D01*
X205045866Y-181011504D02*
X205331581Y-181011504D01*
X205331581Y-181011504D02*
X205522057Y-181106742D01*
X205522057Y-181106742D02*
X205617295Y-181297219D01*
X205617295Y-181297219D02*
X205617295Y-182344838D01*
D13*
X94609819Y-166287857D02*
X94133628Y-166621190D01*
X94609819Y-166859285D02*
X93609819Y-166859285D01*
X93609819Y-166859285D02*
X93609819Y-166478333D01*
X93609819Y-166478333D02*
X93657438Y-166383095D01*
X93657438Y-166383095D02*
X93705057Y-166335476D01*
X93705057Y-166335476D02*
X93800295Y-166287857D01*
X93800295Y-166287857D02*
X93943152Y-166287857D01*
X93943152Y-166287857D02*
X94038390Y-166335476D01*
X94038390Y-166335476D02*
X94086009Y-166383095D01*
X94086009Y-166383095D02*
X94133628Y-166478333D01*
X94133628Y-166478333D02*
X94133628Y-166859285D01*
X94609819Y-165335476D02*
X94609819Y-165906904D01*
X94609819Y-165621190D02*
X93609819Y-165621190D01*
X93609819Y-165621190D02*
X93752676Y-165716428D01*
X93752676Y-165716428D02*
X93847914Y-165811666D01*
X93847914Y-165811666D02*
X93895533Y-165906904D01*
X93609819Y-164716428D02*
X93609819Y-164621190D01*
X93609819Y-164621190D02*
X93657438Y-164525952D01*
X93657438Y-164525952D02*
X93705057Y-164478333D01*
X93705057Y-164478333D02*
X93800295Y-164430714D01*
X93800295Y-164430714D02*
X93990771Y-164383095D01*
X93990771Y-164383095D02*
X94228866Y-164383095D01*
X94228866Y-164383095D02*
X94419342Y-164430714D01*
X94419342Y-164430714D02*
X94514580Y-164478333D01*
X94514580Y-164478333D02*
X94562200Y-164525952D01*
X94562200Y-164525952D02*
X94609819Y-164621190D01*
X94609819Y-164621190D02*
X94609819Y-164716428D01*
X94609819Y-164716428D02*
X94562200Y-164811666D01*
X94562200Y-164811666D02*
X94514580Y-164859285D01*
X94514580Y-164859285D02*
X94419342Y-164906904D01*
X94419342Y-164906904D02*
X94228866Y-164954523D01*
X94228866Y-164954523D02*
X93990771Y-164954523D01*
X93990771Y-164954523D02*
X93800295Y-164906904D01*
X93800295Y-164906904D02*
X93705057Y-164859285D01*
X93705057Y-164859285D02*
X93657438Y-164811666D01*
X93657438Y-164811666D02*
X93609819Y-164716428D01*
X79709245Y-156063669D02*
X79709245Y-156873192D01*
X79709245Y-156873192D02*
X79756864Y-156968430D01*
X79756864Y-156968430D02*
X79804483Y-157016050D01*
X79804483Y-157016050D02*
X79899721Y-157063669D01*
X79899721Y-157063669D02*
X80090197Y-157063669D01*
X80090197Y-157063669D02*
X80185435Y-157016050D01*
X80185435Y-157016050D02*
X80233054Y-156968430D01*
X80233054Y-156968430D02*
X80280673Y-156873192D01*
X80280673Y-156873192D02*
X80280673Y-156063669D01*
X80899721Y-156492240D02*
X80804483Y-156444621D01*
X80804483Y-156444621D02*
X80756864Y-156397002D01*
X80756864Y-156397002D02*
X80709245Y-156301764D01*
X80709245Y-156301764D02*
X80709245Y-156254145D01*
X80709245Y-156254145D02*
X80756864Y-156158907D01*
X80756864Y-156158907D02*
X80804483Y-156111288D01*
X80804483Y-156111288D02*
X80899721Y-156063669D01*
X80899721Y-156063669D02*
X81090197Y-156063669D01*
X81090197Y-156063669D02*
X81185435Y-156111288D01*
X81185435Y-156111288D02*
X81233054Y-156158907D01*
X81233054Y-156158907D02*
X81280673Y-156254145D01*
X81280673Y-156254145D02*
X81280673Y-156301764D01*
X81280673Y-156301764D02*
X81233054Y-156397002D01*
X81233054Y-156397002D02*
X81185435Y-156444621D01*
X81185435Y-156444621D02*
X81090197Y-156492240D01*
X81090197Y-156492240D02*
X80899721Y-156492240D01*
X80899721Y-156492240D02*
X80804483Y-156539859D01*
X80804483Y-156539859D02*
X80756864Y-156587478D01*
X80756864Y-156587478D02*
X80709245Y-156682716D01*
X80709245Y-156682716D02*
X80709245Y-156873192D01*
X80709245Y-156873192D02*
X80756864Y-156968430D01*
X80756864Y-156968430D02*
X80804483Y-157016050D01*
X80804483Y-157016050D02*
X80899721Y-157063669D01*
X80899721Y-157063669D02*
X81090197Y-157063669D01*
X81090197Y-157063669D02*
X81185435Y-157016050D01*
X81185435Y-157016050D02*
X81233054Y-156968430D01*
X81233054Y-156968430D02*
X81280673Y-156873192D01*
X81280673Y-156873192D02*
X81280673Y-156682716D01*
X81280673Y-156682716D02*
X81233054Y-156587478D01*
X81233054Y-156587478D02*
X81185435Y-156539859D01*
X81185435Y-156539859D02*
X81090197Y-156492240D01*
X77471150Y-158021269D02*
X77471150Y-158259364D01*
X77233055Y-158164126D02*
X77471150Y-158259364D01*
X77471150Y-158259364D02*
X77709245Y-158164126D01*
X77328293Y-158449840D02*
X77471150Y-158259364D01*
X77471150Y-158259364D02*
X77614007Y-158449840D01*
X78471150Y-158021269D02*
X78471150Y-158259364D01*
X78233055Y-158164126D02*
X78471150Y-158259364D01*
X78471150Y-158259364D02*
X78709245Y-158164126D01*
X78328293Y-158449840D02*
X78471150Y-158259364D01*
X78471150Y-158259364D02*
X78614007Y-158449840D01*
D14*
X190641676Y-152121310D02*
X189473276Y-152121310D01*
X189473276Y-152121310D02*
X190641676Y-151453653D01*
X190641676Y-151453653D02*
X189473276Y-151453653D01*
X189473276Y-151008548D02*
X190641676Y-150229615D01*
X189473276Y-150229615D02*
X190641676Y-151008548D01*
X189473276Y-149895786D02*
X189473276Y-149172491D01*
X189473276Y-149172491D02*
X189918380Y-149561958D01*
X189918380Y-149561958D02*
X189918380Y-149395043D01*
X189918380Y-149395043D02*
X189974018Y-149283767D01*
X189974018Y-149283767D02*
X190029657Y-149228129D01*
X190029657Y-149228129D02*
X190140933Y-149172491D01*
X190140933Y-149172491D02*
X190419123Y-149172491D01*
X190419123Y-149172491D02*
X190530399Y-149228129D01*
X190530399Y-149228129D02*
X190586038Y-149283767D01*
X190586038Y-149283767D02*
X190641676Y-149395043D01*
X190641676Y-149395043D02*
X190641676Y-149728872D01*
X190641676Y-149728872D02*
X190586038Y-149840148D01*
X190586038Y-149840148D02*
X190530399Y-149895786D01*
D13*
X199207200Y-83161904D02*
X199254819Y-83019047D01*
X199254819Y-83019047D02*
X199254819Y-82780952D01*
X199254819Y-82780952D02*
X199207200Y-82685714D01*
X199207200Y-82685714D02*
X199159580Y-82638095D01*
X199159580Y-82638095D02*
X199064342Y-82590476D01*
X199064342Y-82590476D02*
X198969104Y-82590476D01*
X198969104Y-82590476D02*
X198873866Y-82638095D01*
X198873866Y-82638095D02*
X198826247Y-82685714D01*
X198826247Y-82685714D02*
X198778628Y-82780952D01*
X198778628Y-82780952D02*
X198731009Y-82971428D01*
X198731009Y-82971428D02*
X198683390Y-83066666D01*
X198683390Y-83066666D02*
X198635771Y-83114285D01*
X198635771Y-83114285D02*
X198540533Y-83161904D01*
X198540533Y-83161904D02*
X198445295Y-83161904D01*
X198445295Y-83161904D02*
X198350057Y-83114285D01*
X198350057Y-83114285D02*
X198302438Y-83066666D01*
X198302438Y-83066666D02*
X198254819Y-82971428D01*
X198254819Y-82971428D02*
X198254819Y-82733333D01*
X198254819Y-82733333D02*
X198302438Y-82590476D01*
X198350057Y-82209523D02*
X198302438Y-82161904D01*
X198302438Y-82161904D02*
X198254819Y-82066666D01*
X198254819Y-82066666D02*
X198254819Y-81828571D01*
X198254819Y-81828571D02*
X198302438Y-81733333D01*
X198302438Y-81733333D02*
X198350057Y-81685714D01*
X198350057Y-81685714D02*
X198445295Y-81638095D01*
X198445295Y-81638095D02*
X198540533Y-81638095D01*
X198540533Y-81638095D02*
X198683390Y-81685714D01*
X198683390Y-81685714D02*
X199254819Y-82257142D01*
X199254819Y-82257142D02*
X199254819Y-81638095D01*
X256466666Y-111854819D02*
X256466666Y-112569104D01*
X256466666Y-112569104D02*
X256419047Y-112711961D01*
X256419047Y-112711961D02*
X256323809Y-112807200D01*
X256323809Y-112807200D02*
X256180952Y-112854819D01*
X256180952Y-112854819D02*
X256085714Y-112854819D01*
X256847619Y-111854819D02*
X257514285Y-111854819D01*
X257514285Y-111854819D02*
X257085714Y-112854819D01*
X255800000Y-117254819D02*
X255800000Y-117492914D01*
X255561905Y-117397676D02*
X255800000Y-117492914D01*
X255800000Y-117492914D02*
X256038095Y-117397676D01*
X255657143Y-117683390D02*
X255800000Y-117492914D01*
X255800000Y-117492914D02*
X255942857Y-117683390D01*
X256800000Y-117254819D02*
X256800000Y-117492914D01*
X256561905Y-117397676D02*
X256800000Y-117492914D01*
X256800000Y-117492914D02*
X257038095Y-117397676D01*
X256657143Y-117683390D02*
X256800000Y-117492914D01*
X256800000Y-117492914D02*
X256942857Y-117683390D01*
X88555969Y-167275516D02*
X88079778Y-167608849D01*
X88555969Y-167846944D02*
X87555969Y-167846944D01*
X87555969Y-167846944D02*
X87555969Y-167465992D01*
X87555969Y-167465992D02*
X87603588Y-167370754D01*
X87603588Y-167370754D02*
X87651207Y-167323135D01*
X87651207Y-167323135D02*
X87746445Y-167275516D01*
X87746445Y-167275516D02*
X87889302Y-167275516D01*
X87889302Y-167275516D02*
X87984540Y-167323135D01*
X87984540Y-167323135D02*
X88032159Y-167370754D01*
X88032159Y-167370754D02*
X88079778Y-167465992D01*
X88079778Y-167465992D02*
X88079778Y-167846944D01*
X88555969Y-166323135D02*
X88555969Y-166894563D01*
X88555969Y-166608849D02*
X87555969Y-166608849D01*
X87555969Y-166608849D02*
X87698826Y-166704087D01*
X87698826Y-166704087D02*
X87794064Y-166799325D01*
X87794064Y-166799325D02*
X87841683Y-166894563D01*
X225666666Y-112054819D02*
X225666666Y-112769104D01*
X225666666Y-112769104D02*
X225619047Y-112911961D01*
X225619047Y-112911961D02*
X225523809Y-113007200D01*
X225523809Y-113007200D02*
X225380952Y-113054819D01*
X225380952Y-113054819D02*
X225285714Y-113054819D01*
X226571428Y-112054819D02*
X226380952Y-112054819D01*
X226380952Y-112054819D02*
X226285714Y-112102438D01*
X226285714Y-112102438D02*
X226238095Y-112150057D01*
X226238095Y-112150057D02*
X226142857Y-112292914D01*
X226142857Y-112292914D02*
X226095238Y-112483390D01*
X226095238Y-112483390D02*
X226095238Y-112864342D01*
X226095238Y-112864342D02*
X226142857Y-112959580D01*
X226142857Y-112959580D02*
X226190476Y-113007200D01*
X226190476Y-113007200D02*
X226285714Y-113054819D01*
X226285714Y-113054819D02*
X226476190Y-113054819D01*
X226476190Y-113054819D02*
X226571428Y-113007200D01*
X226571428Y-113007200D02*
X226619047Y-112959580D01*
X226619047Y-112959580D02*
X226666666Y-112864342D01*
X226666666Y-112864342D02*
X226666666Y-112626247D01*
X226666666Y-112626247D02*
X226619047Y-112531009D01*
X226619047Y-112531009D02*
X226571428Y-112483390D01*
X226571428Y-112483390D02*
X226476190Y-112435771D01*
X226476190Y-112435771D02*
X226285714Y-112435771D01*
X226285714Y-112435771D02*
X226190476Y-112483390D01*
X226190476Y-112483390D02*
X226142857Y-112531009D01*
X226142857Y-112531009D02*
X226095238Y-112626247D01*
X226729999Y-133705180D02*
X226729999Y-133467085D01*
X226968094Y-133562323D02*
X226729999Y-133467085D01*
X226729999Y-133467085D02*
X226491904Y-133562323D01*
X226872856Y-133276609D02*
X226729999Y-133467085D01*
X226729999Y-133467085D02*
X226587142Y-133276609D01*
X227530000Y-132414819D02*
X227530000Y-132652914D01*
X227291905Y-132557676D02*
X227530000Y-132652914D01*
X227530000Y-132652914D02*
X227768095Y-132557676D01*
X227387143Y-132843390D02*
X227530000Y-132652914D01*
X227530000Y-132652914D02*
X227672857Y-132843390D01*
X86494483Y-102278430D02*
X86446864Y-102326050D01*
X86446864Y-102326050D02*
X86304007Y-102373669D01*
X86304007Y-102373669D02*
X86208769Y-102373669D01*
X86208769Y-102373669D02*
X86065912Y-102326050D01*
X86065912Y-102326050D02*
X85970674Y-102230811D01*
X85970674Y-102230811D02*
X85923055Y-102135573D01*
X85923055Y-102135573D02*
X85875436Y-101945097D01*
X85875436Y-101945097D02*
X85875436Y-101802240D01*
X85875436Y-101802240D02*
X85923055Y-101611764D01*
X85923055Y-101611764D02*
X85970674Y-101516526D01*
X85970674Y-101516526D02*
X86065912Y-101421288D01*
X86065912Y-101421288D02*
X86208769Y-101373669D01*
X86208769Y-101373669D02*
X86304007Y-101373669D01*
X86304007Y-101373669D02*
X86446864Y-101421288D01*
X86446864Y-101421288D02*
X86494483Y-101468907D01*
X86827817Y-101373669D02*
X87494483Y-101373669D01*
X87494483Y-101373669D02*
X87065912Y-102373669D01*
X90304483Y-179968430D02*
X90256864Y-180016050D01*
X90256864Y-180016050D02*
X90114007Y-180063669D01*
X90114007Y-180063669D02*
X90018769Y-180063669D01*
X90018769Y-180063669D02*
X89875912Y-180016050D01*
X89875912Y-180016050D02*
X89780674Y-179920811D01*
X89780674Y-179920811D02*
X89733055Y-179825573D01*
X89733055Y-179825573D02*
X89685436Y-179635097D01*
X89685436Y-179635097D02*
X89685436Y-179492240D01*
X89685436Y-179492240D02*
X89733055Y-179301764D01*
X89733055Y-179301764D02*
X89780674Y-179206526D01*
X89780674Y-179206526D02*
X89875912Y-179111288D01*
X89875912Y-179111288D02*
X90018769Y-179063669D01*
X90018769Y-179063669D02*
X90114007Y-179063669D01*
X90114007Y-179063669D02*
X90256864Y-179111288D01*
X90256864Y-179111288D02*
X90304483Y-179158907D01*
X91161626Y-179397002D02*
X91161626Y-180063669D01*
X90923531Y-179016050D02*
X90685436Y-179730335D01*
X90685436Y-179730335D02*
X91304483Y-179730335D01*
X73494483Y-106468430D02*
X73446864Y-106516050D01*
X73446864Y-106516050D02*
X73304007Y-106563669D01*
X73304007Y-106563669D02*
X73208769Y-106563669D01*
X73208769Y-106563669D02*
X73065912Y-106516050D01*
X73065912Y-106516050D02*
X72970674Y-106420811D01*
X72970674Y-106420811D02*
X72923055Y-106325573D01*
X72923055Y-106325573D02*
X72875436Y-106135097D01*
X72875436Y-106135097D02*
X72875436Y-105992240D01*
X72875436Y-105992240D02*
X72923055Y-105801764D01*
X72923055Y-105801764D02*
X72970674Y-105706526D01*
X72970674Y-105706526D02*
X73065912Y-105611288D01*
X73065912Y-105611288D02*
X73208769Y-105563669D01*
X73208769Y-105563669D02*
X73304007Y-105563669D01*
X73304007Y-105563669D02*
X73446864Y-105611288D01*
X73446864Y-105611288D02*
X73494483Y-105658907D01*
X74399245Y-105563669D02*
X73923055Y-105563669D01*
X73923055Y-105563669D02*
X73875436Y-106039859D01*
X73875436Y-106039859D02*
X73923055Y-105992240D01*
X73923055Y-105992240D02*
X74018293Y-105944621D01*
X74018293Y-105944621D02*
X74256388Y-105944621D01*
X74256388Y-105944621D02*
X74351626Y-105992240D01*
X74351626Y-105992240D02*
X74399245Y-106039859D01*
X74399245Y-106039859D02*
X74446864Y-106135097D01*
X74446864Y-106135097D02*
X74446864Y-106373192D01*
X74446864Y-106373192D02*
X74399245Y-106468430D01*
X74399245Y-106468430D02*
X74351626Y-106516050D01*
X74351626Y-106516050D02*
X74256388Y-106563669D01*
X74256388Y-106563669D02*
X74018293Y-106563669D01*
X74018293Y-106563669D02*
X73923055Y-106516050D01*
X73923055Y-106516050D02*
X73875436Y-106468430D01*
X85709245Y-118563669D02*
X85709245Y-119373192D01*
X85709245Y-119373192D02*
X85756864Y-119468430D01*
X85756864Y-119468430D02*
X85804483Y-119516050D01*
X85804483Y-119516050D02*
X85899721Y-119563669D01*
X85899721Y-119563669D02*
X86090197Y-119563669D01*
X86090197Y-119563669D02*
X86185435Y-119516050D01*
X86185435Y-119516050D02*
X86233054Y-119468430D01*
X86233054Y-119468430D02*
X86280673Y-119373192D01*
X86280673Y-119373192D02*
X86280673Y-118563669D01*
X86661626Y-118563669D02*
X87328292Y-118563669D01*
X87328292Y-118563669D02*
X86899721Y-119563669D01*
X84471150Y-108063669D02*
X84471150Y-108301764D01*
X84233055Y-108206526D02*
X84471150Y-108301764D01*
X84471150Y-108301764D02*
X84709245Y-108206526D01*
X84328293Y-108492240D02*
X84471150Y-108301764D01*
X84471150Y-108301764D02*
X84614007Y-108492240D01*
X85471150Y-108063669D02*
X85471150Y-108301764D01*
X85233055Y-108206526D02*
X85471150Y-108301764D01*
X85471150Y-108301764D02*
X85709245Y-108206526D01*
X85328293Y-108492240D02*
X85471150Y-108301764D01*
X85471150Y-108301764D02*
X85614007Y-108492240D01*
X125827816Y-111974819D02*
X125827816Y-112689104D01*
X125827816Y-112689104D02*
X125780197Y-112831961D01*
X125780197Y-112831961D02*
X125684959Y-112927200D01*
X125684959Y-112927200D02*
X125542102Y-112974819D01*
X125542102Y-112974819D02*
X125446864Y-112974819D01*
X126256388Y-112070057D02*
X126304007Y-112022438D01*
X126304007Y-112022438D02*
X126399245Y-111974819D01*
X126399245Y-111974819D02*
X126637340Y-111974819D01*
X126637340Y-111974819D02*
X126732578Y-112022438D01*
X126732578Y-112022438D02*
X126780197Y-112070057D01*
X126780197Y-112070057D02*
X126827816Y-112165295D01*
X126827816Y-112165295D02*
X126827816Y-112260533D01*
X126827816Y-112260533D02*
X126780197Y-112403390D01*
X126780197Y-112403390D02*
X126208769Y-112974819D01*
X126208769Y-112974819D02*
X126827816Y-112974819D01*
X125999999Y-117945180D02*
X125999999Y-117707085D01*
X126238094Y-117802323D02*
X125999999Y-117707085D01*
X125999999Y-117707085D02*
X125761904Y-117802323D01*
X126142856Y-117516609D02*
X125999999Y-117707085D01*
X125999999Y-117707085D02*
X125857142Y-117516609D01*
X126928850Y-117434819D02*
X126928850Y-117672914D01*
X126690755Y-117577676D02*
X126928850Y-117672914D01*
X126928850Y-117672914D02*
X127166945Y-117577676D01*
X126785993Y-117863390D02*
X126928850Y-117672914D01*
X126928850Y-117672914D02*
X127071707Y-117863390D01*
D14*
X141641676Y-152121310D02*
X140473276Y-152121310D01*
X140473276Y-152121310D02*
X141641676Y-151453653D01*
X141641676Y-151453653D02*
X140473276Y-151453653D01*
X140473276Y-151008548D02*
X141641676Y-150229615D01*
X140473276Y-150229615D02*
X141641676Y-151008548D01*
X141641676Y-149172491D02*
X141641676Y-149840148D01*
X141641676Y-149506320D02*
X140473276Y-149506320D01*
X140473276Y-149506320D02*
X140640190Y-149617596D01*
X140640190Y-149617596D02*
X140751466Y-149728872D01*
X140751466Y-149728872D02*
X140807104Y-149840148D01*
D15*
X80350197Y-149304120D02*
X80229245Y-149243644D01*
X80229245Y-149243644D02*
X80108292Y-149122692D01*
X80108292Y-149122692D02*
X79926864Y-148941263D01*
X79926864Y-148941263D02*
X79805911Y-148880787D01*
X79805911Y-148880787D02*
X79684959Y-148880787D01*
X79745435Y-149183168D02*
X79624483Y-149122692D01*
X79624483Y-149122692D02*
X79503530Y-149001739D01*
X79503530Y-149001739D02*
X79443054Y-148759834D01*
X79443054Y-148759834D02*
X79443054Y-148336501D01*
X79443054Y-148336501D02*
X79503530Y-148094596D01*
X79503530Y-148094596D02*
X79624483Y-147973644D01*
X79624483Y-147973644D02*
X79745435Y-147913168D01*
X79745435Y-147913168D02*
X79987340Y-147913168D01*
X79987340Y-147913168D02*
X80108292Y-147973644D01*
X80108292Y-147973644D02*
X80229245Y-148094596D01*
X80229245Y-148094596D02*
X80289721Y-148336501D01*
X80289721Y-148336501D02*
X80289721Y-148759834D01*
X80289721Y-148759834D02*
X80229245Y-149001739D01*
X80229245Y-149001739D02*
X80108292Y-149122692D01*
X80108292Y-149122692D02*
X79987340Y-149183168D01*
X79987340Y-149183168D02*
X79745435Y-149183168D01*
X81499245Y-149183168D02*
X80773530Y-149183168D01*
X81136387Y-149183168D02*
X81136387Y-147913168D01*
X81136387Y-147913168D02*
X81015435Y-148094596D01*
X81015435Y-148094596D02*
X80894483Y-148215549D01*
X80894483Y-148215549D02*
X80773530Y-148276025D01*
D13*
X250233333Y-163884819D02*
X249900000Y-163408628D01*
X249661905Y-163884819D02*
X249661905Y-162884819D01*
X249661905Y-162884819D02*
X250042857Y-162884819D01*
X250042857Y-162884819D02*
X250138095Y-162932438D01*
X250138095Y-162932438D02*
X250185714Y-162980057D01*
X250185714Y-162980057D02*
X250233333Y-163075295D01*
X250233333Y-163075295D02*
X250233333Y-163218152D01*
X250233333Y-163218152D02*
X250185714Y-163313390D01*
X250185714Y-163313390D02*
X250138095Y-163361009D01*
X250138095Y-163361009D02*
X250042857Y-163408628D01*
X250042857Y-163408628D02*
X249661905Y-163408628D01*
X250709524Y-163884819D02*
X250900000Y-163884819D01*
X250900000Y-163884819D02*
X250995238Y-163837200D01*
X250995238Y-163837200D02*
X251042857Y-163789580D01*
X251042857Y-163789580D02*
X251138095Y-163646723D01*
X251138095Y-163646723D02*
X251185714Y-163456247D01*
X251185714Y-163456247D02*
X251185714Y-163075295D01*
X251185714Y-163075295D02*
X251138095Y-162980057D01*
X251138095Y-162980057D02*
X251090476Y-162932438D01*
X251090476Y-162932438D02*
X250995238Y-162884819D01*
X250995238Y-162884819D02*
X250804762Y-162884819D01*
X250804762Y-162884819D02*
X250709524Y-162932438D01*
X250709524Y-162932438D02*
X250661905Y-162980057D01*
X250661905Y-162980057D02*
X250614286Y-163075295D01*
X250614286Y-163075295D02*
X250614286Y-163313390D01*
X250614286Y-163313390D02*
X250661905Y-163408628D01*
X250661905Y-163408628D02*
X250709524Y-163456247D01*
X250709524Y-163456247D02*
X250804762Y-163503866D01*
X250804762Y-163503866D02*
X250995238Y-163503866D01*
X250995238Y-163503866D02*
X251090476Y-163456247D01*
X251090476Y-163456247D02*
X251138095Y-163408628D01*
X251138095Y-163408628D02*
X251185714Y-163313390D01*
X177807200Y-83361904D02*
X177854819Y-83219047D01*
X177854819Y-83219047D02*
X177854819Y-82980952D01*
X177854819Y-82980952D02*
X177807200Y-82885714D01*
X177807200Y-82885714D02*
X177759580Y-82838095D01*
X177759580Y-82838095D02*
X177664342Y-82790476D01*
X177664342Y-82790476D02*
X177569104Y-82790476D01*
X177569104Y-82790476D02*
X177473866Y-82838095D01*
X177473866Y-82838095D02*
X177426247Y-82885714D01*
X177426247Y-82885714D02*
X177378628Y-82980952D01*
X177378628Y-82980952D02*
X177331009Y-83171428D01*
X177331009Y-83171428D02*
X177283390Y-83266666D01*
X177283390Y-83266666D02*
X177235771Y-83314285D01*
X177235771Y-83314285D02*
X177140533Y-83361904D01*
X177140533Y-83361904D02*
X177045295Y-83361904D01*
X177045295Y-83361904D02*
X176950057Y-83314285D01*
X176950057Y-83314285D02*
X176902438Y-83266666D01*
X176902438Y-83266666D02*
X176854819Y-83171428D01*
X176854819Y-83171428D02*
X176854819Y-82933333D01*
X176854819Y-82933333D02*
X176902438Y-82790476D01*
X177854819Y-81838095D02*
X177854819Y-82409523D01*
X177854819Y-82123809D02*
X176854819Y-82123809D01*
X176854819Y-82123809D02*
X176997676Y-82219047D01*
X176997676Y-82219047D02*
X177092914Y-82314285D01*
X177092914Y-82314285D02*
X177140533Y-82409523D01*
X90304483Y-159968430D02*
X90256864Y-160016050D01*
X90256864Y-160016050D02*
X90114007Y-160063669D01*
X90114007Y-160063669D02*
X90018769Y-160063669D01*
X90018769Y-160063669D02*
X89875912Y-160016050D01*
X89875912Y-160016050D02*
X89780674Y-159920811D01*
X89780674Y-159920811D02*
X89733055Y-159825573D01*
X89733055Y-159825573D02*
X89685436Y-159635097D01*
X89685436Y-159635097D02*
X89685436Y-159492240D01*
X89685436Y-159492240D02*
X89733055Y-159301764D01*
X89733055Y-159301764D02*
X89780674Y-159206526D01*
X89780674Y-159206526D02*
X89875912Y-159111288D01*
X89875912Y-159111288D02*
X90018769Y-159063669D01*
X90018769Y-159063669D02*
X90114007Y-159063669D01*
X90114007Y-159063669D02*
X90256864Y-159111288D01*
X90256864Y-159111288D02*
X90304483Y-159158907D01*
X90637817Y-159063669D02*
X91256864Y-159063669D01*
X91256864Y-159063669D02*
X90923531Y-159444621D01*
X90923531Y-159444621D02*
X91066388Y-159444621D01*
X91066388Y-159444621D02*
X91161626Y-159492240D01*
X91161626Y-159492240D02*
X91209245Y-159539859D01*
X91209245Y-159539859D02*
X91256864Y-159635097D01*
X91256864Y-159635097D02*
X91256864Y-159873192D01*
X91256864Y-159873192D02*
X91209245Y-159968430D01*
X91209245Y-159968430D02*
X91161626Y-160016050D01*
X91161626Y-160016050D02*
X91066388Y-160063669D01*
X91066388Y-160063669D02*
X90780674Y-160063669D01*
X90780674Y-160063669D02*
X90685436Y-160016050D01*
X90685436Y-160016050D02*
X90637817Y-159968430D01*
X78364483Y-187508430D02*
X78316864Y-187556050D01*
X78316864Y-187556050D02*
X78174007Y-187603669D01*
X78174007Y-187603669D02*
X78078769Y-187603669D01*
X78078769Y-187603669D02*
X77935912Y-187556050D01*
X77935912Y-187556050D02*
X77840674Y-187460811D01*
X77840674Y-187460811D02*
X77793055Y-187365573D01*
X77793055Y-187365573D02*
X77745436Y-187175097D01*
X77745436Y-187175097D02*
X77745436Y-187032240D01*
X77745436Y-187032240D02*
X77793055Y-186841764D01*
X77793055Y-186841764D02*
X77840674Y-186746526D01*
X77840674Y-186746526D02*
X77935912Y-186651288D01*
X77935912Y-186651288D02*
X78078769Y-186603669D01*
X78078769Y-186603669D02*
X78174007Y-186603669D01*
X78174007Y-186603669D02*
X78316864Y-186651288D01*
X78316864Y-186651288D02*
X78364483Y-186698907D01*
X79316864Y-187603669D02*
X78745436Y-187603669D01*
X79031150Y-187603669D02*
X79031150Y-186603669D01*
X79031150Y-186603669D02*
X78935912Y-186746526D01*
X78935912Y-186746526D02*
X78840674Y-186841764D01*
X78840674Y-186841764D02*
X78745436Y-186889383D01*
X92781233Y-142968430D02*
X92733614Y-143016050D01*
X92733614Y-143016050D02*
X92590757Y-143063669D01*
X92590757Y-143063669D02*
X92495519Y-143063669D01*
X92495519Y-143063669D02*
X92352662Y-143016050D01*
X92352662Y-143016050D02*
X92257424Y-142920811D01*
X92257424Y-142920811D02*
X92209805Y-142825573D01*
X92209805Y-142825573D02*
X92162186Y-142635097D01*
X92162186Y-142635097D02*
X92162186Y-142492240D01*
X92162186Y-142492240D02*
X92209805Y-142301764D01*
X92209805Y-142301764D02*
X92257424Y-142206526D01*
X92257424Y-142206526D02*
X92352662Y-142111288D01*
X92352662Y-142111288D02*
X92495519Y-142063669D01*
X92495519Y-142063669D02*
X92590757Y-142063669D01*
X92590757Y-142063669D02*
X92733614Y-142111288D01*
X92733614Y-142111288D02*
X92781233Y-142158907D01*
X93162186Y-142158907D02*
X93209805Y-142111288D01*
X93209805Y-142111288D02*
X93305043Y-142063669D01*
X93305043Y-142063669D02*
X93543138Y-142063669D01*
X93543138Y-142063669D02*
X93638376Y-142111288D01*
X93638376Y-142111288D02*
X93685995Y-142158907D01*
X93685995Y-142158907D02*
X93733614Y-142254145D01*
X93733614Y-142254145D02*
X93733614Y-142349383D01*
X93733614Y-142349383D02*
X93685995Y-142492240D01*
X93685995Y-142492240D02*
X93114567Y-143063669D01*
X93114567Y-143063669D02*
X93733614Y-143063669D01*
X95304483Y-119873669D02*
X94828293Y-119873669D01*
X94828293Y-119873669D02*
X94828293Y-118873669D01*
X95590198Y-118968907D02*
X95637817Y-118921288D01*
X95637817Y-118921288D02*
X95733055Y-118873669D01*
X95733055Y-118873669D02*
X95971150Y-118873669D01*
X95971150Y-118873669D02*
X96066388Y-118921288D01*
X96066388Y-118921288D02*
X96114007Y-118968907D01*
X96114007Y-118968907D02*
X96161626Y-119064145D01*
X96161626Y-119064145D02*
X96161626Y-119159383D01*
X96161626Y-119159383D02*
X96114007Y-119302240D01*
X96114007Y-119302240D02*
X95542579Y-119873669D01*
X95542579Y-119873669D02*
X96161626Y-119873669D01*
X73605969Y-176815516D02*
X73129778Y-177148849D01*
X73605969Y-177386944D02*
X72605969Y-177386944D01*
X72605969Y-177386944D02*
X72605969Y-177005992D01*
X72605969Y-177005992D02*
X72653588Y-176910754D01*
X72653588Y-176910754D02*
X72701207Y-176863135D01*
X72701207Y-176863135D02*
X72796445Y-176815516D01*
X72796445Y-176815516D02*
X72939302Y-176815516D01*
X72939302Y-176815516D02*
X73034540Y-176863135D01*
X73034540Y-176863135D02*
X73082159Y-176910754D01*
X73082159Y-176910754D02*
X73129778Y-177005992D01*
X73129778Y-177005992D02*
X73129778Y-177386944D01*
X72701207Y-176434563D02*
X72653588Y-176386944D01*
X72653588Y-176386944D02*
X72605969Y-176291706D01*
X72605969Y-176291706D02*
X72605969Y-176053611D01*
X72605969Y-176053611D02*
X72653588Y-175958373D01*
X72653588Y-175958373D02*
X72701207Y-175910754D01*
X72701207Y-175910754D02*
X72796445Y-175863135D01*
X72796445Y-175863135D02*
X72891683Y-175863135D01*
X72891683Y-175863135D02*
X73034540Y-175910754D01*
X73034540Y-175910754D02*
X73605969Y-176482182D01*
X73605969Y-176482182D02*
X73605969Y-175863135D01*
D14*
X161641676Y-152121310D02*
X160473276Y-152121310D01*
X160473276Y-152121310D02*
X161641676Y-151453653D01*
X161641676Y-151453653D02*
X160473276Y-151453653D01*
X160473276Y-151008548D02*
X161641676Y-150229615D01*
X160473276Y-150229615D02*
X161641676Y-151008548D01*
X160584552Y-149840148D02*
X160528914Y-149784510D01*
X160528914Y-149784510D02*
X160473276Y-149673234D01*
X160473276Y-149673234D02*
X160473276Y-149395043D01*
X160473276Y-149395043D02*
X160528914Y-149283767D01*
X160528914Y-149283767D02*
X160584552Y-149228129D01*
X160584552Y-149228129D02*
X160695828Y-149172491D01*
X160695828Y-149172491D02*
X160807104Y-149172491D01*
X160807104Y-149172491D02*
X160974018Y-149228129D01*
X160974018Y-149228129D02*
X161641676Y-149895786D01*
X161641676Y-149895786D02*
X161641676Y-149172491D01*
D13*
X140709245Y-112674819D02*
X140709245Y-113484342D01*
X140709245Y-113484342D02*
X140756864Y-113579580D01*
X140756864Y-113579580D02*
X140804483Y-113627200D01*
X140804483Y-113627200D02*
X140899721Y-113674819D01*
X140899721Y-113674819D02*
X141090197Y-113674819D01*
X141090197Y-113674819D02*
X141185435Y-113627200D01*
X141185435Y-113627200D02*
X141233054Y-113579580D01*
X141233054Y-113579580D02*
X141280673Y-113484342D01*
X141280673Y-113484342D02*
X141280673Y-112674819D01*
X142280673Y-113674819D02*
X141709245Y-113674819D01*
X141994959Y-113674819D02*
X141994959Y-112674819D01*
X141994959Y-112674819D02*
X141899721Y-112817676D01*
X141899721Y-112817676D02*
X141804483Y-112912914D01*
X141804483Y-112912914D02*
X141709245Y-112960533D01*
X144971150Y-133044519D02*
X144971150Y-133282614D01*
X144733055Y-133187376D02*
X144971150Y-133282614D01*
X144971150Y-133282614D02*
X145209245Y-133187376D01*
X144828293Y-133473090D02*
X144971150Y-133282614D01*
X144971150Y-133282614D02*
X145114007Y-133473090D01*
X144971149Y-134134880D02*
X144971149Y-133896785D01*
X145209244Y-133992023D02*
X144971149Y-133896785D01*
X144971149Y-133896785D02*
X144733054Y-133992023D01*
X145114006Y-133706309D02*
X144971149Y-133896785D01*
X144971149Y-133896785D02*
X144828292Y-133706309D01*
X175586666Y-111734819D02*
X175586666Y-112449104D01*
X175586666Y-112449104D02*
X175539047Y-112591961D01*
X175539047Y-112591961D02*
X175443809Y-112687200D01*
X175443809Y-112687200D02*
X175300952Y-112734819D01*
X175300952Y-112734819D02*
X175205714Y-112734819D01*
X176491428Y-112068152D02*
X176491428Y-112734819D01*
X176253333Y-111687200D02*
X176015238Y-112401485D01*
X176015238Y-112401485D02*
X176634285Y-112401485D01*
X177919999Y-133825180D02*
X177919999Y-133587085D01*
X178158094Y-133682323D02*
X177919999Y-133587085D01*
X177919999Y-133587085D02*
X177681904Y-133682323D01*
X178062856Y-133396609D02*
X177919999Y-133587085D01*
X177919999Y-133587085D02*
X177777142Y-133396609D01*
X177920000Y-134234819D02*
X177920000Y-134472914D01*
X177681905Y-134377676D02*
X177920000Y-134472914D01*
X177920000Y-134472914D02*
X178158095Y-134377676D01*
X177777143Y-134663390D02*
X177920000Y-134472914D01*
X177920000Y-134472914D02*
X178062857Y-134663390D01*
D14*
X241170526Y-152121310D02*
X240002126Y-152121310D01*
X240002126Y-152121310D02*
X241170526Y-151453653D01*
X241170526Y-151453653D02*
X240002126Y-151453653D01*
X240002126Y-151008548D02*
X241170526Y-150229615D01*
X240002126Y-150229615D02*
X241170526Y-151008548D01*
X240002126Y-149228129D02*
X240002126Y-149784510D01*
X240002126Y-149784510D02*
X240558507Y-149840148D01*
X240558507Y-149840148D02*
X240502868Y-149784510D01*
X240502868Y-149784510D02*
X240447230Y-149673234D01*
X240447230Y-149673234D02*
X240447230Y-149395043D01*
X240447230Y-149395043D02*
X240502868Y-149283767D01*
X240502868Y-149283767D02*
X240558507Y-149228129D01*
X240558507Y-149228129D02*
X240669783Y-149172491D01*
X240669783Y-149172491D02*
X240947973Y-149172491D01*
X240947973Y-149172491D02*
X241059249Y-149228129D01*
X241059249Y-149228129D02*
X241114888Y-149283767D01*
X241114888Y-149283767D02*
X241170526Y-149395043D01*
X241170526Y-149395043D02*
X241170526Y-149673234D01*
X241170526Y-149673234D02*
X241114888Y-149784510D01*
X241114888Y-149784510D02*
X241059249Y-149840148D01*
D16*
X290478572Y-88649757D02*
X290335715Y-88578328D01*
X290335715Y-88578328D02*
X290121429Y-88578328D01*
X290121429Y-88578328D02*
X289907143Y-88649757D01*
X289907143Y-88649757D02*
X289764286Y-88792614D01*
X289764286Y-88792614D02*
X289692857Y-88935471D01*
X289692857Y-88935471D02*
X289621429Y-89221185D01*
X289621429Y-89221185D02*
X289621429Y-89435471D01*
X289621429Y-89435471D02*
X289692857Y-89721185D01*
X289692857Y-89721185D02*
X289764286Y-89864042D01*
X289764286Y-89864042D02*
X289907143Y-90006900D01*
X289907143Y-90006900D02*
X290121429Y-90078328D01*
X290121429Y-90078328D02*
X290264286Y-90078328D01*
X290264286Y-90078328D02*
X290478572Y-90006900D01*
X290478572Y-90006900D02*
X290550000Y-89935471D01*
X290550000Y-89935471D02*
X290550000Y-89435471D01*
X290550000Y-89435471D02*
X290264286Y-89435471D01*
X291407143Y-88578328D02*
X291407143Y-88935471D01*
X291050000Y-88792614D02*
X291407143Y-88935471D01*
X291407143Y-88935471D02*
X291764286Y-88792614D01*
X291192857Y-89221185D02*
X291407143Y-88935471D01*
X291407143Y-88935471D02*
X291621429Y-89221185D01*
X292550000Y-88578328D02*
X292550000Y-88935471D01*
X292192857Y-88792614D02*
X292550000Y-88935471D01*
X292550000Y-88935471D02*
X292907143Y-88792614D01*
X292335714Y-89221185D02*
X292550000Y-88935471D01*
X292550000Y-88935471D02*
X292764286Y-89221185D01*
X293692857Y-88578328D02*
X293692857Y-88935471D01*
X293335714Y-88792614D02*
X293692857Y-88935471D01*
X293692857Y-88935471D02*
X294050000Y-88792614D01*
X293478571Y-89221185D02*
X293692857Y-88935471D01*
X293692857Y-88935471D02*
X293907143Y-89221185D01*
D13*
X220607200Y-83161904D02*
X220654819Y-83019047D01*
X220654819Y-83019047D02*
X220654819Y-82780952D01*
X220654819Y-82780952D02*
X220607200Y-82685714D01*
X220607200Y-82685714D02*
X220559580Y-82638095D01*
X220559580Y-82638095D02*
X220464342Y-82590476D01*
X220464342Y-82590476D02*
X220369104Y-82590476D01*
X220369104Y-82590476D02*
X220273866Y-82638095D01*
X220273866Y-82638095D02*
X220226247Y-82685714D01*
X220226247Y-82685714D02*
X220178628Y-82780952D01*
X220178628Y-82780952D02*
X220131009Y-82971428D01*
X220131009Y-82971428D02*
X220083390Y-83066666D01*
X220083390Y-83066666D02*
X220035771Y-83114285D01*
X220035771Y-83114285D02*
X219940533Y-83161904D01*
X219940533Y-83161904D02*
X219845295Y-83161904D01*
X219845295Y-83161904D02*
X219750057Y-83114285D01*
X219750057Y-83114285D02*
X219702438Y-83066666D01*
X219702438Y-83066666D02*
X219654819Y-82971428D01*
X219654819Y-82971428D02*
X219654819Y-82733333D01*
X219654819Y-82733333D02*
X219702438Y-82590476D01*
X219654819Y-82257142D02*
X219654819Y-81638095D01*
X219654819Y-81638095D02*
X220035771Y-81971428D01*
X220035771Y-81971428D02*
X220035771Y-81828571D01*
X220035771Y-81828571D02*
X220083390Y-81733333D01*
X220083390Y-81733333D02*
X220131009Y-81685714D01*
X220131009Y-81685714D02*
X220226247Y-81638095D01*
X220226247Y-81638095D02*
X220464342Y-81638095D01*
X220464342Y-81638095D02*
X220559580Y-81685714D01*
X220559580Y-81685714D02*
X220607200Y-81733333D01*
X220607200Y-81733333D02*
X220654819Y-81828571D01*
X220654819Y-81828571D02*
X220654819Y-82114285D01*
X220654819Y-82114285D02*
X220607200Y-82209523D01*
X220607200Y-82209523D02*
X220559580Y-82257142D01*
X77073055Y-120873669D02*
X77073055Y-119873669D01*
X77073055Y-119873669D02*
X77311150Y-119873669D01*
X77311150Y-119873669D02*
X77454007Y-119921288D01*
X77454007Y-119921288D02*
X77549245Y-120016526D01*
X77549245Y-120016526D02*
X77596864Y-120111764D01*
X77596864Y-120111764D02*
X77644483Y-120302240D01*
X77644483Y-120302240D02*
X77644483Y-120445097D01*
X77644483Y-120445097D02*
X77596864Y-120635573D01*
X77596864Y-120635573D02*
X77549245Y-120730811D01*
X77549245Y-120730811D02*
X77454007Y-120826050D01*
X77454007Y-120826050D02*
X77311150Y-120873669D01*
X77311150Y-120873669D02*
X77073055Y-120873669D01*
X78025436Y-119968907D02*
X78073055Y-119921288D01*
X78073055Y-119921288D02*
X78168293Y-119873669D01*
X78168293Y-119873669D02*
X78406388Y-119873669D01*
X78406388Y-119873669D02*
X78501626Y-119921288D01*
X78501626Y-119921288D02*
X78549245Y-119968907D01*
X78549245Y-119968907D02*
X78596864Y-120064145D01*
X78596864Y-120064145D02*
X78596864Y-120159383D01*
X78596864Y-120159383D02*
X78549245Y-120302240D01*
X78549245Y-120302240D02*
X77977817Y-120873669D01*
X77977817Y-120873669D02*
X78596864Y-120873669D01*
X98661233Y-105968430D02*
X98613614Y-106016050D01*
X98613614Y-106016050D02*
X98470757Y-106063669D01*
X98470757Y-106063669D02*
X98375519Y-106063669D01*
X98375519Y-106063669D02*
X98232662Y-106016050D01*
X98232662Y-106016050D02*
X98137424Y-105920811D01*
X98137424Y-105920811D02*
X98089805Y-105825573D01*
X98089805Y-105825573D02*
X98042186Y-105635097D01*
X98042186Y-105635097D02*
X98042186Y-105492240D01*
X98042186Y-105492240D02*
X98089805Y-105301764D01*
X98089805Y-105301764D02*
X98137424Y-105206526D01*
X98137424Y-105206526D02*
X98232662Y-105111288D01*
X98232662Y-105111288D02*
X98375519Y-105063669D01*
X98375519Y-105063669D02*
X98470757Y-105063669D01*
X98470757Y-105063669D02*
X98613614Y-105111288D01*
X98613614Y-105111288D02*
X98661233Y-105158907D01*
X99518376Y-105063669D02*
X99327900Y-105063669D01*
X99327900Y-105063669D02*
X99232662Y-105111288D01*
X99232662Y-105111288D02*
X99185043Y-105158907D01*
X99185043Y-105158907D02*
X99089805Y-105301764D01*
X99089805Y-105301764D02*
X99042186Y-105492240D01*
X99042186Y-105492240D02*
X99042186Y-105873192D01*
X99042186Y-105873192D02*
X99089805Y-105968430D01*
X99089805Y-105968430D02*
X99137424Y-106016050D01*
X99137424Y-106016050D02*
X99232662Y-106063669D01*
X99232662Y-106063669D02*
X99423138Y-106063669D01*
X99423138Y-106063669D02*
X99518376Y-106016050D01*
X99518376Y-106016050D02*
X99565995Y-105968430D01*
X99565995Y-105968430D02*
X99613614Y-105873192D01*
X99613614Y-105873192D02*
X99613614Y-105635097D01*
X99613614Y-105635097D02*
X99565995Y-105539859D01*
X99565995Y-105539859D02*
X99518376Y-105492240D01*
X99518376Y-105492240D02*
X99423138Y-105444621D01*
X99423138Y-105444621D02*
X99232662Y-105444621D01*
X99232662Y-105444621D02*
X99137424Y-105492240D01*
X99137424Y-105492240D02*
X99089805Y-105539859D01*
X99089805Y-105539859D02*
X99042186Y-105635097D01*
X186112817Y-97071050D02*
X186255674Y-97118669D01*
X186255674Y-97118669D02*
X186493769Y-97118669D01*
X186493769Y-97118669D02*
X186589007Y-97071050D01*
X186589007Y-97071050D02*
X186636626Y-97023430D01*
X186636626Y-97023430D02*
X186684245Y-96928192D01*
X186684245Y-96928192D02*
X186684245Y-96832954D01*
X186684245Y-96832954D02*
X186636626Y-96737716D01*
X186636626Y-96737716D02*
X186589007Y-96690097D01*
X186589007Y-96690097D02*
X186493769Y-96642478D01*
X186493769Y-96642478D02*
X186303293Y-96594859D01*
X186303293Y-96594859D02*
X186208055Y-96547240D01*
X186208055Y-96547240D02*
X186160436Y-96499621D01*
X186160436Y-96499621D02*
X186112817Y-96404383D01*
X186112817Y-96404383D02*
X186112817Y-96309145D01*
X186112817Y-96309145D02*
X186160436Y-96213907D01*
X186160436Y-96213907D02*
X186208055Y-96166288D01*
X186208055Y-96166288D02*
X186303293Y-96118669D01*
X186303293Y-96118669D02*
X186541388Y-96118669D01*
X186541388Y-96118669D02*
X186684245Y-96166288D01*
X187017579Y-96118669D02*
X187255674Y-97118669D01*
X187255674Y-97118669D02*
X187446150Y-96404383D01*
X187446150Y-96404383D02*
X187636626Y-97118669D01*
X187636626Y-97118669D02*
X187874722Y-96118669D01*
X188779483Y-97118669D02*
X188208055Y-97118669D01*
X188493769Y-97118669D02*
X188493769Y-96118669D01*
X188493769Y-96118669D02*
X188398531Y-96261526D01*
X188398531Y-96261526D02*
X188303293Y-96356764D01*
X188303293Y-96356764D02*
X188208055Y-96404383D01*
D14*
X210959176Y-152121310D02*
X209790776Y-152121310D01*
X209790776Y-152121310D02*
X210959176Y-151453653D01*
X210959176Y-151453653D02*
X209790776Y-151453653D01*
X209790776Y-151008548D02*
X210959176Y-150229615D01*
X209790776Y-150229615D02*
X210959176Y-151008548D01*
X210180242Y-149283767D02*
X210959176Y-149283767D01*
X209735138Y-149561958D02*
X210569709Y-149840148D01*
X210569709Y-149840148D02*
X210569709Y-149116853D01*
D13*
X291738095Y-106474819D02*
X291738095Y-107284342D01*
X291738095Y-107284342D02*
X291785714Y-107379580D01*
X291785714Y-107379580D02*
X291833333Y-107427200D01*
X291833333Y-107427200D02*
X291928571Y-107474819D01*
X291928571Y-107474819D02*
X292119047Y-107474819D01*
X292119047Y-107474819D02*
X292214285Y-107427200D01*
X292214285Y-107427200D02*
X292261904Y-107379580D01*
X292261904Y-107379580D02*
X292309523Y-107284342D01*
X292309523Y-107284342D02*
X292309523Y-106474819D01*
X292833333Y-107474819D02*
X293023809Y-107474819D01*
X293023809Y-107474819D02*
X293119047Y-107427200D01*
X293119047Y-107427200D02*
X293166666Y-107379580D01*
X293166666Y-107379580D02*
X293261904Y-107236723D01*
X293261904Y-107236723D02*
X293309523Y-107046247D01*
X293309523Y-107046247D02*
X293309523Y-106665295D01*
X293309523Y-106665295D02*
X293261904Y-106570057D01*
X293261904Y-106570057D02*
X293214285Y-106522438D01*
X293214285Y-106522438D02*
X293119047Y-106474819D01*
X293119047Y-106474819D02*
X292928571Y-106474819D01*
X292928571Y-106474819D02*
X292833333Y-106522438D01*
X292833333Y-106522438D02*
X292785714Y-106570057D01*
X292785714Y-106570057D02*
X292738095Y-106665295D01*
X292738095Y-106665295D02*
X292738095Y-106903390D01*
X292738095Y-106903390D02*
X292785714Y-106998628D01*
X292785714Y-106998628D02*
X292833333Y-107046247D01*
X292833333Y-107046247D02*
X292928571Y-107093866D01*
X292928571Y-107093866D02*
X293119047Y-107093866D01*
X293119047Y-107093866D02*
X293214285Y-107046247D01*
X293214285Y-107046247D02*
X293261904Y-106998628D01*
X293261904Y-106998628D02*
X293309523Y-106903390D01*
X90114483Y-187103669D02*
X89781150Y-186627478D01*
X89543055Y-187103669D02*
X89543055Y-186103669D01*
X89543055Y-186103669D02*
X89924007Y-186103669D01*
X89924007Y-186103669D02*
X90019245Y-186151288D01*
X90019245Y-186151288D02*
X90066864Y-186198907D01*
X90066864Y-186198907D02*
X90114483Y-186294145D01*
X90114483Y-186294145D02*
X90114483Y-186437002D01*
X90114483Y-186437002D02*
X90066864Y-186532240D01*
X90066864Y-186532240D02*
X90019245Y-186579859D01*
X90019245Y-186579859D02*
X89924007Y-186627478D01*
X89924007Y-186627478D02*
X89543055Y-186627478D01*
X90447817Y-186103669D02*
X91066864Y-186103669D01*
X91066864Y-186103669D02*
X90733531Y-186484621D01*
X90733531Y-186484621D02*
X90876388Y-186484621D01*
X90876388Y-186484621D02*
X90971626Y-186532240D01*
X90971626Y-186532240D02*
X91019245Y-186579859D01*
X91019245Y-186579859D02*
X91066864Y-186675097D01*
X91066864Y-186675097D02*
X91066864Y-186913192D01*
X91066864Y-186913192D02*
X91019245Y-187008430D01*
X91019245Y-187008430D02*
X90971626Y-187056050D01*
X90971626Y-187056050D02*
X90876388Y-187103669D01*
X90876388Y-187103669D02*
X90590674Y-187103669D01*
X90590674Y-187103669D02*
X90495436Y-187056050D01*
X90495436Y-187056050D02*
X90447817Y-187008430D01*
X155327816Y-111834819D02*
X155327816Y-112549104D01*
X155327816Y-112549104D02*
X155280197Y-112691961D01*
X155280197Y-112691961D02*
X155184959Y-112787200D01*
X155184959Y-112787200D02*
X155042102Y-112834819D01*
X155042102Y-112834819D02*
X154946864Y-112834819D01*
X155708769Y-111834819D02*
X156327816Y-111834819D01*
X156327816Y-111834819D02*
X155994483Y-112215771D01*
X155994483Y-112215771D02*
X156137340Y-112215771D01*
X156137340Y-112215771D02*
X156232578Y-112263390D01*
X156232578Y-112263390D02*
X156280197Y-112311009D01*
X156280197Y-112311009D02*
X156327816Y-112406247D01*
X156327816Y-112406247D02*
X156327816Y-112644342D01*
X156327816Y-112644342D02*
X156280197Y-112739580D01*
X156280197Y-112739580D02*
X156232578Y-112787200D01*
X156232578Y-112787200D02*
X156137340Y-112834819D01*
X156137340Y-112834819D02*
X155851626Y-112834819D01*
X155851626Y-112834819D02*
X155756388Y-112787200D01*
X155756388Y-112787200D02*
X155708769Y-112739580D01*
X153471150Y-114334819D02*
X153471150Y-114572914D01*
X153233055Y-114477676D02*
X153471150Y-114572914D01*
X153471150Y-114572914D02*
X153709245Y-114477676D01*
X153328293Y-114763390D02*
X153471150Y-114572914D01*
X153471150Y-114572914D02*
X153614007Y-114763390D01*
X154471150Y-114334819D02*
X154471150Y-114572914D01*
X154233055Y-114477676D02*
X154471150Y-114572914D01*
X154471150Y-114572914D02*
X154709245Y-114477676D01*
X154328293Y-114763390D02*
X154471150Y-114572914D01*
X154471150Y-114572914D02*
X154614007Y-114763390D01*
X67646278Y-89979265D02*
X67646278Y-90693550D01*
X67646278Y-90693550D02*
X67598659Y-90836407D01*
X67598659Y-90836407D02*
X67503421Y-90931646D01*
X67503421Y-90931646D02*
X67360564Y-90979265D01*
X67360564Y-90979265D02*
X67265326Y-90979265D01*
X68646278Y-90979265D02*
X68074850Y-90979265D01*
X68360564Y-90979265D02*
X68360564Y-89979265D01*
X68360564Y-89979265D02*
X68265326Y-90122122D01*
X68265326Y-90122122D02*
X68170088Y-90217360D01*
X68170088Y-90217360D02*
X68074850Y-90264979D01*
X130033333Y-163884819D02*
X129700000Y-163408628D01*
X129461905Y-163884819D02*
X129461905Y-162884819D01*
X129461905Y-162884819D02*
X129842857Y-162884819D01*
X129842857Y-162884819D02*
X129938095Y-162932438D01*
X129938095Y-162932438D02*
X129985714Y-162980057D01*
X129985714Y-162980057D02*
X130033333Y-163075295D01*
X130033333Y-163075295D02*
X130033333Y-163218152D01*
X130033333Y-163218152D02*
X129985714Y-163313390D01*
X129985714Y-163313390D02*
X129938095Y-163361009D01*
X129938095Y-163361009D02*
X129842857Y-163408628D01*
X129842857Y-163408628D02*
X129461905Y-163408628D01*
X130890476Y-163218152D02*
X130890476Y-163884819D01*
X130652381Y-162837200D02*
X130414286Y-163551485D01*
X130414286Y-163551485D02*
X131033333Y-163551485D01*
X199233333Y-163884819D02*
X198900000Y-163408628D01*
X198661905Y-163884819D02*
X198661905Y-162884819D01*
X198661905Y-162884819D02*
X199042857Y-162884819D01*
X199042857Y-162884819D02*
X199138095Y-162932438D01*
X199138095Y-162932438D02*
X199185714Y-162980057D01*
X199185714Y-162980057D02*
X199233333Y-163075295D01*
X199233333Y-163075295D02*
X199233333Y-163218152D01*
X199233333Y-163218152D02*
X199185714Y-163313390D01*
X199185714Y-163313390D02*
X199138095Y-163361009D01*
X199138095Y-163361009D02*
X199042857Y-163408628D01*
X199042857Y-163408628D02*
X198661905Y-163408628D01*
X199566667Y-162884819D02*
X200233333Y-162884819D01*
X200233333Y-162884819D02*
X199804762Y-163884819D01*
X149833333Y-163884819D02*
X149500000Y-163408628D01*
X149261905Y-163884819D02*
X149261905Y-162884819D01*
X149261905Y-162884819D02*
X149642857Y-162884819D01*
X149642857Y-162884819D02*
X149738095Y-162932438D01*
X149738095Y-162932438D02*
X149785714Y-162980057D01*
X149785714Y-162980057D02*
X149833333Y-163075295D01*
X149833333Y-163075295D02*
X149833333Y-163218152D01*
X149833333Y-163218152D02*
X149785714Y-163313390D01*
X149785714Y-163313390D02*
X149738095Y-163361009D01*
X149738095Y-163361009D02*
X149642857Y-163408628D01*
X149642857Y-163408628D02*
X149261905Y-163408628D01*
X150738095Y-162884819D02*
X150261905Y-162884819D01*
X150261905Y-162884819D02*
X150214286Y-163361009D01*
X150214286Y-163361009D02*
X150261905Y-163313390D01*
X150261905Y-163313390D02*
X150357143Y-163265771D01*
X150357143Y-163265771D02*
X150595238Y-163265771D01*
X150595238Y-163265771D02*
X150690476Y-163313390D01*
X150690476Y-163313390D02*
X150738095Y-163361009D01*
X150738095Y-163361009D02*
X150785714Y-163456247D01*
X150785714Y-163456247D02*
X150785714Y-163694342D01*
X150785714Y-163694342D02*
X150738095Y-163789580D01*
X150738095Y-163789580D02*
X150690476Y-163837200D01*
X150690476Y-163837200D02*
X150595238Y-163884819D01*
X150595238Y-163884819D02*
X150357143Y-163884819D01*
X150357143Y-163884819D02*
X150261905Y-163837200D01*
X150261905Y-163837200D02*
X150214286Y-163789580D01*
X240473095Y-112654819D02*
X240473095Y-113464342D01*
X240473095Y-113464342D02*
X240520714Y-113559580D01*
X240520714Y-113559580D02*
X240568333Y-113607200D01*
X240568333Y-113607200D02*
X240663571Y-113654819D01*
X240663571Y-113654819D02*
X240854047Y-113654819D01*
X240854047Y-113654819D02*
X240949285Y-113607200D01*
X240949285Y-113607200D02*
X240996904Y-113559580D01*
X240996904Y-113559580D02*
X241044523Y-113464342D01*
X241044523Y-113464342D02*
X241044523Y-112654819D01*
X241425476Y-112654819D02*
X242044523Y-112654819D01*
X242044523Y-112654819D02*
X241711190Y-113035771D01*
X241711190Y-113035771D02*
X241854047Y-113035771D01*
X241854047Y-113035771D02*
X241949285Y-113083390D01*
X241949285Y-113083390D02*
X241996904Y-113131009D01*
X241996904Y-113131009D02*
X242044523Y-113226247D01*
X242044523Y-113226247D02*
X242044523Y-113464342D01*
X242044523Y-113464342D02*
X241996904Y-113559580D01*
X241996904Y-113559580D02*
X241949285Y-113607200D01*
X241949285Y-113607200D02*
X241854047Y-113654819D01*
X241854047Y-113654819D02*
X241568333Y-113654819D01*
X241568333Y-113654819D02*
X241473095Y-113607200D01*
X241473095Y-113607200D02*
X241425476Y-113559580D01*
X245210000Y-133044519D02*
X245210000Y-133282614D01*
X244971905Y-133187376D02*
X245210000Y-133282614D01*
X245210000Y-133282614D02*
X245448095Y-133187376D01*
X245067143Y-133473090D02*
X245210000Y-133282614D01*
X245210000Y-133282614D02*
X245352857Y-133473090D01*
X245209999Y-134134880D02*
X245209999Y-133896785D01*
X245448094Y-133992023D02*
X245209999Y-133896785D01*
X245209999Y-133896785D02*
X244971904Y-133992023D01*
X245352856Y-133706309D02*
X245209999Y-133896785D01*
X245209999Y-133896785D02*
X245067142Y-133706309D01*
X229433333Y-163884819D02*
X229100000Y-163408628D01*
X228861905Y-163884819D02*
X228861905Y-162884819D01*
X228861905Y-162884819D02*
X229242857Y-162884819D01*
X229242857Y-162884819D02*
X229338095Y-162932438D01*
X229338095Y-162932438D02*
X229385714Y-162980057D01*
X229385714Y-162980057D02*
X229433333Y-163075295D01*
X229433333Y-163075295D02*
X229433333Y-163218152D01*
X229433333Y-163218152D02*
X229385714Y-163313390D01*
X229385714Y-163313390D02*
X229338095Y-163361009D01*
X229338095Y-163361009D02*
X229242857Y-163408628D01*
X229242857Y-163408628D02*
X228861905Y-163408628D01*
X230004762Y-163313390D02*
X229909524Y-163265771D01*
X229909524Y-163265771D02*
X229861905Y-163218152D01*
X229861905Y-163218152D02*
X229814286Y-163122914D01*
X229814286Y-163122914D02*
X229814286Y-163075295D01*
X229814286Y-163075295D02*
X229861905Y-162980057D01*
X229861905Y-162980057D02*
X229909524Y-162932438D01*
X229909524Y-162932438D02*
X230004762Y-162884819D01*
X230004762Y-162884819D02*
X230195238Y-162884819D01*
X230195238Y-162884819D02*
X230290476Y-162932438D01*
X230290476Y-162932438D02*
X230338095Y-162980057D01*
X230338095Y-162980057D02*
X230385714Y-163075295D01*
X230385714Y-163075295D02*
X230385714Y-163122914D01*
X230385714Y-163122914D02*
X230338095Y-163218152D01*
X230338095Y-163218152D02*
X230290476Y-163265771D01*
X230290476Y-163265771D02*
X230195238Y-163313390D01*
X230195238Y-163313390D02*
X230004762Y-163313390D01*
X230004762Y-163313390D02*
X229909524Y-163361009D01*
X229909524Y-163361009D02*
X229861905Y-163408628D01*
X229861905Y-163408628D02*
X229814286Y-163503866D01*
X229814286Y-163503866D02*
X229814286Y-163694342D01*
X229814286Y-163694342D02*
X229861905Y-163789580D01*
X229861905Y-163789580D02*
X229909524Y-163837200D01*
X229909524Y-163837200D02*
X230004762Y-163884819D01*
X230004762Y-163884819D02*
X230195238Y-163884819D01*
X230195238Y-163884819D02*
X230290476Y-163837200D01*
X230290476Y-163837200D02*
X230338095Y-163789580D01*
X230338095Y-163789580D02*
X230385714Y-163694342D01*
X230385714Y-163694342D02*
X230385714Y-163503866D01*
X230385714Y-163503866D02*
X230338095Y-163408628D01*
X230338095Y-163408628D02*
X230290476Y-163361009D01*
X230290476Y-163361009D02*
X230195238Y-163313390D01*
X190158095Y-112594819D02*
X190158095Y-113404342D01*
X190158095Y-113404342D02*
X190205714Y-113499580D01*
X190205714Y-113499580D02*
X190253333Y-113547200D01*
X190253333Y-113547200D02*
X190348571Y-113594819D01*
X190348571Y-113594819D02*
X190539047Y-113594819D01*
X190539047Y-113594819D02*
X190634285Y-113547200D01*
X190634285Y-113547200D02*
X190681904Y-113499580D01*
X190681904Y-113499580D02*
X190729523Y-113404342D01*
X190729523Y-113404342D02*
X190729523Y-112594819D01*
X191158095Y-112690057D02*
X191205714Y-112642438D01*
X191205714Y-112642438D02*
X191300952Y-112594819D01*
X191300952Y-112594819D02*
X191539047Y-112594819D01*
X191539047Y-112594819D02*
X191634285Y-112642438D01*
X191634285Y-112642438D02*
X191681904Y-112690057D01*
X191681904Y-112690057D02*
X191729523Y-112785295D01*
X191729523Y-112785295D02*
X191729523Y-112880533D01*
X191729523Y-112880533D02*
X191681904Y-113023390D01*
X191681904Y-113023390D02*
X191110476Y-113594819D01*
X191110476Y-113594819D02*
X191729523Y-113594819D01*
X194420000Y-133044519D02*
X194420000Y-133282614D01*
X194181905Y-133187376D02*
X194420000Y-133282614D01*
X194420000Y-133282614D02*
X194658095Y-133187376D01*
X194277143Y-133473090D02*
X194420000Y-133282614D01*
X194420000Y-133282614D02*
X194562857Y-133473090D01*
X194419999Y-134134880D02*
X194419999Y-133896785D01*
X194658094Y-133992023D02*
X194419999Y-133896785D01*
X194419999Y-133896785D02*
X194181904Y-133992023D01*
X194562856Y-133706309D02*
X194419999Y-133896785D01*
X194419999Y-133896785D02*
X194277142Y-133706309D01*
X179033333Y-163884819D02*
X178700000Y-163408628D01*
X178461905Y-163884819D02*
X178461905Y-162884819D01*
X178461905Y-162884819D02*
X178842857Y-162884819D01*
X178842857Y-162884819D02*
X178938095Y-162932438D01*
X178938095Y-162932438D02*
X178985714Y-162980057D01*
X178985714Y-162980057D02*
X179033333Y-163075295D01*
X179033333Y-163075295D02*
X179033333Y-163218152D01*
X179033333Y-163218152D02*
X178985714Y-163313390D01*
X178985714Y-163313390D02*
X178938095Y-163361009D01*
X178938095Y-163361009D02*
X178842857Y-163408628D01*
X178842857Y-163408628D02*
X178461905Y-163408628D01*
X179890476Y-162884819D02*
X179700000Y-162884819D01*
X179700000Y-162884819D02*
X179604762Y-162932438D01*
X179604762Y-162932438D02*
X179557143Y-162980057D01*
X179557143Y-162980057D02*
X179461905Y-163122914D01*
X179461905Y-163122914D02*
X179414286Y-163313390D01*
X179414286Y-163313390D02*
X179414286Y-163694342D01*
X179414286Y-163694342D02*
X179461905Y-163789580D01*
X179461905Y-163789580D02*
X179509524Y-163837200D01*
X179509524Y-163837200D02*
X179604762Y-163884819D01*
X179604762Y-163884819D02*
X179795238Y-163884819D01*
X179795238Y-163884819D02*
X179890476Y-163837200D01*
X179890476Y-163837200D02*
X179938095Y-163789580D01*
X179938095Y-163789580D02*
X179985714Y-163694342D01*
X179985714Y-163694342D02*
X179985714Y-163456247D01*
X179985714Y-163456247D02*
X179938095Y-163361009D01*
X179938095Y-163361009D02*
X179890476Y-163313390D01*
X179890476Y-163313390D02*
X179795238Y-163265771D01*
X179795238Y-163265771D02*
X179604762Y-163265771D01*
X179604762Y-163265771D02*
X179509524Y-163313390D01*
X179509524Y-163313390D02*
X179461905Y-163361009D01*
X179461905Y-163361009D02*
X179414286Y-163456247D01*
X205586666Y-111594819D02*
X205586666Y-112309104D01*
X205586666Y-112309104D02*
X205539047Y-112451961D01*
X205539047Y-112451961D02*
X205443809Y-112547200D01*
X205443809Y-112547200D02*
X205300952Y-112594819D01*
X205300952Y-112594819D02*
X205205714Y-112594819D01*
X206539047Y-111594819D02*
X206062857Y-111594819D01*
X206062857Y-111594819D02*
X206015238Y-112071009D01*
X206015238Y-112071009D02*
X206062857Y-112023390D01*
X206062857Y-112023390D02*
X206158095Y-111975771D01*
X206158095Y-111975771D02*
X206396190Y-111975771D01*
X206396190Y-111975771D02*
X206491428Y-112023390D01*
X206491428Y-112023390D02*
X206539047Y-112071009D01*
X206539047Y-112071009D02*
X206586666Y-112166247D01*
X206586666Y-112166247D02*
X206586666Y-112404342D01*
X206586666Y-112404342D02*
X206539047Y-112499580D01*
X206539047Y-112499580D02*
X206491428Y-112547200D01*
X206491428Y-112547200D02*
X206396190Y-112594819D01*
X206396190Y-112594819D02*
X206158095Y-112594819D01*
X206158095Y-112594819D02*
X206062857Y-112547200D01*
X206062857Y-112547200D02*
X206015238Y-112499580D01*
X203920000Y-114594819D02*
X203920000Y-114832914D01*
X203681905Y-114737676D02*
X203920000Y-114832914D01*
X203920000Y-114832914D02*
X204158095Y-114737676D01*
X203777143Y-115023390D02*
X203920000Y-114832914D01*
X203920000Y-114832914D02*
X204062857Y-115023390D01*
X204920000Y-114594819D02*
X204920000Y-114832914D01*
X204681905Y-114737676D02*
X204920000Y-114832914D01*
X204920000Y-114832914D02*
X205158095Y-114737676D01*
X204777143Y-115023390D02*
X204920000Y-114832914D01*
X204920000Y-114832914D02*
X205062857Y-115023390D01*
X68218883Y-146063669D02*
X67742693Y-146063669D01*
X67742693Y-146063669D02*
X67742693Y-145063669D01*
X69076026Y-146063669D02*
X68504598Y-146063669D01*
X68790312Y-146063669D02*
X68790312Y-145063669D01*
X68790312Y-145063669D02*
X68695074Y-145206526D01*
X68695074Y-145206526D02*
X68599836Y-145301764D01*
X68599836Y-145301764D02*
X68504598Y-145349383D01*
X67908969Y-166251944D02*
X66908969Y-166251944D01*
X66908969Y-166251944D02*
X66908969Y-166013849D01*
X66908969Y-166013849D02*
X66956588Y-165870992D01*
X66956588Y-165870992D02*
X67051826Y-165775754D01*
X67051826Y-165775754D02*
X67147064Y-165728135D01*
X67147064Y-165728135D02*
X67337540Y-165680516D01*
X67337540Y-165680516D02*
X67480397Y-165680516D01*
X67480397Y-165680516D02*
X67670873Y-165728135D01*
X67670873Y-165728135D02*
X67766111Y-165775754D01*
X67766111Y-165775754D02*
X67861350Y-165870992D01*
X67861350Y-165870992D02*
X67908969Y-166013849D01*
X67908969Y-166013849D02*
X67908969Y-166251944D01*
X67908969Y-164728135D02*
X67908969Y-165299563D01*
X67908969Y-165013849D02*
X66908969Y-165013849D01*
X66908969Y-165013849D02*
X67051826Y-165109087D01*
X67051826Y-165109087D02*
X67147064Y-165204325D01*
X67147064Y-165204325D02*
X67194683Y-165299563D01*
D14*
X261846777Y-152121310D02*
X260678377Y-152121310D01*
X260678377Y-152121310D02*
X261846777Y-151453653D01*
X261846777Y-151453653D02*
X260678377Y-151453653D01*
X260678377Y-151008548D02*
X261846777Y-150229615D01*
X260678377Y-150229615D02*
X261846777Y-151008548D01*
X260678377Y-149283767D02*
X260678377Y-149506320D01*
X260678377Y-149506320D02*
X260734015Y-149617596D01*
X260734015Y-149617596D02*
X260789653Y-149673234D01*
X260789653Y-149673234D02*
X260956567Y-149784510D01*
X260956567Y-149784510D02*
X261179119Y-149840148D01*
X261179119Y-149840148D02*
X261624224Y-149840148D01*
X261624224Y-149840148D02*
X261735500Y-149784510D01*
X261735500Y-149784510D02*
X261791139Y-149728872D01*
X261791139Y-149728872D02*
X261846777Y-149617596D01*
X261846777Y-149617596D02*
X261846777Y-149395043D01*
X261846777Y-149395043D02*
X261791139Y-149283767D01*
X261791139Y-149283767D02*
X261735500Y-149228129D01*
X261735500Y-149228129D02*
X261624224Y-149172491D01*
X261624224Y-149172491D02*
X261346034Y-149172491D01*
X261346034Y-149172491D02*
X261234758Y-149228129D01*
X261234758Y-149228129D02*
X261179119Y-149283767D01*
X261179119Y-149283767D02*
X261123481Y-149395043D01*
X261123481Y-149395043D02*
X261123481Y-149617596D01*
X261123481Y-149617596D02*
X261179119Y-149728872D01*
X261179119Y-149728872D02*
X261234758Y-149784510D01*
X261234758Y-149784510D02*
X261346034Y-149840148D01*
%TO.C,R10*%
D17*
X96525000Y-169685000D02*
X96525000Y-168915000D01*
X96525000Y-161605000D02*
X96525000Y-162375000D01*
X95155000Y-162375000D02*
X97895000Y-162375000D01*
X97895000Y-168915000D01*
X95155000Y-168915000D01*
X95155000Y-162375000D01*
%TO.C,U8*%
D18*
X76407150Y-157766350D02*
X76407150Y-158995710D01*
X76407150Y-160981990D02*
X76407150Y-161568740D01*
X76407150Y-163488960D02*
X76407150Y-164108740D01*
X76407150Y-166028960D02*
X76407150Y-166648740D01*
X76407150Y-168568960D02*
X76407150Y-169188740D01*
X76407150Y-171108960D02*
X76407150Y-171728740D01*
X76407150Y-173648960D02*
X76407150Y-174268740D01*
X76407150Y-176188960D02*
X76407150Y-177451350D01*
X76407150Y-177451350D02*
X84535150Y-177451350D01*
X84535150Y-157766350D02*
X76407150Y-157766350D01*
X84535150Y-159028740D02*
X84535150Y-157766350D01*
X84535150Y-161568740D02*
X84535150Y-160948960D01*
X84535150Y-164108740D02*
X84535150Y-163488960D01*
X84535150Y-166648740D02*
X84535150Y-166028960D01*
X84535150Y-169188740D02*
X84535150Y-168568960D01*
X84535150Y-171728740D02*
X84535150Y-171108960D01*
X84535150Y-174268740D02*
X84535150Y-173648960D01*
X84535150Y-177451350D02*
X84535150Y-176188960D01*
%TO.C,NX3*%
D15*
X171581150Y-155800143D02*
X171581150Y-142941343D01*
X171581150Y-155800143D02*
X171581150Y-155958843D01*
X188408650Y-142941343D02*
X188408650Y-155958843D01*
X171581150Y-142941343D02*
G75*
G02*
X188408650Y-142941343I8413750J-6526600D01*
G01*
D19*
X171581150Y-142941343D02*
G75*
G02*
X188408650Y-142941343I8413750J-6609101D01*
G01*
D15*
X188408650Y-155958843D02*
G75*
G02*
X171581149Y-155958842I-8413750J5794402D01*
G01*
D19*
X188408650Y-155958843D02*
G75*
G02*
X171581150Y-155958843I-8413750J6009801D01*
G01*
X183011150Y-149608843D02*
G75*
G02*
X177931150Y-149608843I-2540000J0D01*
G01*
X177931150Y-149608843D02*
G75*
G02*
X183011150Y-149608843I2540000J0D01*
G01*
%TO.C,S2*%
X184150000Y-75700000D02*
X186700000Y-75700000D01*
X184150000Y-79000000D02*
X184150000Y-75700000D01*
X184150000Y-85800000D02*
X184150000Y-89100000D01*
X184150000Y-89100000D02*
X186700000Y-89100000D01*
X194100000Y-75700000D02*
X196650000Y-75700000D01*
X194100000Y-89100000D02*
X196650000Y-89100000D01*
X196650000Y-75700000D02*
X196650000Y-79000000D01*
X196650000Y-89100000D02*
X196650000Y-85800000D01*
D12*
X188000000Y-74050000D02*
G75*
G02*
X187800000Y-74050000I-100000J0D01*
G01*
X187800000Y-74050000D02*
G75*
G02*
X188000000Y-74050000I100000J0D01*
G01*
%TO.C,J7*%
D18*
X251627600Y-114010600D02*
X251627600Y-134889400D01*
X251627600Y-134889400D02*
X262092400Y-134889400D01*
X262092400Y-114010600D02*
X251627600Y-114010600D01*
X262092400Y-134889400D02*
X262092400Y-114010600D01*
%TO.C,R1*%
D17*
X90471150Y-163068850D02*
X90471150Y-163838850D01*
X90471150Y-171148850D02*
X90471150Y-170378850D01*
X89101150Y-163838850D02*
X91841150Y-163838850D01*
X91841150Y-170378850D01*
X89101150Y-170378850D01*
X89101150Y-163838850D01*
%TO.C,J6*%
D18*
X220707600Y-114070600D02*
X220707600Y-134949400D01*
X220707600Y-134949400D02*
X231172400Y-134949400D01*
X231172400Y-114070600D02*
X220707600Y-114070600D01*
X231172400Y-134949400D02*
X231172400Y-114070600D01*
%TO.C,C7*%
D17*
X84041150Y-103048850D02*
X89281150Y-103048850D01*
X84041150Y-103385850D02*
X84041150Y-103048850D01*
X84041150Y-105788850D02*
X84041150Y-105451850D01*
X89281150Y-103048850D02*
X89281150Y-103385850D01*
X89281150Y-105451850D02*
X89281150Y-105788850D01*
X89281150Y-105788850D02*
X84041150Y-105788850D01*
%TO.C,C4*%
X87851150Y-175738850D02*
X93091150Y-175738850D01*
X87851150Y-176075850D02*
X87851150Y-175738850D01*
X87851150Y-178478850D02*
X87851150Y-178141850D01*
X93091150Y-175738850D02*
X93091150Y-176075850D01*
X93091150Y-178141850D02*
X93091150Y-178478850D01*
X93091150Y-178478850D02*
X87851150Y-178478850D01*
%TO.C,C5*%
D18*
X66892050Y-112418850D02*
X68162050Y-112418850D01*
X67527050Y-111783850D02*
X67527050Y-113053850D01*
X79033250Y-112418850D02*
G75*
G02*
X68289050Y-112418850I-5372100J0D01*
G01*
X68289050Y-112418850D02*
G75*
G02*
X79033250Y-112418850I5372100J0D01*
G01*
%TO.C,U7*%
X83042150Y-109893590D02*
X83042150Y-110312549D01*
X83042150Y-112365151D02*
X83042150Y-112852549D01*
X83042150Y-114905151D02*
X83042150Y-115392549D01*
X83042150Y-117561850D02*
X89900150Y-117561850D01*
X89900150Y-107655850D02*
X83042150Y-107655850D01*
X89900150Y-110312549D02*
X89900150Y-109825151D01*
X89900150Y-112852549D02*
X89900150Y-112365151D01*
X89900150Y-115392549D02*
X89900150Y-114905151D01*
%TO.C,J2*%
X120928750Y-114230600D02*
X120928750Y-135109400D01*
X120928750Y-135109400D02*
X131393550Y-135109400D01*
X131393550Y-114230600D02*
X120928750Y-114230600D01*
X131393550Y-135109400D02*
X131393550Y-114230600D01*
%TO.C,NX1*%
D15*
X122581150Y-155800143D02*
X122581150Y-142941343D01*
X122581150Y-155800143D02*
X122581150Y-155958843D01*
X139408650Y-142941343D02*
X139408650Y-155958843D01*
X122581150Y-142941343D02*
G75*
G02*
X139408650Y-142941343I8413750J-6526600D01*
G01*
D19*
X122581150Y-142941343D02*
G75*
G02*
X139408650Y-142941343I8413750J-6609101D01*
G01*
D15*
X139408650Y-155958843D02*
G75*
G02*
X122581149Y-155958842I-8413750J5794402D01*
G01*
D19*
X139408650Y-155958843D02*
G75*
G02*
X122581150Y-155958843I-8413750J6009801D01*
G01*
X134011150Y-149608843D02*
G75*
G02*
X128931150Y-149608843I-2540000J0D01*
G01*
X128931150Y-149608843D02*
G75*
G02*
X134011150Y-149608843I2540000J0D01*
G01*
%TO.C,Q1*%
D12*
X75281150Y-150083850D02*
X75281150Y-153608850D01*
X85581150Y-150083850D02*
X75281150Y-150083850D01*
X85581150Y-154883850D02*
X85581150Y-150083850D01*
%TO.C,R9*%
D17*
X246360000Y-165800000D02*
X247130000Y-165800000D01*
X254440000Y-165800000D02*
X253670000Y-165800000D01*
X247130000Y-164430000D02*
X253670000Y-164430000D01*
X253670000Y-167170000D01*
X247130000Y-167170000D01*
X247130000Y-164430000D01*
%TO.C,S1*%
D19*
X162900000Y-75700000D02*
X165450000Y-75700000D01*
X162900000Y-79000000D02*
X162900000Y-75700000D01*
X162900000Y-85800000D02*
X162900000Y-89100000D01*
X162900000Y-89100000D02*
X165450000Y-89100000D01*
X172850000Y-75700000D02*
X175400000Y-75700000D01*
X172850000Y-89100000D02*
X175400000Y-89100000D01*
X175400000Y-75700000D02*
X175400000Y-79000000D01*
X175400000Y-89100000D02*
X175400000Y-85800000D01*
D12*
X166750000Y-74050000D02*
G75*
G02*
X166550000Y-74050000I-100000J0D01*
G01*
X166550000Y-74050000D02*
G75*
G02*
X166750000Y-74050000I100000J0D01*
G01*
%TO.C,C3*%
D17*
X87851150Y-155738850D02*
X93091150Y-155738850D01*
X87851150Y-156075850D02*
X87851150Y-155738850D01*
X87851150Y-158478850D02*
X87851150Y-158141850D01*
X93091150Y-155738850D02*
X93091150Y-156075850D01*
X93091150Y-158141850D02*
X93091150Y-158478850D01*
X93091150Y-158478850D02*
X87851150Y-158478850D01*
%TO.C,C1*%
X75334094Y-179567910D02*
X75834094Y-179567910D01*
X75584094Y-179817910D02*
X75584094Y-179317910D01*
X81791150Y-182148850D02*
G75*
G02*
X75271150Y-182148850I-3260000J0D01*
G01*
X75271150Y-182148850D02*
G75*
G02*
X81791150Y-182148850I3260000J0D01*
G01*
%TO.C,C2*%
D18*
X86178800Y-149148850D02*
X87448800Y-149148850D01*
X86813800Y-148513850D02*
X86813800Y-149783850D01*
X98320000Y-149148850D02*
G75*
G02*
X87575800Y-149148850I-5372100J0D01*
G01*
X87575800Y-149148850D02*
G75*
G02*
X98320000Y-149148850I5372100J0D01*
G01*
%TO.C,L2*%
D17*
X97041150Y-121458850D02*
X97471150Y-121038850D01*
X97851150Y-121418850D02*
X97431150Y-121848850D01*
X97431150Y-121848850D02*
G75*
G02*
X97041150Y-121458850I-82400J307600D01*
G01*
X98581150Y-123418850D02*
G75*
G02*
X92361150Y-123418850I-3110000J0D01*
G01*
X92361150Y-123418850D02*
G75*
G02*
X98581150Y-123418850I3110000J0D01*
G01*
X93511150Y-124988850D02*
X93511150Y-124988850D01*
G75*
G02*
X93901150Y-125378850I82450J-307550D01*
G01*
X93901150Y-125378850D01*
X93471150Y-125798850D01*
X93091150Y-125418850D01*
X93511150Y-124988850D01*
G36*
X93511150Y-124988850D02*
G01*
X93511150Y-124988850D01*
G75*
G02*
X93901150Y-125378850I82450J-307550D01*
G01*
X93901150Y-125378850D01*
X93471150Y-125798850D01*
X93091150Y-125418850D01*
X93511150Y-124988850D01*
G37*
%TO.C,R2*%
X70781150Y-172608850D02*
X70781150Y-173378850D01*
X70781150Y-180688850D02*
X70781150Y-179918850D01*
X69411150Y-173378850D02*
X72151150Y-173378850D01*
X72151150Y-179918850D01*
X69411150Y-179918850D01*
X69411150Y-173378850D01*
%TO.C,NX2*%
D15*
X142581150Y-155800143D02*
X142581150Y-142941343D01*
X142581150Y-155800143D02*
X142581150Y-155958843D01*
X159408650Y-142941343D02*
X159408650Y-155958843D01*
X142581150Y-142941343D02*
G75*
G02*
X159408650Y-142941343I8413750J-6526600D01*
G01*
D19*
X142581150Y-142941343D02*
G75*
G02*
X159408650Y-142941343I8413750J-6609101D01*
G01*
D15*
X159408650Y-155958843D02*
G75*
G02*
X142581149Y-155958842I-8413750J5794402D01*
G01*
D19*
X159408650Y-155958843D02*
G75*
G02*
X142581150Y-155958843I-8413750J6009801D01*
G01*
X154011150Y-149608843D02*
G75*
G02*
X148931150Y-149608843I-2540000J0D01*
G01*
X148931150Y-149608843D02*
G75*
G02*
X154011150Y-149608843I2540000J0D01*
G01*
%TO.C,U1*%
D18*
X137859150Y-114717500D02*
X137859150Y-116101431D01*
X137859150Y-117778569D02*
X137859150Y-118641431D01*
X137859150Y-120318569D02*
X137859150Y-121181431D01*
X137859150Y-122858569D02*
X137859150Y-123721431D01*
X137859150Y-125398569D02*
X137859150Y-126261431D01*
X137859150Y-127938569D02*
X137859150Y-128801431D01*
X137859150Y-130478569D02*
X137859150Y-131341431D01*
X137859150Y-133018569D02*
X137859150Y-134402500D01*
X137859150Y-134402500D02*
X144463150Y-134402500D01*
X144463150Y-114717500D02*
X137859150Y-114717500D01*
X144463150Y-116101431D02*
X144463150Y-114717500D01*
X144463150Y-118641431D02*
X144463150Y-117778569D01*
X144463150Y-121181431D02*
X144463150Y-120318569D01*
X144463150Y-123721431D02*
X144463150Y-122858569D01*
X144463150Y-126261431D02*
X144463150Y-125398569D01*
X144463150Y-128801431D02*
X144463150Y-127938569D01*
X144463150Y-131199560D02*
X144463150Y-130478569D01*
X144463150Y-134402500D02*
X144463150Y-133160440D01*
X140856350Y-134402500D02*
G75*
G02*
X141465950Y-134402500I304800J0D01*
G01*
%TO.C,J4*%
X170497600Y-114230600D02*
X170497600Y-135109400D01*
X170497600Y-135109400D02*
X180962400Y-135109400D01*
X180962400Y-114230600D02*
X170497600Y-114230600D01*
X180962400Y-135109400D02*
X180962400Y-114230600D01*
%TO.C,NX5*%
D15*
X222110000Y-155800143D02*
X222110000Y-142941343D01*
X222110000Y-155800143D02*
X222110000Y-155958843D01*
X238937500Y-142941343D02*
X238937500Y-155958843D01*
X222110000Y-142941343D02*
G75*
G02*
X238937500Y-142941343I8413750J-6526600D01*
G01*
D19*
X222110000Y-142941343D02*
G75*
G02*
X238937500Y-142941343I8413750J-6609101D01*
G01*
D15*
X238937500Y-155958843D02*
G75*
G02*
X222109999Y-155958842I-8413750J5794402D01*
G01*
D19*
X238937500Y-155958843D02*
G75*
G02*
X222110000Y-155958843I-8413750J6009801D01*
G01*
X233540000Y-149608843D02*
G75*
G02*
X228460000Y-149608843I-2540000J0D01*
G01*
X228460000Y-149608843D02*
G75*
G02*
X233540000Y-149608843I2540000J0D01*
G01*
D20*
%TO.C,G\u002A\u002A\u002A*%
G36*
X292185981Y-74692260D02*
G01*
X292476495Y-74700013D01*
X292766769Y-74713590D01*
X293050689Y-74732994D01*
X293322142Y-74758227D01*
X293399577Y-74766858D01*
X294038336Y-74859793D01*
X294653523Y-74987408D01*
X295244656Y-75149459D01*
X295811253Y-75345701D01*
X296352834Y-75575888D01*
X296868917Y-75839777D01*
X297359020Y-76137122D01*
X297822663Y-76467679D01*
X298259364Y-76831202D01*
X298668642Y-77227447D01*
X299027754Y-77629325D01*
X299256940Y-77921825D01*
X299477363Y-78236809D01*
X299683476Y-78564980D01*
X299869731Y-78897043D01*
X300030581Y-79223704D01*
X300151815Y-79512679D01*
X300199435Y-79635476D01*
X300238250Y-79725607D01*
X300273861Y-79790860D01*
X300311869Y-79839023D01*
X300357873Y-79877882D01*
X300417475Y-79915227D01*
X300457345Y-79937537D01*
X300786647Y-80137241D01*
X301095399Y-80361591D01*
X301379910Y-80606796D01*
X301636492Y-80869065D01*
X301861453Y-81144606D01*
X302051104Y-81429628D01*
X302201753Y-81720338D01*
X302209341Y-81737581D01*
X302309224Y-81988782D01*
X302405459Y-82272761D01*
X302495416Y-82579367D01*
X302576466Y-82898450D01*
X302645978Y-83219858D01*
X302701325Y-83533441D01*
X302731460Y-83753169D01*
X302743716Y-83890420D01*
X302752246Y-84056050D01*
X302757043Y-84239137D01*
X302758103Y-84428757D01*
X302755418Y-84613990D01*
X302748984Y-84783911D01*
X302738796Y-84927598D01*
X302732088Y-84987743D01*
X302668352Y-85361140D01*
X302578301Y-85719140D01*
X302463855Y-86056421D01*
X302326933Y-86367663D01*
X302169456Y-86647543D01*
X302091814Y-86762655D01*
X301970716Y-86929941D01*
X301859280Y-87079805D01*
X301761264Y-87207331D01*
X301680428Y-87307605D01*
X301633931Y-87361315D01*
X301554843Y-87448244D01*
X301540223Y-87951763D01*
X301513477Y-88694957D01*
X301475558Y-89474965D01*
X301426931Y-90287268D01*
X301368063Y-91127345D01*
X301299423Y-91990678D01*
X301221477Y-92872746D01*
X301134693Y-93769031D01*
X301039537Y-94675012D01*
X300936476Y-95586171D01*
X300825979Y-96497987D01*
X300708511Y-97405942D01*
X300584541Y-98305515D01*
X300454535Y-99192187D01*
X300318960Y-100061438D01*
X300236459Y-100564835D01*
X300191664Y-100830815D01*
X300145823Y-101098706D01*
X300099606Y-101364869D01*
X300053683Y-101625666D01*
X300008725Y-101877455D01*
X299965404Y-102116599D01*
X299924389Y-102339459D01*
X299886351Y-102542394D01*
X299851961Y-102721766D01*
X299821890Y-102873936D01*
X299796808Y-102995263D01*
X299777387Y-103082111D01*
X299764296Y-103130838D01*
X299762816Y-103134897D01*
X299725192Y-103195190D01*
X299659552Y-103267282D01*
X299575632Y-103342505D01*
X299483167Y-103412192D01*
X299391892Y-103467676D01*
X299385152Y-103471131D01*
X299262464Y-103525028D01*
X299119947Y-103572151D01*
X298954720Y-103612883D01*
X298763898Y-103647611D01*
X298544600Y-103676718D01*
X298293943Y-103700591D01*
X298009043Y-103719613D01*
X297687018Y-103734171D01*
X297339475Y-103744320D01*
X297179949Y-103746779D01*
X296998134Y-103747532D01*
X296798178Y-103746716D01*
X296584224Y-103744467D01*
X296360419Y-103740920D01*
X296130907Y-103736211D01*
X295899833Y-103730475D01*
X295671343Y-103723847D01*
X295449581Y-103716465D01*
X295238694Y-103708462D01*
X295042825Y-103699975D01*
X294866121Y-103691139D01*
X294712726Y-103682089D01*
X294586786Y-103672963D01*
X294492446Y-103663894D01*
X294433851Y-103655018D01*
X294415978Y-103648692D01*
X294413364Y-103641676D01*
X294409698Y-103623507D01*
X294404768Y-103592339D01*
X294398366Y-103546322D01*
X294390282Y-103483610D01*
X294380306Y-103402356D01*
X294368229Y-103300711D01*
X294353840Y-103176829D01*
X294336930Y-103028863D01*
X294317290Y-102854963D01*
X294294709Y-102653284D01*
X294268978Y-102421978D01*
X294239888Y-102159197D01*
X294207228Y-101863094D01*
X294170789Y-101531821D01*
X294130361Y-101163532D01*
X294085734Y-100756378D01*
X294036699Y-100308512D01*
X294033030Y-100274978D01*
X294010744Y-100072068D01*
X293989511Y-99880136D01*
X293969857Y-99703852D01*
X293952311Y-99547883D01*
X293937398Y-99416899D01*
X293925648Y-99315568D01*
X293917587Y-99248557D01*
X293914166Y-99222907D01*
X293902210Y-99147759D01*
X293146329Y-99154349D01*
X292970220Y-99156290D01*
X292807823Y-99158857D01*
X292664108Y-99161913D01*
X292544049Y-99165319D01*
X292452617Y-99168936D01*
X292394784Y-99172626D01*
X292375635Y-99175820D01*
X292365729Y-99205794D01*
X292354276Y-99275211D01*
X292341508Y-99380607D01*
X292327657Y-99518520D01*
X292312954Y-99685487D01*
X292297630Y-99878047D01*
X292281917Y-100092735D01*
X292266046Y-100326090D01*
X292250248Y-100574649D01*
X292234755Y-100834948D01*
X292219798Y-101103527D01*
X292205608Y-101376922D01*
X292192417Y-101651670D01*
X292180456Y-101924308D01*
X292169956Y-102191375D01*
X292165200Y-102325443D01*
X292159003Y-102502779D01*
X292152617Y-102677247D01*
X292146346Y-102841194D01*
X292140490Y-102986965D01*
X292135351Y-103106904D01*
X292131230Y-103193357D01*
X292130451Y-103207830D01*
X292118378Y-103424621D01*
X291674700Y-103566767D01*
X291440246Y-103640483D01*
X291235200Y-103701437D01*
X291048875Y-103752237D01*
X290870581Y-103795489D01*
X290689630Y-103833800D01*
X290495333Y-103869779D01*
X290297041Y-103902831D01*
X289982882Y-103945170D01*
X289638330Y-103977331D01*
X289274791Y-103998971D01*
X288903672Y-104009747D01*
X288536380Y-104009314D01*
X288184322Y-103997329D01*
X287881572Y-103975608D01*
X287505154Y-103931953D01*
X287109529Y-103870529D01*
X286711651Y-103794468D01*
X286328470Y-103706901D01*
X286099492Y-103646466D01*
X286012298Y-103620425D01*
X285910165Y-103587355D01*
X285800618Y-103550004D01*
X285691180Y-103511122D01*
X285589373Y-103473459D01*
X285502723Y-103439763D01*
X285438753Y-103412783D01*
X285404986Y-103395269D01*
X285401619Y-103391459D01*
X285397752Y-103367453D01*
X285386893Y-103306939D01*
X285370090Y-103215589D01*
X285348396Y-103099075D01*
X285322859Y-102963070D01*
X285295674Y-102819273D01*
X285242570Y-102532415D01*
X285186637Y-102217680D01*
X285128917Y-101881719D01*
X285070452Y-101531180D01*
X285012286Y-101172712D01*
X284955460Y-100812964D01*
X284901017Y-100458585D01*
X284850001Y-100116224D01*
X284803453Y-99792530D01*
X284762417Y-99494153D01*
X284727935Y-99227741D01*
X284712584Y-99101016D01*
X284700423Y-99007017D01*
X284688178Y-98928262D01*
X284677562Y-98875031D01*
X284672202Y-98858745D01*
X284651383Y-98851424D01*
X284600167Y-98851236D01*
X284515376Y-98858426D01*
X284393836Y-98873236D01*
X284283492Y-98888510D01*
X283802396Y-98944689D01*
X283347967Y-98971911D01*
X282920815Y-98970387D01*
X282521553Y-98940329D01*
X282150791Y-98881948D01*
X281809143Y-98795455D01*
X281497218Y-98681062D01*
X281215630Y-98538980D01*
X280964989Y-98369421D01*
X280745907Y-98172596D01*
X280558996Y-97948717D01*
X280404868Y-97697994D01*
X280321946Y-97519250D01*
X280294460Y-97442756D01*
X280265697Y-97343054D01*
X280234927Y-97216788D01*
X280201423Y-97060602D01*
X280164454Y-96871140D01*
X280123292Y-96645047D01*
X280088018Y-96442349D01*
X279977184Y-95745993D01*
X279877585Y-95019290D01*
X279790519Y-94273667D01*
X279717283Y-93520550D01*
X279659172Y-92771369D01*
X279643358Y-92524006D01*
X279635979Y-92373181D01*
X279629746Y-92187969D01*
X279624658Y-91974361D01*
X279620715Y-91738350D01*
X279617917Y-91485927D01*
X279616263Y-91223085D01*
X279615754Y-90955815D01*
X279616390Y-90690111D01*
X279618169Y-90431962D01*
X279621093Y-90187362D01*
X279625160Y-89962303D01*
X279630371Y-89762776D01*
X279636726Y-89594773D01*
X279643446Y-89475147D01*
X279701216Y-88786459D01*
X279775961Y-88135095D01*
X279868237Y-87518702D01*
X279978599Y-86934927D01*
X280107602Y-86381415D01*
X280255802Y-85855814D01*
X280423754Y-85355769D01*
X280612015Y-84878927D01*
X280821138Y-84422933D01*
X280849001Y-84366828D01*
X280905995Y-84253995D01*
X280948811Y-84173262D01*
X280982135Y-84118151D01*
X281010654Y-84082186D01*
X281039055Y-84058891D01*
X281072025Y-84041790D01*
X281089567Y-84034403D01*
X281483793Y-83884925D01*
X281916387Y-83742711D01*
X282383227Y-83608790D01*
X282880195Y-83484193D01*
X283403171Y-83369951D01*
X283948034Y-83267093D01*
X284510664Y-83176650D01*
X284531641Y-83173574D01*
X284654657Y-83155404D01*
X284761774Y-83139218D01*
X284846254Y-83126063D01*
X284901358Y-83116988D01*
X284920357Y-83113103D01*
X284926092Y-83092060D01*
X284940816Y-83034949D01*
X284963107Y-82947368D01*
X284991547Y-82834910D01*
X285024716Y-82703171D01*
X285055415Y-82580818D01*
X285258192Y-81824633D01*
X285478960Y-81102643D01*
X285545490Y-80910904D01*
X291712662Y-80910904D01*
X291726295Y-80990110D01*
X291827645Y-81514816D01*
X291944376Y-82000006D01*
X292076772Y-82446362D01*
X292225118Y-82854568D01*
X292389697Y-83225306D01*
X292570792Y-83559260D01*
X292768688Y-83857114D01*
X292983669Y-84119551D01*
X293059852Y-84199965D01*
X293288940Y-84411843D01*
X293522110Y-84583665D01*
X293765290Y-84718276D01*
X294024409Y-84818522D01*
X294305396Y-84887248D01*
X294566260Y-84923048D01*
X294666595Y-84932843D01*
X294794537Y-84945640D01*
X294934991Y-84959916D01*
X295072863Y-84974144D01*
X295098790Y-84976849D01*
X295480623Y-85009912D01*
X295890927Y-85032960D01*
X296316340Y-85045680D01*
X296743503Y-85047757D01*
X297159053Y-85038876D01*
X297360946Y-85030092D01*
X297947683Y-84987344D01*
X298505074Y-84921466D01*
X299032028Y-84832753D01*
X299527455Y-84721500D01*
X299990263Y-84588003D01*
X300419362Y-84432558D01*
X300813660Y-84255459D01*
X301172066Y-84057002D01*
X301329164Y-83955513D01*
X301430878Y-83887136D01*
X301502782Y-83837478D01*
X301549199Y-83799201D01*
X301574450Y-83764970D01*
X301582859Y-83727445D01*
X301578748Y-83679289D01*
X301566439Y-83613165D01*
X301557878Y-83567252D01*
X301520300Y-83377459D01*
X301473192Y-83173273D01*
X301418963Y-82962869D01*
X301360022Y-82754426D01*
X301298779Y-82556117D01*
X301237643Y-82376121D01*
X301179023Y-82222612D01*
X301128453Y-82109944D01*
X300998631Y-81891674D01*
X300830994Y-81675372D01*
X300630592Y-81465592D01*
X300402473Y-81266888D01*
X300151687Y-81083816D01*
X299883283Y-80920930D01*
X299713697Y-80833732D01*
X299343600Y-80677038D01*
X298941960Y-80546439D01*
X298511929Y-80442730D01*
X298056662Y-80366707D01*
X297715215Y-80329578D01*
X297604784Y-80322566D01*
X297457873Y-80316932D01*
X297280921Y-80312678D01*
X297080368Y-80309806D01*
X296862653Y-80308316D01*
X296634216Y-80308210D01*
X296401495Y-80309490D01*
X296170931Y-80312157D01*
X295948963Y-80316213D01*
X295742030Y-80321658D01*
X295556572Y-80328494D01*
X295543047Y-80329093D01*
X294939501Y-80362369D01*
X294372856Y-80406338D01*
X293843857Y-80460896D01*
X293353251Y-80525937D01*
X292901782Y-80601357D01*
X292490196Y-80687051D01*
X292119239Y-80782912D01*
X291944201Y-80836242D01*
X291712662Y-80910904D01*
X285545490Y-80910904D01*
X285717423Y-80415395D01*
X285973286Y-79763433D01*
X286246253Y-79147305D01*
X286536030Y-78567555D01*
X286842321Y-78024729D01*
X287164831Y-77519374D01*
X287503265Y-77052035D01*
X287857329Y-76623258D01*
X288226725Y-76233589D01*
X288611161Y-75883574D01*
X288729670Y-75786151D01*
X289082051Y-75524682D01*
X289446541Y-75295000D01*
X289818613Y-75099351D01*
X290193742Y-74939983D01*
X290567400Y-74819145D01*
X290780135Y-74767918D01*
X290943731Y-74740776D01*
X291143763Y-74719444D01*
X291374116Y-74703924D01*
X291628678Y-74694218D01*
X291901337Y-74690329D01*
X292185981Y-74692260D01*
G37*
%TO.C,S3*%
D19*
X205400000Y-75700000D02*
X207950000Y-75700000D01*
X205400000Y-79000000D02*
X205400000Y-75700000D01*
X205400000Y-85800000D02*
X205400000Y-89100000D01*
X205400000Y-89100000D02*
X207950000Y-89100000D01*
X215350000Y-75700000D02*
X217900000Y-75700000D01*
X215350000Y-89100000D02*
X217900000Y-89100000D01*
X217900000Y-75700000D02*
X217900000Y-79000000D01*
X217900000Y-89100000D02*
X217900000Y-85800000D01*
D12*
X209250000Y-74050000D02*
G75*
G02*
X209050000Y-74050000I-100000J0D01*
G01*
X209050000Y-74050000D02*
G75*
G02*
X209250000Y-74050000I100000J0D01*
G01*
%TO.C,D2*%
D17*
X73741150Y-121498850D02*
X73741150Y-125338850D01*
X73741150Y-125338850D02*
X81581150Y-125338850D01*
X74881150Y-121498850D02*
X74881150Y-125338850D01*
X75001150Y-121498850D02*
X75001150Y-125338850D01*
X75121150Y-121498850D02*
X75121150Y-125338850D01*
X81581150Y-121498850D02*
X73741150Y-121498850D01*
X81581150Y-125338850D02*
X81581150Y-121498850D01*
%TO.C,C6*%
D18*
X92058800Y-111918850D02*
X93328800Y-111918850D01*
X92693800Y-111283850D02*
X92693800Y-112553850D01*
X104200000Y-111918850D02*
G75*
G02*
X93455800Y-111918850I-5372100J0D01*
G01*
X93455800Y-111918850D02*
G75*
G02*
X104200000Y-111918850I5372100J0D01*
G01*
%TO.C,SW1*%
D19*
X184196150Y-97808850D02*
X197046150Y-97808850D01*
X184196150Y-99358850D02*
X184196150Y-97808850D01*
X184196150Y-104408850D02*
X184196150Y-102858850D01*
X197046150Y-97808850D02*
X197046150Y-99358850D01*
X197046150Y-102858850D02*
X197046150Y-104408850D01*
X197046150Y-104408850D02*
X184196150Y-104408850D01*
D12*
X183421150Y-101008850D02*
G75*
G02*
X183221150Y-101008850I-100000J0D01*
G01*
X183221150Y-101008850D02*
G75*
G02*
X183421150Y-101008850I100000J0D01*
G01*
%TO.C,NX4*%
D15*
X191898650Y-155800143D02*
X191898650Y-142941343D01*
X191898650Y-155800143D02*
X191898650Y-155958843D01*
X208726150Y-142941343D02*
X208726150Y-155958843D01*
X191898650Y-142941343D02*
G75*
G02*
X208726150Y-142941343I8413750J-6526600D01*
G01*
D19*
X191898650Y-142941343D02*
G75*
G02*
X208726150Y-142941343I8413750J-6609101D01*
G01*
D15*
X208726150Y-155958843D02*
G75*
G02*
X191898649Y-155958842I-8413750J5794402D01*
G01*
D19*
X208726150Y-155958843D02*
G75*
G02*
X191898650Y-155958843I-8413750J6009801D01*
G01*
X203328650Y-149608843D02*
G75*
G02*
X198248650Y-149608843I-2540000J0D01*
G01*
X198248650Y-149608843D02*
G75*
G02*
X203328650Y-149608843I2540000J0D01*
G01*
%TO.C,U9*%
X279730000Y-114925000D02*
X283430000Y-114925000D01*
X279730000Y-166725000D02*
X279730000Y-114925000D01*
X280905000Y-166725000D02*
X279730000Y-166725000D01*
X280905000Y-166725000D02*
X280905000Y-167125000D01*
X280905000Y-167125000D02*
X289555000Y-167125000D01*
X283430000Y-108575000D02*
X301430000Y-108575000D01*
X283430000Y-114925000D02*
X283430000Y-108575000D01*
X289555000Y-167125000D02*
X289555000Y-166725000D01*
X295305000Y-166725000D02*
X289555000Y-166725000D01*
X295305000Y-166725000D02*
X295305000Y-167125000D01*
X295305000Y-167125000D02*
X303955000Y-167125000D01*
X301430000Y-108575000D02*
X301430000Y-114925000D01*
X301430000Y-114925000D02*
X305130000Y-114925000D01*
X303955000Y-167125000D02*
X303955000Y-166725000D01*
X305130000Y-114925000D02*
X305130000Y-166725000D01*
X305130000Y-166725000D02*
X303955000Y-166725000D01*
D12*
X279280000Y-116500000D02*
G75*
G02*
X279080000Y-116500000I-100000J0D01*
G01*
X279080000Y-116500000D02*
G75*
G02*
X279280000Y-116500000I100000J0D01*
G01*
%TO.C,R3*%
D17*
X85741150Y-183648850D02*
X86511150Y-183648850D01*
X93821150Y-183648850D02*
X93051150Y-183648850D01*
X86511150Y-182278850D02*
X93051150Y-182278850D01*
X93051150Y-185018850D01*
X86511150Y-185018850D01*
X86511150Y-182278850D01*
%TO.C,J3*%
D18*
X150428750Y-114010600D02*
X150428750Y-134889400D01*
X150428750Y-134889400D02*
X160893550Y-134889400D01*
X160893550Y-114010600D02*
X150428750Y-114010600D01*
X160893550Y-134889400D02*
X160893550Y-114010600D01*
%TO.C,J1*%
X63356812Y-73307245D02*
X63356812Y-81804696D01*
X63356812Y-86164194D02*
X63356812Y-87861445D01*
X63356812Y-87861445D02*
X65702720Y-87861445D01*
X70256504Y-87861445D02*
X72602412Y-87861445D01*
X72602412Y-73307245D02*
X63356812Y-73307245D01*
X72602412Y-87861445D02*
X72602412Y-73307245D01*
D21*
X74761412Y-87134444D02*
G75*
G02*
X73999412Y-87134444I-381000J0D01*
G01*
X73999412Y-87134444D02*
G75*
G02*
X74761412Y-87134444I381000J0D01*
G01*
%TO.C,R4*%
D17*
X126160000Y-165800000D02*
X126930000Y-165800000D01*
X134240000Y-165800000D02*
X133470000Y-165800000D01*
X126930000Y-164430000D02*
X133470000Y-164430000D01*
X133470000Y-167170000D01*
X126930000Y-167170000D01*
X126930000Y-164430000D01*
%TO.C,R7*%
X195360000Y-165800000D02*
X196130000Y-165800000D01*
X203440000Y-165800000D02*
X202670000Y-165800000D01*
X196130000Y-164430000D02*
X202670000Y-164430000D01*
X202670000Y-167170000D01*
X196130000Y-167170000D01*
X196130000Y-164430000D01*
%TO.C,R5*%
X145960000Y-165800000D02*
X146730000Y-165800000D01*
X154040000Y-165800000D02*
X153270000Y-165800000D01*
X146730000Y-164430000D02*
X153270000Y-164430000D01*
X153270000Y-167170000D01*
X146730000Y-167170000D01*
X146730000Y-164430000D01*
%TO.C,U3*%
D18*
X238098000Y-114717500D02*
X238098000Y-116101431D01*
X238098000Y-117778569D02*
X238098000Y-118641431D01*
X238098000Y-120318569D02*
X238098000Y-121181431D01*
X238098000Y-122858569D02*
X238098000Y-123721431D01*
X238098000Y-125398569D02*
X238098000Y-126261431D01*
X238098000Y-127938569D02*
X238098000Y-128801431D01*
X238098000Y-130478569D02*
X238098000Y-131341431D01*
X238098000Y-133018569D02*
X238098000Y-134402500D01*
X238098000Y-134402500D02*
X244702000Y-134402500D01*
X244702000Y-114717500D02*
X238098000Y-114717500D01*
X244702000Y-116101431D02*
X244702000Y-114717500D01*
X244702000Y-118641431D02*
X244702000Y-117778569D01*
X244702000Y-121181431D02*
X244702000Y-120318569D01*
X244702000Y-123721431D02*
X244702000Y-122858569D01*
X244702000Y-126261431D02*
X244702000Y-125398569D01*
X244702000Y-128801431D02*
X244702000Y-127938569D01*
X244702000Y-131199560D02*
X244702000Y-130478569D01*
X244702000Y-134402500D02*
X244702000Y-133160440D01*
X241095200Y-134402500D02*
G75*
G02*
X241704800Y-134402500I304800J0D01*
G01*
%TO.C,R8*%
D17*
X225560000Y-165800000D02*
X226330000Y-165800000D01*
X233640000Y-165800000D02*
X232870000Y-165800000D01*
X226330000Y-164430000D02*
X232870000Y-164430000D01*
X232870000Y-167170000D01*
X226330000Y-167170000D01*
X226330000Y-164430000D01*
%TO.C,U2*%
D18*
X187308000Y-114717500D02*
X187308000Y-116101431D01*
X187308000Y-117778569D02*
X187308000Y-118641431D01*
X187308000Y-120318569D02*
X187308000Y-121181431D01*
X187308000Y-122858569D02*
X187308000Y-123721431D01*
X187308000Y-125398569D02*
X187308000Y-126261431D01*
X187308000Y-127938569D02*
X187308000Y-128801431D01*
X187308000Y-130478569D02*
X187308000Y-131341431D01*
X187308000Y-133018569D02*
X187308000Y-134402500D01*
X187308000Y-134402500D02*
X193912000Y-134402500D01*
X193912000Y-114717500D02*
X187308000Y-114717500D01*
X193912000Y-116101431D02*
X193912000Y-114717500D01*
X193912000Y-118641431D02*
X193912000Y-117778569D01*
X193912000Y-121181431D02*
X193912000Y-120318569D01*
X193912000Y-123721431D02*
X193912000Y-122858569D01*
X193912000Y-126261431D02*
X193912000Y-125398569D01*
X193912000Y-128801431D02*
X193912000Y-127938569D01*
X193912000Y-131199560D02*
X193912000Y-130478569D01*
X193912000Y-134402500D02*
X193912000Y-133160440D01*
X190305200Y-134402500D02*
G75*
G02*
X190914800Y-134402500I304800J0D01*
G01*
%TO.C,R6*%
D17*
X175160000Y-165800000D02*
X175930000Y-165800000D01*
X183240000Y-165800000D02*
X182470000Y-165800000D01*
X175930000Y-164430000D02*
X182470000Y-164430000D01*
X182470000Y-167170000D01*
X175930000Y-167170000D01*
X175930000Y-164430000D01*
%TO.C,J5*%
D18*
X200497600Y-114010600D02*
X200497600Y-134889400D01*
X200497600Y-134889400D02*
X210962400Y-134889400D01*
X210962400Y-114010600D02*
X200497600Y-114010600D01*
X210962400Y-134889400D02*
X210962400Y-114010600D01*
%TO.C,L1*%
X62251450Y-151648850D02*
X63521450Y-151648850D01*
X62886450Y-151013850D02*
X62886450Y-152283850D01*
X73122650Y-151648850D02*
G75*
G02*
X63648450Y-151648850I-4737100J0D01*
G01*
X63648450Y-151648850D02*
G75*
G02*
X73122650Y-151648850I4737100J0D01*
G01*
%TO.C,D1*%
D19*
X68533150Y-157938850D02*
X73123150Y-157938850D01*
X68533150Y-168438850D02*
X68533150Y-157938850D01*
X73123150Y-157938850D02*
X73123150Y-168438850D01*
X73123150Y-168438850D02*
X68533150Y-168438850D01*
D12*
X71381150Y-169188850D02*
G75*
G02*
X71181150Y-169188850I-100000J0D01*
G01*
X71181150Y-169188850D02*
G75*
G02*
X71381150Y-169188850I100000J0D01*
G01*
%TO.C,NX6*%
D15*
X242786251Y-155800143D02*
X242786251Y-142941343D01*
X242786251Y-155800143D02*
X242786251Y-155958843D01*
X259613751Y-142941343D02*
X259613751Y-155958843D01*
X242786251Y-142941343D02*
G75*
G02*
X259613751Y-142941343I8413750J-6526600D01*
G01*
D19*
X242786251Y-142941343D02*
G75*
G02*
X259613751Y-142941343I8413750J-6609101D01*
G01*
D15*
X259613751Y-155958843D02*
G75*
G02*
X242786250Y-155958842I-8413750J5794402D01*
G01*
D19*
X259613751Y-155958843D02*
G75*
G02*
X242786251Y-155958843I-8413750J6009801D01*
G01*
X254216251Y-149608843D02*
G75*
G02*
X249136251Y-149608843I-2540000J0D01*
G01*
X249136251Y-149608843D02*
G75*
G02*
X254216251Y-149608843I2540000J0D01*
G01*
%TD*%
M02*
